<?xml version="1.0" encoding="UTF-8" standalone="no"?>
<!DOCTYPE svg PUBLIC "-//W3C//DTD SVG 1.1//EN" "http://www.w3.org/Graphics/SVG/1.1/DTD/svg11.dtd">
<!-- Generated by Microsoft Visio, SVG Export bench.svg Page-1 -->
<svg xmlns="http://www.w3.org/2000/svg" xmlns:xlink="http://www.w3.org/1999/xlink" xmlns:ev="http://www.w3.org/2001/xml-events"
		xmlns:v="http://schemas.microsoft.com/visio/2003/SVGExtensions/" width="4.31042in" height="2.38819in"
		viewBox="0 0 310.35 171.95" xml:space="preserve" color-interpolation-filters="sRGB" class="st9">
	<v:documentProperties v:langID="2057" v:metric="true" v:viewMarkup="false"/>

	<style type="text/css">
	<![CDATA[
		.st1 {fill:#ffffff;stroke:#000000;stroke-linecap:round;stroke-linejoin:round;stroke-width:0.75}
		.st2 {stroke:#000000;stroke-linecap:round;stroke-linejoin:round;stroke-width:0.75}
		.st3 {marker-end:url(#mrkr5-53);stroke:#000000;stroke-linecap:round;stroke-linejoin:round;stroke-width:0.75}
		.st4 {fill:#000000;fill-opacity:1;stroke:#000000;stroke-opacity:1;stroke-width:0.22935779816514}
		.st5 {fill:none;stroke:none;stroke-linecap:round;stroke-linejoin:round;stroke-width:0.75}
		.st6 {fill:#000000;font-family:Calibri;font-size:1.00001em}
		.st7 {font-size:0.666659em}
		.st8 {fill:#000000;font-family:Calibri;font-size:0.666664em}
		.st9 {fill:none;fill-rule:evenodd;font-size:12px;overflow:visible;stroke-linecap:square;stroke-miterlimit:3}
	]]>
	</style>

	<defs id="Markers">
		<g id="lend5">
			<path d="M 2 1 L 0 0 L 1.98117 -0.993387 C 1.67173 -0.364515 1.67301 0.372641 1.98465 1.00043 " style="stroke:none"/>
		</g>
		<marker id="mrkr5-53" class="st4" v:arrowType="5" v:arrowSize="2" v:setback="7.63" refX="-7.63" orient="auto"
				markerUnits="strokeWidth" overflow="visible">
			<use xlink:href="#lend5" transform="scale(-4.36,-4.36) "/>
		</marker>
	</defs>
	<g v:mID="0" v:index="1" v:groupContext="foregroundPage">
		<title>Page-1</title>
		<v:pageProperties v:drawingScale="1" v:pageScale="1" v:drawingUnits="0" v:shadowOffsetX="8.50394"
				v:shadowOffsetY="-8.50394"/>
		<g id="group18-1" transform="translate(47.175,-147.975)" v:mID="18" v:groupContext="group">
			<title>Sheet.18</title>
			<g id="shape19-2" v:mID="19" v:groupContext="shape" transform="translate(7.2,2.84217E-14)">
				<title>Sheet.19</title>
				<rect x="0" y="164.75" width="21.6" height="7.2" class="st1"/>
			</g>
			<g id="shape20-4" v:mID="20" v:groupContext="shape" transform="translate(1.59872E-14,-3.6)">
				<title>Sheet.20</title>
				<path d="M0 171.95 L7.2 171.95" class="st2"/>
			</g>
			<g id="shape21-7" v:mID="21" v:groupContext="shape" transform="translate(28.8,-3.6)">
				<title>Sheet.21</title>
				<path d="M0 171.95 L7.2 171.95" class="st2"/>
			</g>
		</g>
		<g id="shape25-10" v:mID="25" v:groupContext="shape" transform="translate(39.975,-93.975)">
			<title>Sheet.25</title>
			<path d="M0 171.95 L0 114.35 L7.2 114.35" class="st2"/>
		</g>
		<g id="shape26-13" v:mID="26" v:groupContext="shape" transform="translate(39.975,-0.375)">
			<title>Sheet.26</title>
			<path d="M0 114.35 L0 171.95 L151.2 171.95" class="st2"/>
		</g>
		<g id="group27-16" transform="translate(-20.375,113.975) rotate(-90)" v:mID="27" v:groupContext="group">
			<title>Sheet.27</title>
			<g id="shape28-17" v:mID="28" v:groupContext="shape" transform="translate(7.2,2.84217E-14)">
				<title>Sheet.28</title>
				<rect x="0" y="164.75" width="21.6" height="7.2" class="st1"/>
			</g>
			<g id="shape29-19" v:mID="29" v:groupContext="shape" transform="translate(1.59872E-14,-3.6)">
				<title>Sheet.29</title>
				<path d="M0 171.95 L7.2 171.95" class="st2"/>
			</g>
			<g id="shape30-22" v:mID="30" v:groupContext="shape" transform="translate(28.8,-3.6)">
				<title>Sheet.30</title>
				<path d="M0 171.95 L7.2 171.95" class="st2"/>
			</g>
		</g>
		<g id="group43-25" transform="translate(341.525,135.575) rotate(90)" v:mID="43" v:groupContext="group">
			<title>Sheet.43</title>
			<g id="shape44-26" v:mID="44" v:groupContext="shape" transform="translate(0,-12.24)">
				<title>Sheet.44</title>
				<rect x="0" y="169.79" width="21.6" height="2.16003" class="st1"/>
			</g>
			<g id="shape45-28" v:mID="45" v:groupContext="shape" transform="translate(0,-7.20001)">
				<title>Sheet.45</title>
				<rect x="0" y="169.79" width="21.6" height="2.16003" class="st1"/>
			</g>
			<g id="shape46-30" v:mID="46" v:groupContext="shape" transform="translate(-161.15,157.55) rotate(-90)">
				<title>Sheet.46</title>
				<path d="M0 171.95 L7.2 171.95" class="st2"/>
			</g>
			<g id="shape47-33" v:mID="47" v:groupContext="shape" transform="translate(182.75,164.75) rotate(90)">
				<title>Sheet.47</title>
				<path d="M0 171.95 L7.2 171.95" class="st2"/>
			</g>
		</g>
		<g id="group71-36" transform="translate(116.425,113.975) rotate(-90)" v:mID="71" v:groupContext="group">
			<title>Sheet.71</title>
			<g id="shape72-37" v:mID="72" v:groupContext="shape" transform="translate(7.2,2.84217E-14)">
				<title>Sheet.72</title>
				<rect x="0" y="164.75" width="21.6" height="7.2" class="st1"/>
			</g>
			<g id="shape73-39" v:mID="73" v:groupContext="shape" transform="translate(1.59872E-14,-3.6)">
				<title>Sheet.73</title>
				<path d="M0 171.95 L7.2 171.95" class="st2"/>
			</g>
			<g id="shape74-42" v:mID="74" v:groupContext="shape" transform="translate(28.8,-3.6)">
				<title>Sheet.74</title>
				<path d="M0 171.95 L7.2 171.95" class="st2"/>
			</g>
		</g>
		<g id="group80-45" transform="translate(0.375,-57.975)" v:mID="80" v:groupContext="group">
			<title>Sheet.80</title>
			<g id="shape81-46" v:mID="81" v:groupContext="shape" transform="translate(30.6,-9)">
				<title>Sheet.81</title>
				<ellipse cx="9" cy="162.95" rx="9" ry="9" class="st1"/>
			</g>
			<g id="shape82-48" v:mID="82" v:groupContext="shape" transform="translate(-132.35,159.35) rotate(-90)">
				<title>Sheet.82</title>
				<path d="M0 171.95 L5.08 171.95" class="st3"/>
			</g>
			<g id="shape83-54" v:mID="83" v:groupContext="shape" transform="translate(-132.35,144.952) rotate(-90)">
				<title>Sheet.83</title>
				<path d="M0 171.95 L9 171.95" class="st2"/>
			</g>
			<g id="shape84-57" v:mID="84" v:groupContext="shape" transform="translate(-132.35,171.95) rotate(-90)">
				<title>Sheet.84</title>
				<path d="M0 171.95 L9 171.95" class="st2"/>
			</g>
			<g id="shape85-60" v:mID="85" v:groupContext="shape" transform="translate(7.99361E-15,-9)">
				<title>Sheet.85</title>
				<desc>VIN</desc>
				<v:textBlock v:margins="rect(4,4,4,4)" v:tabSpace="42.5197"/>
				<v:textRect cx="14.4" cy="161.95" width="28.81" height="20"/>
				<rect x="0" y="151.95" width="28.8" height="20" class="st5"/>
				<text x="7.41" y="165.55" class="st6" v:langID="2057"><v:paragraph v:horizAlign="1"/><v:tabList/>V<tspan
							class="st7">IN</tspan></text>			</g>
		</g>
		<g id="shape106-64" v:mID="106" v:groupContext="shape" transform="translate(50.775,-151.575)">
			<title>Sheet.106</title>
			<desc>RS</desc>
			<v:textBlock v:margins="rect(4,4,4,4)" v:tabSpace="42.5197"/>
			<v:textRect cx="14.4" cy="161.95" width="28.81" height="20"/>
			<rect x="0" y="151.95" width="28.8" height="20" class="st5"/>
			<text x="9.3" y="165.55" class="st6" v:langID="2057"><v:paragraph v:horizAlign="1"/><v:tabList/>R<tspan class="st7">S</tspan></text>		</g>
		<g id="shape107-68" v:mID="107" v:groupContext="shape" transform="translate(281.175,-65.975)">
			<title>Sheet.107</title>
			<desc>RL</desc>
			<v:textBlock v:margins="rect(4,4,4,4)" v:tabSpace="42.5197"/>
			<v:textRect cx="14.4" cy="161.95" width="28.81" height="20"/>
			<rect x="0" y="151.95" width="28.8" height="20" class="st5"/>
			<text x="9.46" y="165.55" class="st6" v:langID="2057"><v:paragraph v:horizAlign="1"/><v:tabList/>R<tspan class="st7">L</tspan></text>		</g>
		<g id="shape112-72" v:mID="112" v:groupContext="shape" transform="translate(61.575,-15.575)">
			<title>Sheet.112</title>
			<desc>VR2</desc>
			<v:textBlock v:margins="rect(4,4,4,4)" v:tabSpace="42.5197"/>
			<v:textRect cx="14.4" cy="161.95" width="28.81" height="20"/>
			<rect x="0" y="151.95" width="28.8" height="20" class="st5"/>
			<text x="5.71" y="165.55" class="st6" v:langID="2057"><v:paragraph v:horizAlign="1"/><v:tabList/>VR<tspan class="st7">2</tspan></text>		</g>
		<g id="shape114-76" v:mID="114" v:groupContext="shape" transform="translate(153.28,-25.575)">
			<title>Sheet.114</title>
			<desc>C1</desc>
			<v:textBlock v:margins="rect(4,4,4,4)" v:tabSpace="42.5197"/>
			<v:textRect cx="14.4" cy="161.95" width="28.81" height="20"/>
			<rect x="0" y="151.95" width="28.8" height="20" class="st5"/>
			<text x="9.17" y="165.55" class="st6" v:langID="2057"><v:paragraph v:horizAlign="1"/><v:tabList/>C<tspan class="st7">1</tspan></text>		</g>
		<g id="shape116-80" v:mID="116" v:groupContext="shape" transform="translate(119.175,-65.975)">
			<title>Sheet.116</title>
			<desc>VR1</desc>
			<v:textBlock v:margins="rect(4,4,4,4)" v:tabSpace="42.5197"/>
			<v:textRect cx="14.4" cy="161.95" width="28.81" height="20"/>
			<rect x="0" y="151.95" width="28.8" height="20" class="st5"/>
			<text x="5.71" y="165.55" class="st6" v:langID="2057"><v:paragraph v:horizAlign="1"/><v:tabList/>VR<tspan class="st7">1</tspan></text>		</g>
		<g id="shape118-84" v:mID="118" v:groupContext="shape" transform="translate(147.975,-73.975)">
			<title>Sheet.118</title>
			<desc>cw</desc>
			<v:textBlock v:margins="rect(4,4,4,4)" v:tabSpace="42.5197"/>
			<v:textRect cx="10.8" cy="161.95" width="21.61" height="20"/>
			<rect x="0" y="151.95" width="21.6" height="20" class="st5"/>
			<text x="6.25" y="164.35" class="st8" v:langID="2057"><v:paragraph v:horizAlign="1"/><v:tabList/>cw</text>		</g>
		<g id="shape119-87" v:mID="119" v:groupContext="shape" transform="translate(90.375,-24.4003)">
			<title>Sheet.119</title>
			<desc>cw</desc>
			<v:textBlock v:margins="rect(4,4,4,4)" v:tabSpace="42.5197"/>
			<v:textRect cx="10.8" cy="161.95" width="21.61" height="20"/>
			<rect x="0" y="151.95" width="21.6" height="20" class="st5"/>
			<text x="6.25" y="164.35" class="st8" v:langID="2057"><v:paragraph v:horizAlign="1"/><v:tabList/>cw</text>		</g>
		<g id="group122-90" transform="translate(-77.975,164.375) rotate(-90)" v:mID="122" v:groupContext="group">
			<title>Sheet.122</title>
			<g id="shape123-91" v:mID="123" v:groupContext="shape" transform="translate(7.2,2.84217E-14)">
				<title>Sheet.123</title>
				<rect x="0" y="164.75" width="21.6" height="7.2" class="st1"/>
			</g>
			<g id="shape124-93" v:mID="124" v:groupContext="shape" transform="translate(1.59872E-14,-3.6)">
				<title>Sheet.124</title>
				<path d="M0 171.95 L7.2 171.95" class="st2"/>
			</g>
			<g id="shape125-96" v:mID="125" v:groupContext="shape" transform="translate(28.8,-3.6)">
				<title>Sheet.125</title>
				<path d="M0 171.95 L7.2 171.95" class="st2"/>
			</g>
		</g>
		<g id="group126-99" transform="translate(212.775,-147.975)" v:mID="126" v:groupContext="group">
			<title>Sheet.126</title>
			<g id="shape127-100" v:mID="127" v:groupContext="shape" transform="translate(7.2,2.84217E-14)">
				<title>Sheet.127</title>
				<rect x="0" y="164.75" width="21.6" height="7.2" class="st1"/>
			</g>
			<g id="shape128-102" v:mID="128" v:groupContext="shape" transform="translate(1.59872E-14,-3.6)">
				<title>Sheet.128</title>
				<path d="M0 171.95 L7.2 171.95" class="st2"/>
			</g>
			<g id="shape129-105" v:mID="129" v:groupContext="shape" transform="translate(28.8,-3.6)">
				<title>Sheet.129</title>
				<path d="M0 171.95 L7.2 171.95" class="st2"/>
			</g>
		</g>
		<g id="group188-108" transform="translate(104.775,-21.975)" v:mID="188" v:groupContext="group">
			<title>Sheet.188</title>
			<g id="shape131-109" v:mID="131" v:groupContext="shape" transform="translate(7.2,2.84217E-14)">
				<title>Sheet.131</title>
				<path d="M0 171.95 L21.6 171.95" class="st2"/>
			</g>
			<g id="shape176-112" v:mID="176" v:groupContext="shape" transform="translate(-135.013,261.643) rotate(-122.005)">
				<title>Sheet.176</title>
				<path d="M0 171.95 A6.01529 2.90876 24.62 0 1 6.79 171.95" class="st2"/>
			</g>
			<g id="shape177-115" v:mID="177" v:groupContext="shape"
					transform="translate(156.613,261.643) rotate(-57.9946) scale(1,-1)">
				<title>Sheet.177</title>
				<path d="M0 171.95 A6.01529 2.90876 24.62 0 1 6.79 171.95" class="st2"/>
			</g>
			<g id="shape178-118" v:mID="178" v:groupContext="shape" transform="translate(-127.813,261.643) rotate(-122.005)">
				<title>Sheet.178</title>
				<path d="M0 171.95 A6.01529 2.90876 24.62 0 1 6.79 171.95" class="st2"/>
			</g>
			<g id="shape179-121" v:mID="179" v:groupContext="shape"
					transform="translate(163.813,261.643) rotate(-57.9946) scale(1,-1)">
				<title>Sheet.179</title>
				<path d="M0 171.95 A6.01529 2.90876 24.62 0 1 6.79 171.95" class="st2"/>
			</g>
			<g id="shape180-124" v:mID="180" v:groupContext="shape" transform="translate(-120.613,261.643) rotate(-122.005)">
				<title>Sheet.180</title>
				<path d="M-0 171.95 A6.01529 2.90876 24.62 0 1 6.79 171.95" class="st2"/>
			</g>
			<g id="shape181-127" v:mID="181" v:groupContext="shape"
					transform="translate(171.013,261.643) rotate(-57.9946) scale(1,-1)">
				<title>Sheet.181</title>
				<path d="M0 171.95 A6.01529 2.90876 24.62 0 1 6.79 171.95" class="st2"/>
			</g>
			<g id="shape184-130" v:mID="184" v:groupContext="shape" transform="translate(128.787,286.337) rotate(135)">
				<title>Sheet.184</title>
				<path d="M-0 171.95 A4.12952 3.40963 124.67 0 1 5.09 171.95" class="st2"/>
			</g>
			<g id="shape185-133" v:mID="185" v:groupContext="shape"
					transform="translate(-92.7872,286.337) rotate(45.0001) scale(1,-1)">
				<title>Sheet.185</title>
				<path d="M-0 171.95 A4.12953 3.40963 124.67 0 1 5.09 171.95" class="st2"/>
			</g>
			<g id="shape186-136" v:mID="186" v:groupContext="shape" transform="translate(-5.3115E-12,-3.6)">
				<title>Sheet.186</title>
				<path d="M0 171.95 L3.6 171.95" class="st2"/>
			</g>
			<g id="shape187-139" v:mID="187" v:groupContext="shape" transform="translate(32.4,-3.6)">
				<title>Sheet.187</title>
				<path d="M0 171.95 L3.6 171.95" class="st2"/>
			</g>
		</g>
		<g id="shape189-142" v:mID="189" v:groupContext="shape" transform="translate(104.775,318.325) rotate(180)">
			<title>Sheet.189</title>
			<path d="M0 171.95 L5.08 171.95" class="st3"/>
		</g>
		<g id="group190-147" transform="translate(162.375,-72.375)" v:mID="190" v:groupContext="group">
			<title>Sheet.190</title>
			<g id="shape191-148" v:mID="191" v:groupContext="shape" transform="translate(7.2,2.84217E-14)">
				<title>Sheet.191</title>
				<path d="M0 171.95 L21.6 171.95" class="st2"/>
			</g>
			<g id="shape192-151" v:mID="192" v:groupContext="shape" transform="translate(-135.013,261.643) rotate(-122.005)">
				<title>Sheet.192</title>
				<path d="M0 171.95 A6.01529 2.90876 24.62 0 1 6.79 171.95" class="st2"/>
			</g>
			<g id="shape193-154" v:mID="193" v:groupContext="shape"
					transform="translate(156.613,261.643) rotate(-57.9946) scale(1,-1)">
				<title>Sheet.193</title>
				<path d="M0 171.95 A6.01529 2.90876 24.62 0 1 6.79 171.95" class="st2"/>
			</g>
			<g id="shape194-157" v:mID="194" v:groupContext="shape" transform="translate(-127.813,261.643) rotate(-122.005)">
				<title>Sheet.194</title>
				<path d="M0 171.95 A6.01529 2.90876 24.62 0 1 6.79 171.95" class="st2"/>
			</g>
			<g id="shape195-160" v:mID="195" v:groupContext="shape"
					transform="translate(163.813,261.643) rotate(-57.9946) scale(1,-1)">
				<title>Sheet.195</title>
				<path d="M0 171.95 A6.01529 2.90876 24.62 0 1 6.79 171.95" class="st2"/>
			</g>
			<g id="shape196-163" v:mID="196" v:groupContext="shape" transform="translate(-120.613,261.643) rotate(-122.005)">
				<title>Sheet.196</title>
				<path d="M-0 171.95 A6.01529 2.90876 24.62 0 1 6.79 171.95" class="st2"/>
			</g>
			<g id="shape197-166" v:mID="197" v:groupContext="shape"
					transform="translate(171.013,261.643) rotate(-57.9946) scale(1,-1)">
				<title>Sheet.197</title>
				<path d="M0 171.95 A6.01529 2.90876 24.62 0 1 6.79 171.95" class="st2"/>
			</g>
			<g id="shape198-169" v:mID="198" v:groupContext="shape" transform="translate(128.787,286.337) rotate(135)">
				<title>Sheet.198</title>
				<path d="M-0 171.95 A4.12952 3.40963 124.67 0 1 5.09 171.95" class="st2"/>
			</g>
			<g id="shape199-172" v:mID="199" v:groupContext="shape"
					transform="translate(-92.7872,286.337) rotate(45.0001) scale(1,-1)">
				<title>Sheet.199</title>
				<path d="M-0 171.95 A4.12953 3.40963 124.67 0 1 5.09 171.95" class="st2"/>
			</g>
			<g id="shape200-175" v:mID="200" v:groupContext="shape" transform="translate(-5.3115E-12,-3.6)">
				<title>Sheet.200</title>
				<path d="M0 171.95 L3.6 171.95" class="st2"/>
			</g>
			<g id="shape201-178" v:mID="201" v:groupContext="shape" transform="translate(32.4,-3.6)">
				<title>Sheet.201</title>
				<path d="M0 171.95 L3.6 171.95" class="st2"/>
			</g>
		</g>
		<g id="shape202-181" v:mID="202" v:groupContext="shape" transform="translate(162.375,267.925) rotate(180)">
			<title>Sheet.202</title>
			<path d="M0 171.95 L5.08 171.95" class="st3"/>
		</g>
		<g id="shape203-186" v:mID="203" v:groupContext="shape" transform="translate(-81.575,127.55) rotate(-90)">
			<title>Sheet.203</title>
			<path d="M0 171.95 L107.17 171.95" class="st2"/>
		</g>
		<g id="shape204-189" v:mID="204" v:groupContext="shape" transform="translate(262.325,164.375) rotate(90)">
			<title>Sheet.204</title>
			<path d="M0 171.95 L7.2 171.95" class="st2"/>
		</g>
		<g id="shape205-192" v:mID="205" v:groupContext="shape" transform="translate(319.925,113.975) rotate(90)">
			<title>Sheet.205</title>
			<path d="M0 171.95 L57.6 171.95" class="st2"/>
		</g>
		<g id="shape206-195" v:mID="206" v:groupContext="shape" transform="translate(151.575,-25.575)">
			<title>Sheet.206</title>
			<path d="M0 171.95 L18 171.95" class="st2"/>
		</g>
		<g id="shape207-198" v:mID="207" v:groupContext="shape" transform="translate(140.775,-25.575)">
			<title>Sheet.207</title>
			<path d="M0 171.95 L3.48 171.95" class="st2"/>
		</g>
		<g id="group208-201" transform="translate(37.225,63.575) rotate(-90)" v:mID="208" v:groupContext="group">
			<title>Sheet.208</title>
			<g id="shape209-202" v:mID="209" v:groupContext="shape" transform="translate(7.2,2.84217E-14)">
				<title>Sheet.209</title>
				<rect x="0" y="164.75" width="21.6" height="7.2" class="st1"/>
			</g>
			<g id="shape210-204" v:mID="210" v:groupContext="shape" transform="translate(1.59872E-14,-3.6)">
				<title>Sheet.210</title>
				<path d="M0 171.95 L7.2 171.95" class="st2"/>
			</g>
			<g id="shape211-207" v:mID="211" v:groupContext="shape" transform="translate(28.8,-3.6)">
				<title>Sheet.211</title>
				<path d="M0 171.95 L7.2 171.95" class="st2"/>
			</g>
		</g>
		<g id="shape212-210" v:mID="212" v:groupContext="shape" transform="translate(176.775,-116.375)">
			<title>Sheet.212</title>
			<desc>VR3</desc>
			<v:textBlock v:margins="rect(4,4,4,4)" v:tabSpace="42.5197"/>
			<v:textRect cx="14.4" cy="161.95" width="28.81" height="20"/>
			<rect x="0" y="151.95" width="28.8" height="20" class="st5"/>
			<text x="5.71" y="165.55" class="st6" v:langID="2057"><v:paragraph v:horizAlign="1"/><v:tabList/>VR<tspan class="st7">3</tspan></text>		</g>
		<g id="shape213-214" v:mID="213" v:groupContext="shape" transform="translate(83.175,-93.975)">
			<title>Sheet.213</title>
			<path d="M64.8 171.95 L64.8 114.35 L0 114.35" class="st2"/>
		</g>
		<g id="shape214-217" v:mID="214" v:groupContext="shape" transform="translate(377.525,63.575) rotate(90)">
			<title>Sheet.214</title>
			<path d="M0 171.95 L108 171.95" class="st2"/>
		</g>
		<g id="shape215-220" v:mID="215" v:groupContext="shape" transform="translate(147.975,-144.375)">
			<title>Sheet.215</title>
			<path d="M57.6 171.95 L57.6 164.75 L0 164.75" class="st2"/>
		</g>
		<g id="group216-223" transform="translate(391.925,34.775) rotate(90)" v:mID="216" v:groupContext="group">
			<title>Sheet.216</title>
			<g id="shape217-224" v:mID="217" v:groupContext="shape" transform="translate(0,-12.24)">
				<title>Sheet.217</title>
				<rect x="0" y="169.79" width="21.6" height="2.16003" class="st1"/>
			</g>
			<g id="shape218-226" v:mID="218" v:groupContext="shape" transform="translate(0,-7.20001)">
				<title>Sheet.218</title>
				<rect x="0" y="169.79" width="21.6" height="2.16003" class="st1"/>
			</g>
			<g id="shape219-228" v:mID="219" v:groupContext="shape" transform="translate(-161.15,157.55) rotate(-90)">
				<title>Sheet.219</title>
				<path d="M0 171.95 L7.2 171.95" class="st2"/>
			</g>
			<g id="shape220-231" v:mID="220" v:groupContext="shape" transform="translate(182.75,164.75) rotate(90)">
				<title>Sheet.220</title>
				<path d="M0 171.95 L7.2 171.95" class="st2"/>
			</g>
		</g>
		<g id="shape221-234" v:mID="221" v:groupContext="shape" transform="translate(228.615,-106.375)">
			<title>Sheet.221</title>
			<desc>C2</desc>
			<v:textBlock v:margins="rect(4,4,4,4)" v:tabSpace="42.5197"/>
			<v:textRect cx="14.4" cy="161.95" width="28.81" height="20"/>
			<rect x="0" y="151.95" width="28.8" height="20" class="st5"/>
			<text x="9.17" y="165.55" class="st6" v:langID="2057"><v:paragraph v:horizAlign="1"/><v:tabList/>C<tspan class="st7">2</tspan></text>		</g>
		<g id="shape222-238" v:mID="222" v:groupContext="shape" transform="translate(219.975,217.525) rotate(180)">
			<title>Sheet.222</title>
			<path d="M0 171.95 L5.08 171.95" class="st3"/>
		</g>
		<g id="shape223-243" v:mID="223" v:groupContext="shape" transform="translate(198.375,-75.975)">
			<title>Sheet.223</title>
			<path d="M0 171.95 L3.48 171.95" class="st2"/>
		</g>
		<g id="shape224-246" v:mID="224" v:groupContext="shape" transform="translate(191.175,-25.575)">
			<title>Sheet.224</title>
			<path d="M0 171.95 L10.8 171.95" class="st2"/>
		</g>
		<g id="shape225-249" v:mID="225" v:groupContext="shape" transform="translate(209.175,-25.575)">
			<title>Sheet.225</title>
			<path d="M0 171.95 L46.8 171.95 L46.8 45.95" class="st2"/>
		</g>
		<g id="shape226-252" v:mID="226" v:groupContext="shape" transform="translate(209.175,-75.975)">
			<title>Sheet.226</title>
			<path d="M0 171.95 L46.8 171.95" class="st2"/>
		</g>
		<g id="shape229-255" v:mID="229" v:groupContext="shape" transform="translate(241.575,-126.375) rotate(9.0341E-05)">
			<title>Sheet.229</title>
			<path d="M0 171.95 L14.4 171.95" class="st2"/>
		</g>
		<g id="shape230-258" v:mID="230" v:groupContext="shape" transform="translate(205.575,-151.575)">
			<title>Sheet.230</title>
			<path d="M0 171.95 L7.2 171.95" class="st2"/>
		</g>
		<g id="shape231-261" v:mID="231" v:groupContext="shape" transform="translate(248.775,-93.975)">
			<title>Sheet.231</title>
			<path d="M36 171.95 L36 114.35 L0 114.35" class="st2"/>
		</g>
		<g id="shape232-264" v:mID="232" v:groupContext="shape" transform="translate(191.175,-0.375)">
			<title>Sheet.232</title>
			<path d="M0 171.95 L93.6 171.95 L93.6 114.35" class="st2"/>
		</g>
		<g id="shape233-267" v:mID="233" v:groupContext="shape" transform="translate(108.375,-25.575)">
			<title>Sheet.233</title>
			<desc>L1</desc>
			<v:textBlock v:margins="rect(4,4,4,4)" v:tabSpace="42.5197"/>
			<v:textRect cx="14.4" cy="161.95" width="28.81" height="20"/>
			<rect x="0" y="151.95" width="28.8" height="20" class="st5"/>
			<text x="9.85" y="165.55" class="st6" v:langID="2057"><v:paragraph v:horizAlign="1"/><v:tabList/>L<tspan class="st7">1</tspan></text>		</g>
		<g id="shape234-271" v:mID="234" v:groupContext="shape" transform="translate(165.975,-75.975)">
			<title>Sheet.234</title>
			<desc>L2</desc>
			<v:textBlock v:margins="rect(4,4,4,4)" v:tabSpace="42.5197"/>
			<v:textRect cx="14.4" cy="161.95" width="28.81" height="20"/>
			<rect x="0" y="151.95" width="28.8" height="20" class="st5"/>
			<text x="9.85" y="165.55" class="st6" v:langID="2057"><v:paragraph v:horizAlign="1"/><v:tabList/>L<tspan class="st7">2</tspan></text>		</g>
	</g>
</svg>
