<?xml version="1.0" encoding="UTF-8" standalone="no"?>
<!DOCTYPE svg PUBLIC "-//W3C//DTD SVG 1.1//EN" "http://www.w3.org/Graphics/SVG/1.1/DTD/svg11.dtd">
<!-- Generated by Microsoft Visio, SVG Export bigmuff.svg Page-1 -->
<svg xmlns="http://www.w3.org/2000/svg" xmlns:xlink="http://www.w3.org/1999/xlink" xmlns:ev="http://www.w3.org/2001/xml-events"
		xmlns:v="http://schemas.microsoft.com/visio/2003/SVGExtensions/" width="3.61042in" height="2.38819in"
		viewBox="0 0 259.95 171.95" xml:space="preserve" color-interpolation-filters="sRGB" class="st10">
	<v:documentProperties v:langID="2057" v:metric="true" v:viewMarkup="false"/>

	<style type="text/css">
	<![CDATA[
		.st1 {fill:#ffffff;stroke:#000000;stroke-linecap:round;stroke-linejoin:round;stroke-width:0.75}
		.st2 {stroke:#000000;stroke-linecap:round;stroke-linejoin:round;stroke-width:0.75}
		.st3 {marker-start:url(#mrkr5-73);stroke:#000000;stroke-linecap:round;stroke-linejoin:round;stroke-width:0.75}
		.st4 {fill:#000000;fill-opacity:1;stroke:#000000;stroke-opacity:1;stroke-width:0.22935779816514}
		.st5 {marker-end:url(#mrkr5-82);stroke:#000000;stroke-linecap:round;stroke-linejoin:round;stroke-width:0.75}
		.st6 {fill:none;stroke:none;stroke-linecap:round;stroke-linejoin:round;stroke-width:0.75}
		.st7 {fill:#000000;font-family:Calibri;font-size:1.00001em}
		.st8 {font-size:0.666659em}
		.st9 {fill:#000000;font-family:Calibri;font-size:0.666664em}
		.st10 {fill:none;fill-rule:evenodd;font-size:12px;overflow:visible;stroke-linecap:square;stroke-miterlimit:3}
	]]>
	</style>

	<defs id="Markers">
		<g id="lend5">
			<path d="M 2 1 L 0 0 L 1.98117 -0.993387 C 1.67173 -0.364515 1.67301 0.372641 1.98465 1.00043 " style="stroke:none"/>
		</g>
		<marker id="mrkr5-73" class="st4" v:arrowType="5" v:arrowSize="2" v:setback="7.15" refX="7.15" orient="auto"
				markerUnits="strokeWidth" overflow="visible">
			<use xlink:href="#lend5" transform="scale(4.36) "/>
		</marker>
		<marker id="mrkr5-82" class="st4" v:arrowType="5" v:arrowSize="2" v:setback="7.63" refX="-7.63" orient="auto"
				markerUnits="strokeWidth" overflow="visible">
			<use xlink:href="#lend5" transform="scale(-4.36,-4.36) "/>
		</marker>
	</defs>
	<g v:mID="0" v:index="1" v:groupContext="foregroundPage">
		<title>Page-1</title>
		<v:pageProperties v:drawingScale="1" v:pageScale="1" v:drawingUnits="0" v:shadowOffsetX="8.50394"
				v:shadowOffsetY="-8.50394"/>
		<g id="group18-1" transform="translate(47.175,-147.975)" v:mID="18" v:groupContext="group">
			<title>Sheet.18</title>
			<g id="shape19-2" v:mID="19" v:groupContext="shape" transform="translate(7.2,0)">
				<title>Sheet.19</title>
				<rect x="0" y="164.75" width="21.6" height="7.2" class="st1"/>
			</g>
			<g id="shape20-4" v:mID="20" v:groupContext="shape" transform="translate(1.59872E-14,-3.6)">
				<title>Sheet.20</title>
				<path d="M0 171.95 L7.2 171.95" class="st2"/>
			</g>
			<g id="shape21-7" v:mID="21" v:groupContext="shape" transform="translate(28.8,-3.6)">
				<title>Sheet.21</title>
				<path d="M0 171.95 L7.2 171.95" class="st2"/>
			</g>
		</g>
		<g id="shape25-10" v:mID="25" v:groupContext="shape" transform="translate(39.975,-93.975)">
			<title>Sheet.25</title>
			<path d="M0 171.95 L0 114.35 L7.2 114.35" class="st2"/>
		</g>
		<g id="shape26-13" v:mID="26" v:groupContext="shape" transform="translate(39.975,-0.375008)">
			<title>Sheet.26</title>
			<path d="M0 114.35 L0 171.95 L194.4 171.95" class="st2"/>
		</g>
		<g id="group27-16" transform="translate(-27.575,63.575) rotate(-90)" v:mID="27" v:groupContext="group">
			<title>Sheet.27</title>
			<g id="shape28-17" v:mID="28" v:groupContext="shape" transform="translate(7.2,0)">
				<title>Sheet.28</title>
				<rect x="0" y="164.75" width="21.6" height="7.2" class="st1"/>
			</g>
			<g id="shape29-19" v:mID="29" v:groupContext="shape" transform="translate(1.59872E-14,-3.6)">
				<title>Sheet.29</title>
				<path d="M0 171.95 L7.2 171.95" class="st2"/>
			</g>
			<g id="shape30-22" v:mID="30" v:groupContext="shape" transform="translate(28.8,-3.6)">
				<title>Sheet.30</title>
				<path d="M0 171.95 L7.2 171.95" class="st2"/>
			</g>
		</g>
		<g id="group43-25" transform="translate(276.725,59.975) rotate(90)" v:mID="43" v:groupContext="group">
			<title>Sheet.43</title>
			<g id="shape44-26" v:mID="44" v:groupContext="shape" transform="translate(0,-12.24)">
				<title>Sheet.44</title>
				<rect x="0" y="169.79" width="21.6" height="2.16003" class="st1"/>
			</g>
			<g id="shape45-28" v:mID="45" v:groupContext="shape" transform="translate(0,-7.20001)">
				<title>Sheet.45</title>
				<rect x="0" y="169.79" width="21.6" height="2.16003" class="st1"/>
			</g>
			<g id="shape46-30" v:mID="46" v:groupContext="shape" transform="translate(-161.15,157.55) rotate(-90)">
				<title>Sheet.46</title>
				<path d="M0 171.95 L7.2 171.95" class="st2"/>
			</g>
			<g id="shape47-33" v:mID="47" v:groupContext="shape" transform="translate(182.75,164.75) rotate(90)">
				<title>Sheet.47</title>
				<path d="M0 171.95 L7.2 171.95" class="st2"/>
			</g>
		</g>
		<g id="group53-36" transform="translate(129.975,-14.775)" v:mID="53" v:groupContext="group">
			<title>Sheet.53</title>
			<g id="shape54-37" v:mID="54" v:groupContext="shape" transform="translate(0,-12.24)">
				<title>Sheet.54</title>
				<rect x="0" y="169.79" width="21.6" height="2.16003" class="st1"/>
			</g>
			<g id="shape55-39" v:mID="55" v:groupContext="shape" transform="translate(0,-7.20001)">
				<title>Sheet.55</title>
				<rect x="0" y="169.79" width="21.6" height="2.16003" class="st1"/>
			</g>
			<g id="shape56-41" v:mID="56" v:groupContext="shape" transform="translate(-161.15,157.55) rotate(-90)">
				<title>Sheet.56</title>
				<path d="M0 171.95 L7.2 171.95" class="st2"/>
			</g>
			<g id="shape57-44" v:mID="57" v:groupContext="shape" transform="translate(182.75,164.75) rotate(90)">
				<title>Sheet.57</title>
				<path d="M0 171.95 L7.2 171.95" class="st2"/>
			</g>
		</g>
		<g id="shape60-47" v:mID="60" v:groupContext="shape" transform="translate(83.175,-50.775)">
			<title>Sheet.60</title>
			<path d="M0 71.15 L7.2 71.15 L7.2 171.95" class="st2"/>
		</g>
		<g id="shape62-50" v:mID="62" v:groupContext="shape" transform="translate(140.775,-93.975)">
			<title>Sheet.62</title>
			<path d="M0 171.95 L0 164.75 L0 157.55" class="st2"/>
		</g>
		<g id="shape67-53" v:mID="67" v:groupContext="shape" transform="translate(-31.175,135.575) rotate(-90)">
			<title>Sheet.67</title>
			<path d="M0 171.95 L21.6 171.95" class="st2"/>
		</g>
		<g id="group71-56" transform="translate(66.025,139.175) rotate(-90)" v:mID="71" v:groupContext="group">
			<title>Sheet.71</title>
			<g id="shape72-57" v:mID="72" v:groupContext="shape" transform="translate(7.2,0)">
				<title>Sheet.72</title>
				<rect x="0" y="164.75" width="21.6" height="7.2" class="st1"/>
			</g>
			<g id="shape73-59" v:mID="73" v:groupContext="shape" transform="translate(1.59872E-14,-3.6)">
				<title>Sheet.73</title>
				<path d="M0 171.95 L7.2 171.95" class="st2"/>
			</g>
			<g id="shape74-62" v:mID="74" v:groupContext="shape" transform="translate(28.8,-3.6)">
				<title>Sheet.74</title>
				<path d="M0 171.95 L7.2 171.95" class="st2"/>
			</g>
		</g>
		<g id="shape77-65" v:mID="77" v:groupContext="shape" transform="translate(406.325,139.175) rotate(90)">
			<title>Sheet.77</title>
			<path d="M0 171.95 L32.4 171.95" class="st2"/>
		</g>
		<g id="shape78-68" v:mID="78" v:groupContext="shape" transform="translate(144.375,-75.975)">
			<title>Sheet.78</title>
			<path d="M5.36 171.95 L5.72 171.95 L32.4 171.95" class="st3"/>
		</g>
		<g id="group80-74" transform="translate(0.375,-57.975)" v:mID="80" v:groupContext="group">
			<title>Sheet.80</title>
			<g id="shape81-75" v:mID="81" v:groupContext="shape" transform="translate(30.6,-9)">
				<title>Sheet.81</title>
				<ellipse cx="9" cy="162.95" rx="9" ry="9" class="st1"/>
			</g>
			<g id="shape82-77" v:mID="82" v:groupContext="shape" transform="translate(-132.35,159.35) rotate(-90)">
				<title>Sheet.82</title>
				<path d="M0 171.95 L5.08 171.95" class="st5"/>
			</g>
			<g id="shape83-83" v:mID="83" v:groupContext="shape" transform="translate(-132.35,144.952) rotate(-90)">
				<title>Sheet.83</title>
				<path d="M0 171.95 L9 171.95" class="st2"/>
			</g>
			<g id="shape84-86" v:mID="84" v:groupContext="shape" transform="translate(-132.35,171.95) rotate(-90)">
				<title>Sheet.84</title>
				<path d="M0 171.95 L9 171.95" class="st2"/>
			</g>
			<g id="shape85-89" v:mID="85" v:groupContext="shape" transform="translate(7.99361E-15,-9)">
				<title>Sheet.85</title>
				<desc>VIN</desc>
				<v:textBlock v:margins="rect(4,4,4,4)" v:tabSpace="42.5197"/>
				<v:textRect cx="14.4" cy="161.95" width="28.81" height="20"/>
				<rect x="0" y="151.95" width="28.8" height="20" class="st6"/>
				<text x="7.41" y="165.55" class="st7" v:langID="2057"><v:paragraph v:horizAlign="1"/><v:tabList/>V<tspan
							class="st8">IN</tspan></text>			</g>
		</g>
		<g id="shape93-93" v:mID="93" v:groupContext="shape" transform="translate(312.725,157.175) rotate(90)">
			<title>Sheet.93</title>
			<path d="M0 171.95 L14.4 171.95" class="st2"/>
		</g>
		<g id="shape106-96" v:mID="106" v:groupContext="shape" transform="translate(50.775,-151.575)">
			<title>Sheet.106</title>
			<desc>RS</desc>
			<v:textBlock v:margins="rect(4,4,4,4)" v:tabSpace="42.5197"/>
			<v:textRect cx="14.4" cy="161.95" width="28.81" height="20"/>
			<rect x="0" y="151.95" width="28.8" height="20" class="st6"/>
			<text x="9.3" y="165.55" class="st7" v:langID="2057"><v:paragraph v:horizAlign="1"/><v:tabList/>R<tspan class="st8">S</tspan></text>		</g>
		<g id="shape107-100" v:mID="107" v:groupContext="shape" transform="translate(230.775,-40.775)">
			<title>Sheet.107</title>
			<desc>RL</desc>
			<v:textBlock v:margins="rect(4,4,4,4)" v:tabSpace="42.5197"/>
			<v:textRect cx="14.4" cy="161.95" width="28.81" height="20"/>
			<rect x="0" y="151.95" width="28.8" height="20" class="st6"/>
			<text x="9.46" y="165.55" class="st7" v:langID="2057"><v:paragraph v:horizAlign="1"/><v:tabList/>R<tspan class="st8">L</tspan></text>		</g>
		<g id="shape112-104" v:mID="112" v:groupContext="shape" transform="translate(111.975,-65.975)">
			<title>Sheet.112</title>
			<desc>VR1</desc>
			<v:textBlock v:margins="rect(4,4,4,4)" v:tabSpace="42.5197"/>
			<v:textRect cx="14.4" cy="161.95" width="28.81" height="20"/>
			<rect x="0" y="151.95" width="28.8" height="20" class="st6"/>
			<text x="5.71" y="165.55" class="st7" v:langID="2057"><v:paragraph v:horizAlign="1"/><v:tabList/>VR<tspan class="st8">1</tspan></text>		</g>
		<g id="shape113-108" v:mID="113" v:groupContext="shape" transform="translate(101.175,-51.575)">
			<title>Sheet.113</title>
			<desc>R1</desc>
			<v:textBlock v:margins="rect(4,4,4,4)" v:tabSpace="42.5197"/>
			<v:textRect cx="14.4" cy="161.95" width="28.81" height="20"/>
			<rect x="0" y="151.95" width="28.8" height="20" class="st6"/>
			<text x="9.11" y="165.55" class="st7" v:langID="2057"><v:paragraph v:horizAlign="1"/><v:tabList/>R<tspan class="st8">1</tspan></text>		</g>
		<g id="shape114-112" v:mID="114" v:groupContext="shape" transform="translate(88.4803,-101.175)">
			<title>Sheet.114</title>
			<desc>C1</desc>
			<v:textBlock v:margins="rect(4,4,4,4)" v:tabSpace="42.5197"/>
			<v:textRect cx="14.4" cy="161.95" width="28.81" height="20"/>
			<rect x="0" y="151.95" width="28.8" height="20" class="st6"/>
			<text x="9.17" y="165.55" class="st7" v:langID="2057"><v:paragraph v:horizAlign="1"/><v:tabList/>C<tspan class="st8">1</tspan></text>		</g>
		<g id="shape119-116" v:mID="119" v:groupContext="shape" transform="translate(140.775,-74.535)">
			<title>Sheet.119</title>
			<desc>cw</desc>
			<v:textBlock v:margins="rect(4,4,4,4)" v:tabSpace="42.5197"/>
			<v:textRect cx="10.8" cy="161.95" width="21.61" height="20"/>
			<rect x="0" y="151.95" width="21.6" height="20" class="st6"/>
			<text x="6.25" y="164.35" class="st9" v:langID="2057"><v:paragraph v:horizAlign="1"/><v:tabList/>cw</text>		</g>
		<g id="shape120-119" v:mID="120" v:groupContext="shape" transform="translate(115.575,-25.575)">
			<title>Sheet.120</title>
			<desc>C2</desc>
			<v:textBlock v:margins="rect(4,4,4,4)" v:tabSpace="42.5197"/>
			<v:textRect cx="14.4" cy="161.95" width="28.81" height="20"/>
			<rect x="0" y="151.95" width="28.8" height="20" class="st6"/>
			<text x="9.17" y="165.55" class="st7" v:langID="2057"><v:paragraph v:horizAlign="1"/><v:tabList/>C<tspan class="st8">2</tspan></text>		</g>
		<g id="shape121-123" v:mID="121" v:groupContext="shape" transform="translate(115.575,-116.375)">
			<title>Sheet.121</title>
			<desc>R2</desc>
			<v:textBlock v:margins="rect(4,4,4,4)" v:tabSpace="42.5197"/>
			<v:textRect cx="14.4" cy="161.95" width="28.81" height="20"/>
			<rect x="0" y="151.95" width="28.8" height="20" class="st6"/>
			<text x="9.11" y="165.55" class="st7" v:langID="2057"><v:paragraph v:horizAlign="1"/><v:tabList/>R<tspan class="st8">2</tspan></text>		</g>
		<g id="group122-127" transform="translate(-27.575,113.975) rotate(-90)" v:mID="122" v:groupContext="group">
			<title>Sheet.122</title>
			<g id="shape123-128" v:mID="123" v:groupContext="shape" transform="translate(7.2,0)">
				<title>Sheet.123</title>
				<rect x="0" y="164.75" width="21.6" height="7.2" class="st1"/>
			</g>
			<g id="shape124-130" v:mID="124" v:groupContext="shape" transform="translate(1.59872E-14,-3.6)">
				<title>Sheet.124</title>
				<path d="M0 171.95 L7.2 171.95" class="st2"/>
			</g>
			<g id="shape125-133" v:mID="125" v:groupContext="shape" transform="translate(28.8,-3.6)">
				<title>Sheet.125</title>
				<path d="M0 171.95 L7.2 171.95" class="st2"/>
			</g>
		</g>
		<g id="shape126-136" v:mID="126" v:groupContext="shape" transform="translate(126.375,-101.175) rotate(3.23535E-07)">
			<title>Sheet.126</title>
			<path d="M0 171.95 L14.4 171.95" class="st2"/>
		</g>
		<g id="group127-139" transform="translate(97.575,-47.175)" v:mID="127" v:groupContext="group">
			<title>Sheet.127</title>
			<g id="shape128-140" v:mID="128" v:groupContext="shape" transform="translate(7.2,0)">
				<title>Sheet.128</title>
				<rect x="0" y="164.75" width="21.6" height="7.2" class="st1"/>
			</g>
			<g id="shape129-142" v:mID="129" v:groupContext="shape" transform="translate(1.59872E-14,-3.6)">
				<title>Sheet.129</title>
				<path d="M0 171.95 L7.2 171.95" class="st2"/>
			</g>
			<g id="shape130-145" v:mID="130" v:groupContext="shape" transform="translate(28.8,-3.6)">
				<title>Sheet.130</title>
				<path d="M0 171.95 L7.2 171.95" class="st2"/>
			</g>
		</g>
		<g id="shape131-148" v:mID="131" v:groupContext="shape" transform="translate(133.575,-50.775)">
			<title>Sheet.131</title>
			<path d="M0 171.95 L7.2 171.95" class="st2"/>
		</g>
		<g id="shape132-151" v:mID="132" v:groupContext="shape" transform="translate(90.375,-50.775)">
			<title>Sheet.132</title>
			<path d="M0 171.95 L7.2 171.95" class="st2"/>
		</g>
		<g id="shape133-154" v:mID="133" v:groupContext="shape" transform="translate(90.375,-101.175) rotate(3.23535E-07)">
			<title>Sheet.133</title>
			<path d="M0 171.95 L14.4 171.95" class="st2"/>
		</g>
		<g id="group134-157" transform="translate(348.725,85.175) rotate(90)" v:mID="134" v:groupContext="group">
			<title>Sheet.134</title>
			<g id="shape135-158" v:mID="135" v:groupContext="shape" transform="translate(0,-12.24)">
				<title>Sheet.135</title>
				<rect x="0" y="169.79" width="21.6" height="2.16003" class="st1"/>
			</g>
			<g id="shape136-160" v:mID="136" v:groupContext="shape" transform="translate(0,-7.20001)">
				<title>Sheet.136</title>
				<rect x="0" y="169.79" width="21.6" height="2.16003" class="st1"/>
			</g>
			<g id="shape137-162" v:mID="137" v:groupContext="shape" transform="translate(-161.15,157.55) rotate(-90)">
				<title>Sheet.137</title>
				<path d="M0 171.95 L7.2 171.95" class="st2"/>
			</g>
			<g id="shape138-165" v:mID="138" v:groupContext="shape" transform="translate(182.75,164.75) rotate(90)">
				<title>Sheet.138</title>
				<path d="M0 171.95 L7.2 171.95" class="st2"/>
			</g>
		</g>
		<g id="shape139-168" v:mID="139" v:groupContext="shape" transform="translate(160.48,-75.975)">
			<title>Sheet.139</title>
			<desc>C3</desc>
			<v:textBlock v:margins="rect(4,4,4,4)" v:tabSpace="42.5197"/>
			<v:textRect cx="14.4" cy="161.95" width="28.81" height="20"/>
			<rect x="0" y="151.95" width="28.8" height="20" class="st6"/>
			<text x="9.17" y="165.55" class="st7" v:langID="2057"><v:paragraph v:horizAlign="1"/><v:tabList/>C<tspan class="st8">3</tspan></text>		</g>
		<g id="shape140-172" v:mID="140" v:groupContext="shape" transform="translate(140.775,-144.375)">
			<title>Sheet.140</title>
			<path d="M0 171.95 L0 164.75 L21.6 164.75" class="st2"/>
		</g>
		<g id="shape141-175" v:mID="141" v:groupContext="shape" transform="translate(-9.57501,171.575) rotate(-90)">
			<title>Sheet.141</title>
			<path d="M0 171.95 L73.44 171.95" class="st2"/>
		</g>
		<g id="shape142-178" v:mID="142" v:groupContext="shape" transform="translate(-9.57501,93.815) rotate(-90)">
			<title>Sheet.142</title>
			<path d="M0 171.95 L73.44 171.95" class="st2"/>
		</g>
		<g id="shape143-181" v:mID="143" v:groupContext="shape" transform="translate(198.375,-68.775)">
			<title>Sheet.143</title>
			<path d="M0 164.75 L36 164.75 L36 171.95" class="st2"/>
		</g>
	</g>
</svg>
