<?xml version="1.0" encoding="UTF-8" standalone="no"?>
<!DOCTYPE svg PUBLIC "-//W3C//DTD SVG 1.1//EN" "http://www.w3.org/Graphics/SVG/1.1/DTD/svg11.dtd">
<!-- Generated by Microsoft Visio, SVG Export boneray.svg Page-1 -->
<svg xmlns="http://www.w3.org/2000/svg" xmlns:xlink="http://www.w3.org/1999/xlink" xmlns:ev="http://www.w3.org/2001/xml-events"
		xmlns:v="http://schemas.microsoft.com/visio/2003/SVGExtensions/" width="3.66042in" height="2.46042in"
		viewBox="0 0 263.55 177.15" xml:space="preserve" color-interpolation-filters="sRGB" class="st10">
	<v:documentProperties v:langID="2057" v:metric="true" v:viewMarkup="false"/>

	<style type="text/css">
	<![CDATA[
		.st1 {fill:#ffffff;stroke:#000000;stroke-linecap:round;stroke-linejoin:round;stroke-width:0.75}
		.st2 {stroke:#000000;stroke-linecap:round;stroke-linejoin:round;stroke-width:0.75}
		.st3 {marker-end:url(#mrkr5-48);stroke:#000000;stroke-linecap:round;stroke-linejoin:round;stroke-width:0.75}
		.st4 {fill:#000000;fill-opacity:1;stroke:#000000;stroke-opacity:1;stroke-width:0.22935779816514}
		.st5 {marker-start:url(#mrkr5-78);stroke:#000000;stroke-linecap:round;stroke-linejoin:round;stroke-width:0.75}
		.st6 {fill:none;stroke:none;stroke-linecap:round;stroke-linejoin:round;stroke-width:0.75}
		.st7 {fill:#000000;font-family:Calibri;font-size:1.00001em}
		.st8 {font-size:0.666659em}
		.st9 {fill:#000000;font-family:Calibri;font-size:0.666664em}
		.st10 {fill:none;fill-rule:evenodd;font-size:12px;overflow:visible;stroke-linecap:square;stroke-miterlimit:3}
	]]>
	</style>

	<defs id="Markers">
		<g id="lend5">
			<path d="M 2 1 L 0 0 L 1.98117 -0.993387 C 1.67173 -0.364515 1.67301 0.372641 1.98465 1.00043 " style="stroke:none"/>
		</g>
		<marker id="mrkr5-48" class="st4" v:arrowType="5" v:arrowSize="2" v:setback="7.63" refX="-7.63" orient="auto"
				markerUnits="strokeWidth" overflow="visible">
			<use xlink:href="#lend5" transform="scale(-4.36,-4.36) "/>
		</marker>
		<marker id="mrkr5-78" class="st4" v:arrowType="5" v:arrowSize="2" v:setback="7.15" refX="7.15" orient="auto"
				markerUnits="strokeWidth" overflow="visible">
			<use xlink:href="#lend5" transform="scale(4.36) "/>
		</marker>
	</defs>
	<g v:mID="0" v:index="1" v:groupContext="foregroundPage">
		<title>Page-1</title>
		<v:pageProperties v:drawingScale="1" v:pageScale="1" v:drawingUnits="0" v:shadowOffsetX="8.50394"
				v:shadowOffsetY="-8.50394"/>
		<g id="group18-1" transform="translate(47.175,-147.975)" v:mID="18" v:groupContext="group">
			<title>Sheet.18</title>
			<g id="shape19-2" v:mID="19" v:groupContext="shape" transform="translate(7.2,0)">
				<title>Sheet.19</title>
				<rect x="0" y="169.95" width="21.6" height="7.2" class="st1"/>
			</g>
			<g id="shape20-4" v:mID="20" v:groupContext="shape" transform="translate(1.59872E-14,-3.6)">
				<title>Sheet.20</title>
				<path d="M0 177.15 L7.2 177.15" class="st2"/>
			</g>
			<g id="shape21-7" v:mID="21" v:groupContext="shape" transform="translate(28.8,-3.6)">
				<title>Sheet.21</title>
				<path d="M0 177.15 L7.2 177.15" class="st2"/>
			</g>
		</g>
		<g id="shape25-10" v:mID="25" v:groupContext="shape" transform="translate(39.975,-93.975)">
			<title>Sheet.25</title>
			<path d="M0 177.15 L0 119.55 L7.2 119.55" class="st2"/>
		</g>
		<g id="shape26-13" v:mID="26" v:groupContext="shape" transform="translate(39.975,-0.375001)">
			<title>Sheet.26</title>
			<path d="M0 119.55 L0 177.15 L198 177.15" class="st2"/>
		</g>
		<g id="group31-16" transform="translate(17.625,93.975) rotate(-90)" v:mID="31" v:groupContext="group">
			<title>Sheet.31</title>
			<g id="shape32-17" v:mID="32" v:groupContext="shape" transform="translate(7.2,0)">
				<title>Sheet.32</title>
				<rect x="0" y="169.95" width="21.6" height="7.2" class="st1"/>
			</g>
			<g id="shape33-19" v:mID="33" v:groupContext="shape" transform="translate(1.59872E-14,-3.6)">
				<title>Sheet.33</title>
				<path d="M0 177.15 L7.2 177.15" class="st2"/>
			</g>
			<g id="shape34-22" v:mID="34" v:groupContext="shape" transform="translate(28.8,-3.6)">
				<title>Sheet.34</title>
				<path d="M0 177.15 L7.2 177.15" class="st2"/>
			</g>
		</g>
		<g id="group39-25" transform="translate(-32.775,68.775) rotate(-90)" v:mID="39" v:groupContext="group">
			<title>Sheet.39</title>
			<g id="shape40-26" v:mID="40" v:groupContext="shape" transform="translate(7.2,0)">
				<title>Sheet.40</title>
				<rect x="0" y="169.95" width="21.6" height="7.2" class="st1"/>
			</g>
			<g id="shape41-28" v:mID="41" v:groupContext="shape" transform="translate(1.59872E-14,-3.6)">
				<title>Sheet.41</title>
				<path d="M0 177.15 L7.2 177.15" class="st2"/>
			</g>
			<g id="shape42-31" v:mID="42" v:groupContext="shape" transform="translate(28.8,-3.6)">
				<title>Sheet.42</title>
				<path d="M0 177.15 L7.2 177.15" class="st2"/>
			</g>
		</g>
		<g id="shape58-34" v:mID="58" v:groupContext="shape" transform="translate(83.175,-151.575)">
			<title>Sheet.58</title>
			<path d="M0 177.15 L21.6 177.15" class="st2"/>
		</g>
		<g id="shape59-37" v:mID="59" v:groupContext="shape" transform="translate(-86.775,39.975) rotate(-90)">
			<title>Sheet.59</title>
			<path d="M0 177.15 L14.4 177.15" class="st2"/>
		</g>
		<g id="shape60-40" v:mID="60" v:groupContext="shape" transform="translate(104.775,-144.375)">
			<title>Sheet.60</title>
			<path d="M0 169.95 L36 169.95 L36 177.15" class="st2"/>
		</g>
		<g id="shape66-43" v:mID="66" v:groupContext="shape" transform="translate(140.775,-101.175) rotate(3.07852E-06)">
			<title>Sheet.66</title>
			<path d="M0 177.15 L41.04 177.15" class="st3"/>
		</g>
		<g id="group71-49" transform="translate(97.575,-97.575)" v:mID="71" v:groupContext="group">
			<title>Sheet.71</title>
			<g id="shape72-50" v:mID="72" v:groupContext="shape" transform="translate(7.2,0)">
				<title>Sheet.72</title>
				<rect x="0" y="169.95" width="21.6" height="7.2" class="st1"/>
			</g>
			<g id="shape73-52" v:mID="73" v:groupContext="shape" transform="translate(1.59872E-14,-3.6)">
				<title>Sheet.73</title>
				<path d="M0 177.15 L7.2 177.15" class="st2"/>
			</g>
			<g id="shape74-55" v:mID="74" v:groupContext="shape" transform="translate(28.8,-3.6)">
				<title>Sheet.74</title>
				<path d="M0 177.15 L7.2 177.15" class="st2"/>
			</g>
		</g>
		<g id="group78-58" transform="translate(-83.175,119.175) rotate(-90)" v:mID="78" v:groupContext="group">
			<title>Sheet.78</title>
			<g id="shape79-59" v:mID="79" v:groupContext="shape" transform="translate(7.2,0)">
				<title>Sheet.79</title>
				<rect x="0" y="169.95" width="21.6" height="7.2" class="st1"/>
			</g>
			<g id="shape80-61" v:mID="80" v:groupContext="shape" transform="translate(1.59872E-14,-3.6)">
				<title>Sheet.80</title>
				<path d="M0 177.15 L7.2 177.15" class="st2"/>
			</g>
			<g id="shape81-64" v:mID="81" v:groupContext="shape" transform="translate(28.8,-3.6)">
				<title>Sheet.81</title>
				<path d="M0 177.15 L7.2 177.15" class="st2"/>
			</g>
		</g>
		<g id="shape86-67" v:mID="86" v:groupContext="shape" transform="translate(267.525,61.575) rotate(90)">
			<title>Sheet.86</title>
			<path d="M0 177.15 L21.6 177.15" class="st2"/>
		</g>
		<g id="shape87-70" v:mID="87" v:groupContext="shape" transform="translate(267.525,119.175) rotate(90)">
			<title>Sheet.87</title>
			<path d="M0 177.15 L57.6 177.15" class="st2"/>
		</g>
		<g id="shape89-73" v:mID="89" v:groupContext="shape" transform="translate(-61.575,72.375) rotate(-90)">
			<title>Sheet.89</title>
			<path d="M5.36 177.15 L5.72 177.15 L43.2 177.15" class="st5"/>
		</g>
		<g id="shape95-79" v:mID="95" v:groupContext="shape" transform="translate(90.375,-101.175)">
			<title>Sheet.95</title>
			<path d="M0 177.15 L7.2 177.15" class="st2"/>
		</g>
		<g id="group100-82" transform="translate(79.575,-115.575)" v:mID="100" v:groupContext="group">
			<title>Sheet.100</title>
			<g id="shape101-83" v:mID="101" v:groupContext="shape" transform="translate(0,-12.24)">
				<title>Sheet.101</title>
				<rect x="0" y="174.99" width="21.6" height="2.16003" class="st1"/>
			</g>
			<g id="shape102-85" v:mID="102" v:groupContext="shape" transform="translate(0,-7.20001)">
				<title>Sheet.102</title>
				<rect x="0" y="174.99" width="21.6" height="2.16003" class="st1"/>
			</g>
			<g id="shape103-87" v:mID="103" v:groupContext="shape" transform="translate(-166.35,162.75) rotate(-90)">
				<title>Sheet.103</title>
				<path d="M0 177.15 L7.2 177.15" class="st2"/>
			</g>
			<g id="shape104-90" v:mID="104" v:groupContext="shape" transform="translate(187.95,169.95) rotate(90)">
				<title>Sheet.104</title>
				<path d="M0 177.15 L7.2 177.15" class="st2"/>
			</g>
		</g>
		<g id="group110-93" transform="translate(64.425,119.175) rotate(-90)" v:mID="110" v:groupContext="group">
			<title>Sheet.110</title>
			<g id="shape111-94" v:mID="111" v:groupContext="shape" transform="translate(7.2,0)">
				<title>Sheet.111</title>
				<rect x="0" y="169.95" width="21.6" height="7.2" class="st1"/>
			</g>
			<g id="shape112-96" v:mID="112" v:groupContext="shape" transform="translate(1.59872E-14,-3.6)">
				<title>Sheet.112</title>
				<path d="M0 177.15 L7.2 177.15" class="st2"/>
			</g>
			<g id="shape113-99" v:mID="113" v:groupContext="shape" transform="translate(28.8,-3.6)">
				<title>Sheet.113</title>
				<path d="M0 177.15 L7.2 177.15" class="st2"/>
			</g>
		</g>
		<g id="shape114-102" v:mID="114" v:groupContext="shape" transform="translate(415.125,119.175) rotate(90)">
			<title>Sheet.114</title>
			<path d="M0 177.15 L57.6 177.15" class="st2"/>
		</g>
		<g id="shape115-105" v:mID="115" v:groupContext="shape" transform="translate(191.175,-93.975)">
			<title>Sheet.115</title>
			<path d="M46.8 177.15 L46.8 94.35 L0 94.35" class="st2"/>
		</g>
		<g id="group122-108" transform="translate(0.375,-57.975)" v:mID="122" v:groupContext="group">
			<title>Sheet.122</title>
			<g id="shape123-109" v:mID="123" v:groupContext="shape" transform="translate(30.6,-9)">
				<title>Sheet.123</title>
				<ellipse cx="9" cy="168.15" rx="9" ry="9" class="st1"/>
			</g>
			<g id="shape124-111" v:mID="124" v:groupContext="shape" transform="translate(-137.55,164.55) rotate(-90)">
				<title>Sheet.124</title>
				<path d="M0 177.15 L5.08 177.15" class="st3"/>
			</g>
			<g id="shape125-116" v:mID="125" v:groupContext="shape" transform="translate(-137.55,150.152) rotate(-90)">
				<title>Sheet.125</title>
				<path d="M0 177.15 L9 177.15" class="st2"/>
			</g>
			<g id="shape126-119" v:mID="126" v:groupContext="shape" transform="translate(-137.55,177.15) rotate(-90)">
				<title>Sheet.126</title>
				<path d="M0 177.15 L9 177.15" class="st2"/>
			</g>
			<g id="shape127-122" v:mID="127" v:groupContext="shape" transform="translate(7.99361E-15,-9)">
				<title>Sheet.127</title>
				<desc>VIN</desc>
				<v:textBlock v:margins="rect(4,4,4,4)" v:tabSpace="42.5197"/>
				<v:textRect cx="14.4" cy="167.15" width="28.81" height="20"/>
				<rect x="0" y="157.15" width="28.8" height="20" class="st6"/>
				<text x="7.41" y="170.75" class="st7" v:langID="2057"><v:paragraph v:horizAlign="1"/><v:tabList/>V<tspan
							class="st8">IN</tspan></text>			</g>
		</g>
		<g id="shape128-126" v:mID="128" v:groupContext="shape" transform="translate(50.775,-151.575)">
			<title>Sheet.128</title>
			<desc>RS</desc>
			<v:textBlock v:margins="rect(4,4,4,4)" v:tabSpace="42.5197"/>
			<v:textRect cx="14.4" cy="167.15" width="28.81" height="20"/>
			<rect x="0" y="157.15" width="28.8" height="20" class="st6"/>
			<text x="9.3" y="170.75" class="st7" v:langID="2057"><v:paragraph v:horizAlign="1"/><v:tabList/>R<tspan class="st8">S</tspan></text>		</g>
		<g id="shape129-130" v:mID="129" v:groupContext="shape" transform="translate(234.375,-65.975)">
			<title>Sheet.129</title>
			<desc>RL</desc>
			<v:textBlock v:margins="rect(4,4,4,4)" v:tabSpace="42.5197"/>
			<v:textRect cx="14.4" cy="167.15" width="28.81" height="20"/>
			<rect x="0" y="157.15" width="28.8" height="20" class="st6"/>
			<text x="9.46" y="170.75" class="st7" v:langID="2057"><v:paragraph v:horizAlign="1"/><v:tabList/>R<tspan class="st8">L</tspan></text>		</g>
		<g id="shape130-134" v:mID="130" v:groupContext="shape" transform="translate(101.175,-81.175)">
			<title>Sheet.130</title>
			<desc>VR1</desc>
			<v:textBlock v:margins="rect(4,4,4,4)" v:tabSpace="42.5197"/>
			<v:textRect cx="14.4" cy="167.15" width="28.81" height="20"/>
			<rect x="0" y="157.15" width="28.8" height="20" class="st6"/>
			<text x="5.71" y="170.75" class="st7" v:langID="2057"><v:paragraph v:horizAlign="1"/><v:tabList/>VR<tspan class="st8">1</tspan></text>		</g>
		<g id="shape131-138" v:mID="131" v:groupContext="shape" transform="translate(137.175,-116.375)">
			<title>Sheet.131</title>
			<desc>R2</desc>
			<v:textBlock v:margins="rect(4,4,4,4)" v:tabSpace="42.5197"/>
			<v:textRect cx="14.4" cy="167.15" width="28.81" height="20"/>
			<rect x="0" y="157.15" width="28.8" height="20" class="st6"/>
			<text x="9.11" y="170.75" class="st7" v:langID="2057"><v:paragraph v:horizAlign="1"/><v:tabList/>R<tspan class="st8">2</tspan></text>		</g>
		<g id="shape132-142" v:mID="132" v:groupContext="shape" transform="translate(65.175,-105.655)">
			<title>Sheet.132</title>
			<desc>C1</desc>
			<v:textBlock v:margins="rect(4,4,4,4)" v:tabSpace="42.5197"/>
			<v:textRect cx="14.4" cy="167.15" width="28.81" height="20"/>
			<rect x="0" y="157.15" width="28.8" height="20" class="st6"/>
			<text x="9.17" y="170.75" class="st7" v:langID="2057"><v:paragraph v:horizAlign="1"/><v:tabList/>C<tspan class="st8">1</tspan></text>		</g>
		<g id="shape134-146" v:mID="134" v:groupContext="shape" transform="translate(191.175,-91.175)">
			<title>Sheet.134</title>
			<desc>VR2</desc>
			<v:textBlock v:margins="rect(4,4,4,4)" v:tabSpace="42.5197"/>
			<v:textRect cx="14.4" cy="167.15" width="28.81" height="20"/>
			<rect x="0" y="157.15" width="28.8" height="20" class="st6"/>
			<text x="5.71" y="170.75" class="st7" v:langID="2057"><v:paragraph v:horizAlign="1"/><v:tabList/>VR<tspan class="st8">2</tspan></text>		</g>
		<g id="shape135-150" v:mID="135" v:groupContext="shape" transform="translate(65.175,-65.975)">
			<title>Sheet.135</title>
			<desc>R1</desc>
			<v:textBlock v:margins="rect(4,4,4,4)" v:tabSpace="42.5197"/>
			<v:textRect cx="14.4" cy="167.15" width="28.81" height="20"/>
			<rect x="0" y="157.15" width="28.8" height="20" class="st6"/>
			<text x="9.11" y="170.75" class="st7" v:langID="2057"><v:paragraph v:horizAlign="1"/><v:tabList/>R<tspan class="st8">1</tspan></text>		</g>
		<g id="shape138-154" v:mID="138" v:groupContext="shape" transform="translate(137.175,-55.255)">
			<title>Sheet.138</title>
			<desc>C2</desc>
			<v:textBlock v:margins="rect(4,4,4,4)" v:tabSpace="42.5197"/>
			<v:textRect cx="14.4" cy="167.15" width="28.81" height="20"/>
			<rect x="0" y="157.15" width="28.8" height="20" class="st6"/>
			<text x="9.17" y="170.75" class="st7" v:langID="2057"><v:paragraph v:horizAlign="1"/><v:tabList/>C<tspan class="st8">2</tspan></text>		</g>
		<g id="shape139-158" v:mID="139" v:groupContext="shape" transform="translate(95.775,-101.175)">
			<title>Sheet.139</title>
			<desc>cw</desc>
			<v:textBlock v:margins="rect(4,4,4,4)" v:tabSpace="42.5197"/>
			<v:textRect cx="10.8" cy="167.15" width="21.61" height="20"/>
			<rect x="0" y="157.15" width="21.6" height="20" class="st6"/>
			<text x="6.25" y="169.55" class="st9" v:langID="2057"><v:paragraph v:horizAlign="1"/><v:tabList/>cw</text>		</g>
		<g id="shape140-161" v:mID="140" v:groupContext="shape" transform="translate(169.575,-99.175)">
			<title>Sheet.140</title>
			<desc>cw</desc>
			<v:textBlock v:margins="rect(4,4,4,4)" v:tabSpace="42.5197"/>
			<v:textRect cx="10.8" cy="167.15" width="21.61" height="20"/>
			<rect x="0" y="157.15" width="21.6" height="20" class="st6"/>
			<text x="6.25" y="169.55" class="st9" v:langID="2057"><v:paragraph v:horizAlign="1"/><v:tabList/>cw</text>		</g>
		<g id="group141-164" transform="translate(129.975,-65.175)" v:mID="141" v:groupContext="group">
			<title>Sheet.141</title>
			<g id="shape142-165" v:mID="142" v:groupContext="shape" transform="translate(0,-12.24)">
				<title>Sheet.142</title>
				<rect x="0" y="174.99" width="21.6" height="2.16003" class="st1"/>
			</g>
			<g id="shape143-167" v:mID="143" v:groupContext="shape" transform="translate(0,-7.20001)">
				<title>Sheet.143</title>
				<rect x="0" y="174.99" width="21.6" height="2.16003" class="st1"/>
			</g>
			<g id="shape144-169" v:mID="144" v:groupContext="shape" transform="translate(-166.35,162.75) rotate(-90)">
				<title>Sheet.144</title>
				<path d="M0 177.15 L7.2 177.15" class="st2"/>
			</g>
			<g id="shape145-172" v:mID="145" v:groupContext="shape" transform="translate(187.95,169.95) rotate(90)">
				<title>Sheet.145</title>
				<path d="M0 177.15 L7.2 177.15" class="st2"/>
			</g>
		</g>
		<g id="group146-175" transform="translate(129.975,-14.775)" v:mID="146" v:groupContext="group">
			<title>Sheet.146</title>
			<g id="shape147-176" v:mID="147" v:groupContext="shape" transform="translate(0,-12.24)">
				<title>Sheet.147</title>
				<rect x="0" y="174.99" width="21.6" height="2.16003" class="st1"/>
			</g>
			<g id="shape148-178" v:mID="148" v:groupContext="shape" transform="translate(0,-7.20001)">
				<title>Sheet.148</title>
				<rect x="0" y="174.99" width="21.6" height="2.16003" class="st1"/>
			</g>
			<g id="shape149-180" v:mID="149" v:groupContext="shape" transform="translate(-166.35,162.75) rotate(-90)">
				<title>Sheet.149</title>
				<path d="M0 177.15 L7.2 177.15" class="st2"/>
			</g>
			<g id="shape150-183" v:mID="150" v:groupContext="shape" transform="translate(187.95,169.95) rotate(90)">
				<title>Sheet.150</title>
				<path d="M0 177.15 L7.2 177.15" class="st2"/>
			</g>
		</g>
		<g id="shape151-186" v:mID="151" v:groupContext="shape" transform="translate(317.925,68.775) rotate(90)">
			<title>Sheet.151</title>
			<path d="M0 177.15 L21.6 177.15" class="st2"/>
		</g>
		<g id="shape153-189" v:mID="153" v:groupContext="shape" transform="translate(133.575,-101.175)">
			<title>Sheet.153</title>
			<path d="M0 177.15 L7.2 177.15" class="st2"/>
		</g>
		<g id="shape154-192" v:mID="154" v:groupContext="shape" transform="translate(317.925,111.975) rotate(90)">
			<title>Sheet.154</title>
			<path d="M0 177.15 L28.8 177.15" class="st2"/>
		</g>
		<g id="shape155-195" v:mID="155" v:groupContext="shape" transform="translate(317.925,162.375) rotate(90)">
			<title>Sheet.155</title>
			<path d="M0 177.15 L14.4 177.15" class="st2"/>
		</g>
		<g id="group160-198" transform="translate(180.375,-140.775)" v:mID="160" v:groupContext="group">
			<title>Sheet.160</title>
			<g id="shape161-199" v:mID="161" v:groupContext="shape" transform="translate(0,-12.24)">
				<title>Sheet.161</title>
				<rect x="0" y="174.99" width="21.6" height="2.16003" class="st1"/>
			</g>
			<g id="shape162-201" v:mID="162" v:groupContext="shape" transform="translate(0,-7.20001)">
				<title>Sheet.162</title>
				<rect x="0" y="174.99" width="21.6" height="2.16003" class="st1"/>
			</g>
			<g id="shape163-203" v:mID="163" v:groupContext="shape" transform="translate(-166.35,162.75) rotate(-90)">
				<title>Sheet.163</title>
				<path d="M0 177.15 L7.2 177.15" class="st2"/>
			</g>
			<g id="shape164-206" v:mID="164" v:groupContext="shape" transform="translate(187.95,169.95) rotate(90)">
				<title>Sheet.164</title>
				<path d="M0 177.15 L7.2 177.15" class="st2"/>
			</g>
		</g>
		<g id="shape169-209" v:mID="169" v:groupContext="shape" transform="translate(368.325,36.375) rotate(90)">
			<title>Sheet.169</title>
			<path d="M0 177.15 L21.6 177.15" class="st2"/>
		</g>
		<g id="shape170-212" v:mID="170" v:groupContext="shape" transform="translate(140.775,-50.775)">
			<title>Sheet.170</title>
			<path d="M50.4 144.75 L50.4 177.15 L0 177.15" class="st2"/>
		</g>
		<g id="shape171-215" v:mID="171" v:groupContext="shape" transform="translate(115.575,-155.175)">
			<title>Sheet.171</title>
			<path d="M0 177.15 L0 155.55 L75.6 155.55" class="st2"/>
		</g>
		<g id="shape176-218" v:mID="176" v:groupContext="shape" transform="translate(14.025,14.775) rotate(-90)">
			<title>Sheet.176</title>
			<path d="M0 177.15 L14.4 177.15" class="st2"/>
		</g>
		<g id="shape177-221" v:mID="177" v:groupContext="shape" transform="translate(137.175,-4.85501)">
			<title>Sheet.177</title>
			<desc>C3</desc>
			<v:textBlock v:margins="rect(4,4,4,4)" v:tabSpace="42.5197"/>
			<v:textRect cx="14.4" cy="167.15" width="28.81" height="20"/>
			<rect x="0" y="157.15" width="28.8" height="20" class="st6"/>
			<text x="9.17" y="170.75" class="st7" v:langID="2057"><v:paragraph v:horizAlign="1"/><v:tabList/>C<tspan class="st8">3</tspan></text>		</g>
		<g id="shape178-225" v:mID="178" v:groupContext="shape" transform="translate(165.975,-130.775)">
			<title>Sheet.178</title>
			<desc>C4</desc>
			<v:textBlock v:margins="rect(4,4,4,4)" v:tabSpace="42.5197"/>
			<v:textRect cx="14.4" cy="167.15" width="28.81" height="20"/>
			<rect x="0" y="157.15" width="28.8" height="20" class="st6"/>
			<text x="9.17" y="170.75" class="st7" v:langID="2057"><v:paragraph v:horizAlign="1"/><v:tabList/>C<tspan class="st8">4</tspan></text>		</g>
	</g>
</svg>
