<?xml version="1.0" encoding="UTF-8" standalone="no"?>
<!DOCTYPE svg PUBLIC "-//W3C//DTD SVG 1.1//EN" "http://www.w3.org/Graphics/SVG/1.1/DTD/svg11.dtd">
<!-- Generated by Microsoft Visio, SVG Export james.svg Page-1 -->
<svg xmlns="http://www.w3.org/2000/svg" xmlns:xlink="http://www.w3.org/1999/xlink" xmlns:ev="http://www.w3.org/2001/xml-events"
		xmlns:v="http://schemas.microsoft.com/visio/2003/SVGExtensions/" width="3.76042in" height="2.38819in"
		viewBox="0 0 270.75 171.95" xml:space="preserve" color-interpolation-filters="sRGB" class="st10">
	<v:documentProperties v:langID="2057" v:metric="true" v:viewMarkup="false"/>

	<style type="text/css">
	<![CDATA[
		.st1 {fill:#ffffff;stroke:#000000;stroke-linecap:round;stroke-linejoin:round;stroke-width:0.75}
		.st2 {stroke:#000000;stroke-linecap:round;stroke-linejoin:round;stroke-width:0.75}
		.st3 {marker-end:url(#mrkr5-65);stroke:#000000;stroke-linecap:round;stroke-linejoin:round;stroke-width:0.75}
		.st4 {fill:#000000;fill-opacity:1;stroke:#000000;stroke-opacity:1;stroke-width:0.22935779816514}
		.st5 {marker-start:url(#mrkr5-110);stroke:#000000;stroke-linecap:round;stroke-linejoin:round;stroke-width:0.75}
		.st6 {fill:none;stroke:none;stroke-linecap:round;stroke-linejoin:round;stroke-width:0.75}
		.st7 {fill:#000000;font-family:Calibri;font-size:1.00001em}
		.st8 {font-size:0.666659em}
		.st9 {fill:#000000;font-family:Calibri;font-size:0.666664em}
		.st10 {fill:none;fill-rule:evenodd;font-size:12px;overflow:visible;stroke-linecap:square;stroke-miterlimit:3}
	]]>
	</style>

	<defs id="Markers">
		<g id="lend5">
			<path d="M 2 1 L 0 0 L 1.98117 -0.993387 C 1.67173 -0.364515 1.67301 0.372641 1.98465 1.00043 " style="stroke:none"/>
		</g>
		<marker id="mrkr5-65" class="st4" v:arrowType="5" v:arrowSize="2" v:setback="7.63" refX="-7.63" orient="auto"
				markerUnits="strokeWidth" overflow="visible">
			<use xlink:href="#lend5" transform="scale(-4.36,-4.36) "/>
		</marker>
		<marker id="mrkr5-110" class="st4" v:arrowType="5" v:arrowSize="2" v:setback="7.15" refX="7.15" orient="auto"
				markerUnits="strokeWidth" overflow="visible">
			<use xlink:href="#lend5" transform="scale(4.36) "/>
		</marker>
	</defs>
	<g v:mID="0" v:index="1" v:groupContext="foregroundPage">
		<title>Page-1</title>
		<v:pageProperties v:drawingScale="1" v:pageScale="1" v:drawingUnits="0" v:shadowOffsetX="8.50394"
				v:shadowOffsetY="-8.50394"/>
		<g id="group18-1" transform="translate(47.175,-147.975)" v:mID="18" v:groupContext="group">
			<title>Sheet.18</title>
			<g id="shape19-2" v:mID="19" v:groupContext="shape" transform="translate(7.2,2.84217E-14)">
				<title>Sheet.19</title>
				<rect x="0" y="164.75" width="21.6" height="7.2" class="st1"/>
			</g>
			<g id="shape20-4" v:mID="20" v:groupContext="shape" transform="translate(1.59872E-14,-3.6)">
				<title>Sheet.20</title>
				<path d="M0 171.95 L7.2 171.95" class="st2"/>
			</g>
			<g id="shape21-7" v:mID="21" v:groupContext="shape" transform="translate(28.8,-3.6)">
				<title>Sheet.21</title>
				<path d="M0 171.95 L7.2 171.95" class="st2"/>
			</g>
		</g>
		<g id="shape25-10" v:mID="25" v:groupContext="shape" transform="translate(39.975,-93.975)">
			<title>Sheet.25</title>
			<path d="M0 171.95 L0 114.35 L7.2 114.35" class="st2"/>
		</g>
		<g id="shape26-13" v:mID="26" v:groupContext="shape" transform="translate(39.975,-0.375)">
			<title>Sheet.26</title>
			<path d="M0 114.35 L0 171.95 L205.2 171.95" class="st2"/>
		</g>
		<g id="group31-16" transform="translate(26.425,113.975) rotate(-90)" v:mID="31" v:groupContext="group">
			<title>Sheet.31</title>
			<g id="shape32-17" v:mID="32" v:groupContext="shape" transform="translate(7.2,2.84217E-14)">
				<title>Sheet.32</title>
				<rect x="0" y="164.75" width="21.6" height="7.2" class="st1"/>
			</g>
			<g id="shape33-19" v:mID="33" v:groupContext="shape" transform="translate(1.59872E-14,-3.6)">
				<title>Sheet.33</title>
				<path d="M0 171.95 L7.2 171.95" class="st2"/>
			</g>
			<g id="shape34-22" v:mID="34" v:groupContext="shape" transform="translate(28.8,-3.6)">
				<title>Sheet.34</title>
				<path d="M0 171.95 L7.2 171.95" class="st2"/>
			</g>
		</g>
		<g id="group39-25" transform="translate(-77.975,63.575) rotate(-90)" v:mID="39" v:groupContext="group">
			<title>Sheet.39</title>
			<g id="shape40-26" v:mID="40" v:groupContext="shape" transform="translate(7.2,2.84217E-14)">
				<title>Sheet.40</title>
				<rect x="0" y="164.75" width="21.6" height="7.2" class="st1"/>
			</g>
			<g id="shape41-28" v:mID="41" v:groupContext="shape" transform="translate(1.59872E-14,-3.6)">
				<title>Sheet.41</title>
				<path d="M0 171.95 L7.2 171.95" class="st2"/>
			</g>
			<g id="shape42-31" v:mID="42" v:groupContext="shape" transform="translate(28.8,-3.6)">
				<title>Sheet.42</title>
				<path d="M0 171.95 L7.2 171.95" class="st2"/>
			</g>
		</g>
		<g id="group53-34" transform="translate(-52.775,81.575) rotate(-90)" v:mID="53" v:groupContext="group">
			<title>Sheet.53</title>
			<g id="shape54-35" v:mID="54" v:groupContext="shape" transform="translate(0,-12.24)">
				<title>Sheet.54</title>
				<rect x="0" y="169.79" width="21.6" height="2.16003" class="st1"/>
			</g>
			<g id="shape55-37" v:mID="55" v:groupContext="shape" transform="translate(0,-7.20001)">
				<title>Sheet.55</title>
				<rect x="0" y="169.79" width="21.6" height="2.16003" class="st1"/>
			</g>
			<g id="shape56-39" v:mID="56" v:groupContext="shape" transform="translate(-161.15,157.55) rotate(-90)">
				<title>Sheet.56</title>
				<path d="M0 171.95 L7.2 171.95" class="st2"/>
			</g>
			<g id="shape57-42" v:mID="57" v:groupContext="shape" transform="translate(182.75,164.75) rotate(90)">
				<title>Sheet.57</title>
				<path d="M0 171.95 L7.2 171.95" class="st2"/>
			</g>
		</g>
		<g id="shape58-45" v:mID="58" v:groupContext="shape" transform="translate(83.175,-151.575)">
			<title>Sheet.58</title>
			<path d="M0 171.95 L21.6 171.95" class="st2"/>
		</g>
		<g id="shape59-48" v:mID="59" v:groupContext="shape" transform="translate(-81.575,27.575) rotate(-90)">
			<title>Sheet.59</title>
			<path d="M0 171.95 L7.2 171.95" class="st2"/>
		</g>
		<g id="shape60-51" v:mID="60" v:groupContext="shape" transform="translate(104.775,-137.175)">
			<title>Sheet.60</title>
			<path d="M0 157.55 L90 157.55 L90 171.95" class="st2"/>
		</g>
		<g id="shape62-54" v:mID="62" v:groupContext="shape" transform="translate(194.775,-93.975)">
			<title>Sheet.62</title>
			<path d="M0 171.95 L0 161.15 L0 150.35" class="st2"/>
		</g>
		<g id="shape65-57" v:mID="65" v:groupContext="shape" transform="translate(366.725,157.175) rotate(90)">
			<title>Sheet.65</title>
			<path d="M0 171.95 L14.4 171.95" class="st2"/>
		</g>
		<g id="shape66-60" v:mID="66" v:groupContext="shape" transform="translate(169.575,-75.975)">
			<title>Sheet.66</title>
			<path d="M0 171.95 L15.88 171.95" class="st3"/>
		</g>
		<g id="shape67-66" v:mID="67" v:groupContext="shape" transform="translate(22.825,135.575) rotate(-90)">
			<title>Sheet.67</title>
			<path d="M0 171.95 L21.6 171.95" class="st2"/>
		</g>
		<g id="group71-69" transform="translate(133.575,-72.375)" v:mID="71" v:groupContext="group">
			<title>Sheet.71</title>
			<g id="shape72-70" v:mID="72" v:groupContext="shape" transform="translate(7.2,2.84217E-14)">
				<title>Sheet.72</title>
				<rect x="0" y="164.75" width="21.6" height="7.2" class="st1"/>
			</g>
			<g id="shape73-72" v:mID="73" v:groupContext="shape" transform="translate(1.59872E-14,-3.6)">
				<title>Sheet.73</title>
				<path d="M0 171.95 L7.2 171.95" class="st2"/>
			</g>
			<g id="shape74-75" v:mID="74" v:groupContext="shape" transform="translate(28.8,-3.6)">
				<title>Sheet.74</title>
				<path d="M0 171.95 L7.2 171.95" class="st2"/>
			</g>
		</g>
		<g id="group78-78" transform="translate(-77.975,113.975) rotate(-90)" v:mID="78" v:groupContext="group">
			<title>Sheet.78</title>
			<g id="shape79-79" v:mID="79" v:groupContext="shape" transform="translate(7.2,2.84217E-14)">
				<title>Sheet.79</title>
				<rect x="0" y="164.75" width="21.6" height="7.2" class="st1"/>
			</g>
			<g id="shape80-81" v:mID="80" v:groupContext="shape" transform="translate(1.59872E-14,-3.6)">
				<title>Sheet.80</title>
				<path d="M0 171.95 L7.2 171.95" class="st2"/>
			</g>
			<g id="shape81-84" v:mID="81" v:groupContext="shape" transform="translate(28.8,-3.6)">
				<title>Sheet.81</title>
				<path d="M0 171.95 L7.2 171.95" class="st2"/>
			</g>
		</g>
		<g id="group82-87" transform="translate(-77.975,164.375) rotate(-90)" v:mID="82" v:groupContext="group">
			<title>Sheet.82</title>
			<g id="shape83-88" v:mID="83" v:groupContext="shape" transform="translate(7.2,2.84217E-14)">
				<title>Sheet.83</title>
				<rect x="0" y="164.75" width="21.6" height="7.2" class="st1"/>
			</g>
			<g id="shape84-90" v:mID="84" v:groupContext="shape" transform="translate(1.59872E-14,-3.6)">
				<title>Sheet.84</title>
				<path d="M0 171.95 L7.2 171.95" class="st2"/>
			</g>
			<g id="shape85-93" v:mID="85" v:groupContext="shape" transform="translate(28.8,-3.6)">
				<title>Sheet.85</title>
				<path d="M0 171.95 L7.2 171.95" class="st2"/>
			</g>
		</g>
		<g id="shape86-96" v:mID="86" v:groupContext="shape" transform="translate(262.325,63.575) rotate(90)">
			<title>Sheet.86</title>
			<path d="M0 171.95 L14.4 171.95" class="st2"/>
		</g>
		<g id="shape87-99" v:mID="87" v:groupContext="shape" transform="translate(262.325,113.975) rotate(90)">
			<title>Sheet.87</title>
			<path d="M0 171.95 L14.4 171.95" class="st2"/>
		</g>
		<g id="shape88-102" v:mID="88" v:groupContext="shape" transform="translate(262.325,164.375) rotate(90)">
			<title>Sheet.88</title>
			<path d="M0 171.95 L7.2 171.95" class="st2"/>
		</g>
		<g id="shape89-105" v:mID="89" v:groupContext="shape" transform="translate(93.975,-75.975)">
			<title>Sheet.89</title>
			<path d="M5.36 171.95 L5.72 171.95 L10.8 171.95" class="st5"/>
		</g>
		<g id="shape95-111" v:mID="95" v:groupContext="shape" transform="translate(90.375,-101.175)">
			<title>Sheet.95</title>
			<path d="M0 171.95 L7.2 171.95" class="st2"/>
		</g>
		<g id="shape96-114" v:mID="96" v:groupContext="shape" transform="translate(119.175,-50.775)">
			<title>Sheet.96</title>
			<path d="M0 171.95 L7.2 171.95 L7.2 121.55 L0 121.55" class="st2"/>
		</g>
		<g id="shape97-117" v:mID="97" v:groupContext="shape" transform="translate(90.375,-50.775)">
			<title>Sheet.97</title>
			<path d="M0 171.95 L7.2 171.95" class="st2"/>
		</g>
		<g id="shape99-120" v:mID="99" v:groupContext="shape" transform="translate(104.775,-75.975)">
			<title>Sheet.99</title>
			<path d="M0 171.95 L28.8 171.95" class="st2"/>
		</g>
		<g id="group100-123" transform="translate(183.975,-115.575)" v:mID="100" v:groupContext="group">
			<title>Sheet.100</title>
			<g id="shape101-124" v:mID="101" v:groupContext="shape" transform="translate(0,-12.24)">
				<title>Sheet.101</title>
				<rect x="0" y="169.79" width="21.6" height="2.16003" class="st1"/>
			</g>
			<g id="shape102-126" v:mID="102" v:groupContext="shape" transform="translate(0,-7.20001)">
				<title>Sheet.102</title>
				<rect x="0" y="169.79" width="21.6" height="2.16003" class="st1"/>
			</g>
			<g id="shape103-128" v:mID="103" v:groupContext="shape" transform="translate(-161.15,157.55) rotate(-90)">
				<title>Sheet.103</title>
				<path d="M0 171.95 L7.2 171.95" class="st2"/>
			</g>
			<g id="shape104-131" v:mID="104" v:groupContext="shape" transform="translate(182.75,164.75) rotate(90)">
				<title>Sheet.104</title>
				<path d="M0 171.95 L7.2 171.95" class="st2"/>
			</g>
		</g>
		<g id="group105-134" transform="translate(183.975,-14.775)" v:mID="105" v:groupContext="group">
			<title>Sheet.105</title>
			<g id="shape106-135" v:mID="106" v:groupContext="shape" transform="translate(0,-12.24)">
				<title>Sheet.106</title>
				<rect x="0" y="169.79" width="21.6" height="2.16003" class="st1"/>
			</g>
			<g id="shape107-137" v:mID="107" v:groupContext="shape" transform="translate(0,-7.20001)">
				<title>Sheet.107</title>
				<rect x="0" y="169.79" width="21.6" height="2.16003" class="st1"/>
			</g>
			<g id="shape108-139" v:mID="108" v:groupContext="shape" transform="translate(-161.15,157.55) rotate(-90)">
				<title>Sheet.108</title>
				<path d="M0 171.95 L7.2 171.95" class="st2"/>
			</g>
			<g id="shape109-142" v:mID="109" v:groupContext="shape" transform="translate(182.75,164.75) rotate(90)">
				<title>Sheet.109</title>
				<path d="M0 171.95 L7.2 171.95" class="st2"/>
			</g>
		</g>
		<g id="group110-145" transform="translate(76.825,135.575) rotate(-90)" v:mID="110" v:groupContext="group">
			<title>Sheet.110</title>
			<g id="shape111-146" v:mID="111" v:groupContext="shape" transform="translate(7.2,2.84217E-14)">
				<title>Sheet.111</title>
				<rect x="0" y="164.75" width="21.6" height="7.2" class="st1"/>
			</g>
			<g id="shape112-148" v:mID="112" v:groupContext="shape" transform="translate(1.59872E-14,-3.6)">
				<title>Sheet.112</title>
				<path d="M0 171.95 L7.2 171.95" class="st2"/>
			</g>
			<g id="shape113-151" v:mID="113" v:groupContext="shape" transform="translate(28.8,-3.6)">
				<title>Sheet.113</title>
				<path d="M0 171.95 L7.2 171.95" class="st2"/>
			</g>
		</g>
		<g id="shape114-154" v:mID="114" v:groupContext="shape" transform="translate(417.125,135.575) rotate(90)">
			<title>Sheet.114</title>
			<path d="M0 171.95 L36 171.95" class="st2"/>
		</g>
		<g id="shape115-157" v:mID="115" v:groupContext="shape" transform="translate(198.375,-72.375)">
			<title>Sheet.115</title>
			<path d="M46.8 171.95 L46.8 143.15 L0 143.15" class="st2"/>
		</g>
		<g id="shape116-160" v:mID="116" v:groupContext="shape" transform="translate(176.775,-75.975)">
			<title>Sheet.116</title>
			<path d="M0 171.95 L0 146.75 L14.4 146.75" class="st2"/>
		</g>
		<g id="group117-163" transform="translate(-52.775,131.975) rotate(-90)" v:mID="117" v:groupContext="group">
			<title>Sheet.117</title>
			<g id="shape118-164" v:mID="118" v:groupContext="shape" transform="translate(0,-12.24)">
				<title>Sheet.118</title>
				<rect x="0" y="169.79" width="21.6" height="2.16003" class="st1"/>
			</g>
			<g id="shape119-166" v:mID="119" v:groupContext="shape" transform="translate(0,-7.20001)">
				<title>Sheet.119</title>
				<rect x="0" y="169.79" width="21.6" height="2.16003" class="st1"/>
			</g>
			<g id="shape120-168" v:mID="120" v:groupContext="shape" transform="translate(-161.15,157.55) rotate(-90)">
				<title>Sheet.120</title>
				<path d="M0 171.95 L7.2 171.95" class="st2"/>
			</g>
			<g id="shape121-171" v:mID="121" v:groupContext="shape" transform="translate(182.75,164.75) rotate(90)">
				<title>Sheet.121</title>
				<path d="M0 171.95 L7.2 171.95" class="st2"/>
			</g>
		</g>
		<g id="group122-174" transform="translate(0.375,-57.975)" v:mID="122" v:groupContext="group">
			<title>Sheet.122</title>
			<g id="shape123-175" v:mID="123" v:groupContext="shape" transform="translate(30.6,-9)">
				<title>Sheet.123</title>
				<ellipse cx="9" cy="162.95" rx="9" ry="9" class="st1"/>
			</g>
			<g id="shape124-177" v:mID="124" v:groupContext="shape" transform="translate(-132.35,159.35) rotate(-90)">
				<title>Sheet.124</title>
				<path d="M0 171.95 L5.08 171.95" class="st3"/>
			</g>
			<g id="shape125-182" v:mID="125" v:groupContext="shape" transform="translate(-132.35,144.952) rotate(-90)">
				<title>Sheet.125</title>
				<path d="M0 171.95 L9 171.95" class="st2"/>
			</g>
			<g id="shape126-185" v:mID="126" v:groupContext="shape" transform="translate(-132.35,171.95) rotate(-90)">
				<title>Sheet.126</title>
				<path d="M0 171.95 L9 171.95" class="st2"/>
			</g>
			<g id="shape127-188" v:mID="127" v:groupContext="shape" transform="translate(7.99361E-15,-9)">
				<title>Sheet.127</title>
				<desc>VIN</desc>
				<v:textBlock v:margins="rect(4,4,4,4)" v:tabSpace="42.5197"/>
				<v:textRect cx="14.4" cy="161.95" width="28.81" height="20"/>
				<rect x="0" y="151.95" width="28.8" height="20" class="st6"/>
				<text x="7.41" y="165.55" class="st7" v:langID="2057"><v:paragraph v:horizAlign="1"/><v:tabList/>V<tspan
							class="st8">IN</tspan></text>			</g>
		</g>
		<g id="shape128-192" v:mID="128" v:groupContext="shape" transform="translate(50.775,-151.575)">
			<title>Sheet.128</title>
			<desc>RS</desc>
			<v:textBlock v:margins="rect(4,4,4,4)" v:tabSpace="42.5197"/>
			<v:textRect cx="14.4" cy="161.95" width="28.81" height="20"/>
			<rect x="0" y="151.95" width="28.8" height="20" class="st6"/>
			<text x="9.3" y="165.55" class="st7" v:langID="2057"><v:paragraph v:horizAlign="1"/><v:tabList/>R<tspan class="st8">S</tspan></text>		</g>
		<g id="shape129-196" v:mID="129" v:groupContext="shape" transform="translate(241.575,-44.375)">
			<title>Sheet.129</title>
			<desc>RL</desc>
			<v:textBlock v:margins="rect(4,4,4,4)" v:tabSpace="42.5197"/>
			<v:textRect cx="14.4" cy="161.95" width="28.81" height="20"/>
			<rect x="0" y="151.95" width="28.8" height="20" class="st6"/>
			<text x="9.46" y="165.55" class="st7" v:langID="2057"><v:paragraph v:horizAlign="1"/><v:tabList/>R<tspan class="st8">L</tspan></text>		</g>
		<g id="shape130-200" v:mID="130" v:groupContext="shape" transform="translate(61.575,-65.975)">
			<title>Sheet.130</title>
			<desc>VR1</desc>
			<v:textBlock v:margins="rect(4,4,4,4)" v:tabSpace="42.5197"/>
			<v:textRect cx="14.4" cy="161.95" width="28.81" height="20"/>
			<rect x="0" y="151.95" width="28.8" height="20" class="st6"/>
			<text x="5.71" y="165.55" class="st7" v:langID="2057"><v:paragraph v:horizAlign="1"/><v:tabList/>VR<tspan class="st8">1</tspan></text>		</g>
		<g id="shape131-204" v:mID="131" v:groupContext="shape" transform="translate(65.175,-116.375)">
			<title>Sheet.131</title>
			<desc>R1</desc>
			<v:textBlock v:margins="rect(4,4,4,4)" v:tabSpace="42.5197"/>
			<v:textRect cx="14.4" cy="161.95" width="28.81" height="20"/>
			<rect x="0" y="151.95" width="28.8" height="20" class="st6"/>
			<text x="9.11" y="165.55" class="st7" v:langID="2057"><v:paragraph v:horizAlign="1"/><v:tabList/>R<tspan class="st8">1</tspan></text>		</g>
		<g id="shape132-208" v:mID="132" v:groupContext="shape" transform="translate(106.215,-101.175)">
			<title>Sheet.132</title>
			<desc>C1</desc>
			<v:textBlock v:margins="rect(4,4,4,4)" v:tabSpace="42.5197"/>
			<v:textRect cx="14.4" cy="161.95" width="28.81" height="20"/>
			<rect x="0" y="151.95" width="28.8" height="20" class="st6"/>
			<text x="9.17" y="165.55" class="st7" v:langID="2057"><v:paragraph v:horizAlign="1"/><v:tabList/>C<tspan class="st8">1</tspan></text>		</g>
		<g id="shape133-212" v:mID="133" v:groupContext="shape" transform="translate(106.215,-30.615)">
			<title>Sheet.133</title>
			<desc>C2</desc>
			<v:textBlock v:margins="rect(4,4,4,4)" v:tabSpace="42.5197"/>
			<v:textRect cx="14.4" cy="161.95" width="28.81" height="20"/>
			<rect x="0" y="151.95" width="28.8" height="20" class="st6"/>
			<text x="9.17" y="165.55" class="st7" v:langID="2057"><v:paragraph v:horizAlign="1"/><v:tabList/>C<tspan class="st8">2</tspan></text>		</g>
		<g id="shape134-216" v:mID="134" v:groupContext="shape" transform="translate(194.775,-65.975)">
			<title>Sheet.134</title>
			<desc>VR2</desc>
			<v:textBlock v:margins="rect(4,4,4,4)" v:tabSpace="42.5197"/>
			<v:textRect cx="14.4" cy="161.95" width="28.81" height="20"/>
			<rect x="0" y="151.95" width="28.8" height="20" class="st6"/>
			<text x="5.71" y="165.55" class="st7" v:langID="2057"><v:paragraph v:horizAlign="1"/><v:tabList/>VR<tspan class="st8">2</tspan></text>		</g>
		<g id="shape135-220" v:mID="135" v:groupContext="shape" transform="translate(65.175,-15.575)">
			<title>Sheet.135</title>
			<desc>R2</desc>
			<v:textBlock v:margins="rect(4,4,4,4)" v:tabSpace="42.5197"/>
			<v:textRect cx="14.4" cy="161.95" width="28.81" height="20"/>
			<rect x="0" y="151.95" width="28.8" height="20" class="st6"/>
			<text x="9.11" y="165.55" class="st7" v:langID="2057"><v:paragraph v:horizAlign="1"/><v:tabList/>R<tspan class="st8">2</tspan></text>		</g>
		<g id="shape136-224" v:mID="136" v:groupContext="shape" transform="translate(137.175,-75.975)">
			<title>Sheet.136</title>
			<desc>R3</desc>
			<v:textBlock v:margins="rect(4,4,4,4)" v:tabSpace="42.5197"/>
			<v:textRect cx="14.4" cy="161.95" width="28.81" height="20"/>
			<rect x="0" y="151.95" width="28.8" height="20" class="st6"/>
			<text x="9.11" y="165.55" class="st7" v:langID="2057"><v:paragraph v:horizAlign="1"/><v:tabList/>R<tspan class="st8">3</tspan></text>		</g>
		<g id="shape137-228" v:mID="137" v:groupContext="shape" transform="translate(169.575,-25.575)">
			<title>Sheet.137</title>
			<desc>C4</desc>
			<v:textBlock v:margins="rect(4,4,4,4)" v:tabSpace="42.5197"/>
			<v:textRect cx="14.4" cy="161.95" width="28.81" height="20"/>
			<rect x="0" y="151.95" width="28.8" height="20" class="st6"/>
			<text x="9.17" y="165.55" class="st7" v:langID="2057"><v:paragraph v:horizAlign="1"/><v:tabList/>C<tspan class="st8">4</tspan></text>		</g>
		<g id="shape138-232" v:mID="138" v:groupContext="shape" transform="translate(169.575,-105.655)">
			<title>Sheet.138</title>
			<desc>C3</desc>
			<v:textBlock v:margins="rect(4,4,4,4)" v:tabSpace="42.5197"/>
			<v:textRect cx="14.4" cy="161.95" width="28.81" height="20"/>
			<rect x="0" y="151.95" width="28.8" height="20" class="st6"/>
			<text x="9.17" y="165.55" class="st7" v:langID="2057"><v:paragraph v:horizAlign="1"/><v:tabList/>C<tspan class="st8">3</tspan></text>		</g>
		<g id="shape139-236" v:mID="139" v:groupContext="shape" transform="translate(90.375,-73.975)">
			<title>Sheet.139</title>
			<desc>cw</desc>
			<v:textBlock v:margins="rect(4,4,4,4)" v:tabSpace="42.5197"/>
			<v:textRect cx="10.8" cy="161.95" width="21.61" height="20"/>
			<rect x="0" y="151.95" width="21.6" height="20" class="st6"/>
			<text x="6.25" y="164.35" class="st9" v:langID="2057"><v:paragraph v:horizAlign="1"/><v:tabList/>cw</text>		</g>
		<g id="shape140-239" v:mID="140" v:groupContext="shape" transform="translate(173.175,-73.975)">
			<title>Sheet.140</title>
			<desc>cw</desc>
			<v:textBlock v:margins="rect(4,4,4,4)" v:tabSpace="42.5197"/>
			<v:textRect cx="10.8" cy="161.95" width="21.61" height="20"/>
			<rect x="0" y="151.95" width="21.6" height="20" class="st6"/>
			<text x="6.25" y="164.35" class="st9" v:langID="2057"><v:paragraph v:horizAlign="1"/><v:tabList/>cw</text>		</g>
	</g>
</svg>
