<?xml version="1.0" encoding="UTF-8" standalone="no"?>
<!DOCTYPE svg PUBLIC "-//W3C//DTD SVG 1.1//EN" "http://www.w3.org/Graphics/SVG/1.1/DTD/svg11.dtd">
<!-- Generated by Microsoft Visio, SVG Export marshall18.svg Page-1 -->
<svg xmlns="http://www.w3.org/2000/svg" xmlns:xlink="http://www.w3.org/1999/xlink" xmlns:ev="http://www.w3.org/2001/xml-events"
		xmlns:v="http://schemas.microsoft.com/visio/2003/SVGExtensions/" width="3.61042in" height="2.48454in"
		viewBox="0 0 259.95 178.887" xml:space="preserve" color-interpolation-filters="sRGB" class="st9">
	<v:documentProperties v:langID="2057" v:metric="true" v:viewMarkup="false"/>

	<style type="text/css">
	<![CDATA[
		.st1 {fill:#ffffff;stroke:#000000;stroke-linecap:round;stroke-linejoin:round;stroke-width:0.75}
		.st2 {stroke:#000000;stroke-linecap:round;stroke-linejoin:round;stroke-width:0.75}
		.st3 {marker-end:url(#mrkr5-18);stroke:#000000;stroke-linecap:round;stroke-linejoin:round;stroke-width:0.75}
		.st4 {fill:#000000;fill-opacity:1;stroke:#000000;stroke-opacity:1;stroke-width:0.22935779816514}
		.st5 {fill:none;stroke:none;stroke-linecap:round;stroke-linejoin:round;stroke-width:0.75}
		.st6 {fill:#000000;font-family:Calibri;font-size:1.00001em}
		.st7 {font-size:0.666659em}
		.st8 {fill:#000000;font-family:Calibri;font-size:0.666664em}
		.st9 {fill:none;fill-rule:evenodd;font-size:12px;overflow:visible;stroke-linecap:square;stroke-miterlimit:3}
	]]>
	</style>

	<defs id="Markers">
		<g id="lend5">
			<path d="M 2 1 L 0 0 L 1.98117 -0.993387 C 1.67173 -0.364515 1.67301 0.372641 1.98465 1.00043 " style="stroke:none"/>
		</g>
		<marker id="mrkr5-18" class="st4" v:arrowType="5" v:arrowSize="2" v:setback="7.63" refX="-7.63" orient="auto"
				markerUnits="strokeWidth" overflow="visible">
			<use xlink:href="#lend5" transform="scale(-4.36,-4.36) "/>
		</marker>
	</defs>
	<g v:mID="0" v:index="1" v:groupContext="foregroundPage">
		<title>Page-1</title>
		<v:pageProperties v:drawingScale="1" v:pageScale="1" v:drawingUnits="0" v:shadowOffsetX="8.50394"
				v:shadowOffsetY="-8.50394"/>
		<g id="group18-1" transform="translate(47.175,-154.912)" v:mID="18" v:groupContext="group">
			<title>Sheet.18</title>
			<g id="shape19-2" v:mID="19" v:groupContext="shape" transform="translate(7.2,0)">
				<title>Sheet.19</title>
				<rect x="0" y="171.687" width="21.6" height="7.2" class="st1"/>
			</g>
			<g id="shape20-4" v:mID="20" v:groupContext="shape" transform="translate(1.59872E-14,-3.6)">
				<title>Sheet.20</title>
				<path d="M0 178.89 L7.2 178.89" class="st2"/>
			</g>
			<g id="shape21-7" v:mID="21" v:groupContext="shape" transform="translate(28.8,-3.6)">
				<title>Sheet.21</title>
				<path d="M0 178.89 L7.2 178.89" class="st2"/>
			</g>
		</g>
		<g id="group24-10" transform="translate(0.375,-64.9119)" v:mID="24" v:groupContext="group">
			<title>Sheet.24</title>
			<g id="shape5-11" v:mID="5" v:groupContext="shape" transform="translate(30.6,-9)">
				<title>Sheet.5</title>
				<ellipse cx="9" cy="169.887" rx="9" ry="9" class="st1"/>
			</g>
			<g id="shape6-13" v:mID="6" v:groupContext="shape" transform="translate(-139.287,166.287) rotate(-90)">
				<title>Sheet.6</title>
				<path d="M0 178.89 L5.08 178.89" class="st3"/>
			</g>
			<g id="shape14-19" v:mID="14" v:groupContext="shape" transform="translate(-139.287,151.889) rotate(-90)">
				<title>Sheet.14</title>
				<path d="M0 178.89 L9 178.89" class="st2"/>
			</g>
			<g id="shape15-22" v:mID="15" v:groupContext="shape" transform="translate(-139.287,178.887) rotate(-90)">
				<title>Sheet.15</title>
				<path d="M0 178.89 L9 178.89" class="st2"/>
			</g>
			<g id="shape16-25" v:mID="16" v:groupContext="shape" transform="translate(7.99361E-15,-9)">
				<title>Sheet.16</title>
				<desc>VIN</desc>
				<v:textBlock v:margins="rect(4,4,4,4)" v:tabSpace="42.5197"/>
				<v:textRect cx="14.4" cy="168.887" width="28.81" height="20"/>
				<rect x="0" y="158.887" width="28.8" height="20" class="st5"/>
				<text x="7.41" y="172.49" class="st6" v:langID="2057"><v:paragraph v:horizAlign="1"/><v:tabList/>V<tspan
							class="st7">IN</tspan></text>			</g>
		</g>
		<g id="shape25-29" v:mID="25" v:groupContext="shape" transform="translate(39.975,-100.912)">
			<title>Sheet.25</title>
			<path d="M0 178.89 L0 121.29 L7.2 121.29" class="st2"/>
		</g>
		<g id="shape26-32" v:mID="26" v:groupContext="shape" transform="translate(39.975,-7.31194)">
			<title>Sheet.26</title>
			<path d="M0 121.29 L0 178.89 L194.4 178.89" class="st2"/>
		</g>
		<g id="group27-35" transform="translate(147.975,-104.512)" v:mID="27" v:groupContext="group">
			<title>Sheet.27</title>
			<g id="shape28-36" v:mID="28" v:groupContext="shape" transform="translate(7.2,0)">
				<title>Sheet.28</title>
				<rect x="0" y="171.687" width="21.6" height="7.2" class="st1"/>
			</g>
			<g id="shape29-38" v:mID="29" v:groupContext="shape" transform="translate(1.59872E-14,-3.6)">
				<title>Sheet.29</title>
				<path d="M0 178.89 L7.2 178.89" class="st2"/>
			</g>
			<g id="shape30-41" v:mID="30" v:groupContext="shape" transform="translate(28.8,-3.6)">
				<title>Sheet.30</title>
				<path d="M0 178.89 L7.2 178.89" class="st2"/>
			</g>
		</g>
		<g id="group43-44" transform="translate(308.862,9.57501) rotate(90)" v:mID="43" v:groupContext="group">
			<title>Sheet.43</title>
			<g id="shape44-45" v:mID="44" v:groupContext="shape" transform="translate(0,-12.24)">
				<title>Sheet.44</title>
				<rect x="0" y="176.727" width="21.6" height="2.16003" class="st1"/>
			</g>
			<g id="shape45-47" v:mID="45" v:groupContext="shape" transform="translate(0,-7.20001)">
				<title>Sheet.45</title>
				<rect x="0" y="176.727" width="21.6" height="2.16003" class="st1"/>
			</g>
			<g id="shape46-49" v:mID="46" v:groupContext="shape" transform="translate(-168.087,164.487) rotate(-90)">
				<title>Sheet.46</title>
				<path d="M0 178.89 L7.2 178.89" class="st2"/>
			</g>
			<g id="shape47-52" v:mID="47" v:groupContext="shape" transform="translate(189.687,171.687) rotate(90)">
				<title>Sheet.47</title>
				<path d="M0 178.89 L7.2 178.89" class="st2"/>
			</g>
		</g>
		<g id="group53-55" transform="translate(79.575,-122.512)" v:mID="53" v:groupContext="group">
			<title>Sheet.53</title>
			<g id="shape54-56" v:mID="54" v:groupContext="shape" transform="translate(0,-12.24)">
				<title>Sheet.54</title>
				<rect x="0" y="176.727" width="21.6" height="2.16003" class="st1"/>
			</g>
			<g id="shape55-58" v:mID="55" v:groupContext="shape" transform="translate(0,-7.20001)">
				<title>Sheet.55</title>
				<rect x="0" y="176.727" width="21.6" height="2.16003" class="st1"/>
			</g>
			<g id="shape56-60" v:mID="56" v:groupContext="shape" transform="translate(-168.087,164.487) rotate(-90)">
				<title>Sheet.56</title>
				<path d="M0 178.89 L7.2 178.89" class="st2"/>
			</g>
			<g id="shape57-63" v:mID="57" v:groupContext="shape" transform="translate(189.687,171.687) rotate(90)">
				<title>Sheet.57</title>
				<path d="M0 178.89 L7.2 178.89" class="st2"/>
			</g>
		</g>
		<g id="shape58-66" v:mID="58" v:groupContext="shape" transform="translate(83.175,-158.512)">
			<title>Sheet.58</title>
			<path d="M0 178.89 L46.8 178.89" class="st2"/>
		</g>
		<g id="shape59-69" v:mID="59" v:groupContext="shape" transform="translate(-88.512,34.775) rotate(-90)">
			<title>Sheet.59</title>
			<path d="M0 178.89 L14.4 178.89" class="st2"/>
		</g>
		<g id="shape60-72" v:mID="60" v:groupContext="shape" transform="translate(151.575,-108.112)">
			<title>Sheet.60</title>
			<path d="M0 128.49 L39.6 128.49 L39.6 178.89" class="st2"/>
		</g>
		<g id="shape61-75" v:mID="61" v:groupContext="shape" transform="translate(133.575,-108.112) rotate(5.33608E-06)">
			<title>Sheet.61</title>
			<path d="M0 178.89 L14.4 178.89" class="st2"/>
		</g>
		<g id="shape63-78" v:mID="63" v:groupContext="shape" transform="translate(90.375,-108.112)">
			<title>Sheet.63</title>
			<path d="M0 164.49 L0 178.89 L7.2 178.89" class="st2"/>
		</g>
		<g id="group71-81" transform="translate(59.0881,113.975) rotate(-90)" v:mID="71" v:groupContext="group">
			<title>Sheet.71</title>
			<g id="shape72-82" v:mID="72" v:groupContext="shape" transform="translate(7.2,0)">
				<title>Sheet.72</title>
				<rect x="0" y="171.687" width="21.6" height="7.2" class="st1"/>
			</g>
			<g id="shape73-84" v:mID="73" v:groupContext="shape" transform="translate(1.59872E-14,-3.6)">
				<title>Sheet.73</title>
				<path d="M0 178.89 L7.2 178.89" class="st2"/>
			</g>
			<g id="shape74-87" v:mID="74" v:groupContext="shape" transform="translate(28.8,-3.6)">
				<title>Sheet.74</title>
				<path d="M0 178.89 L7.2 178.89" class="st2"/>
			</g>
		</g>
		<g id="shape77-90" v:mID="77" v:groupContext="shape" transform="translate(413.262,113.975) rotate(90)">
			<title>Sheet.77</title>
			<path d="M0 178.89 L57.6 178.89" class="st2"/>
		</g>
		<g id="group78-93" transform="translate(97.575,-104.512)" v:mID="78" v:groupContext="group">
			<title>Sheet.78</title>
			<g id="shape79-94" v:mID="79" v:groupContext="shape" transform="translate(7.2,0)">
				<title>Sheet.79</title>
				<rect x="0" y="171.687" width="21.6" height="7.2" class="st1"/>
			</g>
			<g id="shape80-96" v:mID="80" v:groupContext="shape" transform="translate(1.59872E-14,-3.6)">
				<title>Sheet.80</title>
				<path d="M0 178.89 L7.2 178.89" class="st2"/>
			</g>
			<g id="shape81-99" v:mID="81" v:groupContext="shape" transform="translate(28.8,-3.6)">
				<title>Sheet.81</title>
				<path d="M0 178.89 L7.2 178.89" class="st2"/>
			</g>
		</g>
		<g id="shape82-102" v:mID="82" v:groupContext="shape" transform="translate(-63.312,171.575) rotate(-90)">
			<title>Sheet.82</title>
			<path d="M0 178.89 L91.48 178.89" class="st3"/>
		</g>
		<g id="shape84-107" v:mID="84" v:groupContext="shape" transform="translate(183.975,-108.112)">
			<title>Sheet.84</title>
			<path d="M0 178.89 L7.2 178.89" class="st2"/>
		</g>
		<g id="shape85-110" v:mID="85" v:groupContext="shape" transform="translate(191.175,-100.912)">
			<title>Sheet.85</title>
			<path d="M0 146.49 L43.2 146.49 L43.2 178.89" class="st2"/>
		</g>
		<g id="shape87-113" v:mID="87" v:groupContext="shape" transform="translate(50.775,-158.512)">
			<title>Sheet.87</title>
			<desc>RS</desc>
			<v:textBlock v:margins="rect(4,4,4,4)" v:tabSpace="42.5197"/>
			<v:textRect cx="14.4" cy="168.887" width="28.81" height="20"/>
			<rect x="0" y="158.887" width="28.8" height="20" class="st5"/>
			<text x="9.3" y="172.49" class="st6" v:langID="2057"><v:paragraph v:horizAlign="1"/><v:tabList/>R<tspan class="st7">S</tspan></text>		</g>
		<g id="shape88-117" v:mID="88" v:groupContext="shape" transform="translate(230.775,-72.9119)">
			<title>Sheet.88</title>
			<desc>RL</desc>
			<v:textBlock v:margins="rect(4,4,4,4)" v:tabSpace="42.5197"/>
			<v:textRect cx="14.4" cy="168.887" width="28.81" height="20"/>
			<rect x="0" y="158.887" width="28.8" height="20" class="st5"/>
			<text x="9.46" y="172.49" class="st6" v:langID="2057"><v:paragraph v:horizAlign="1"/><v:tabList/>R<tspan class="st7">L</tspan></text>		</g>
		<g id="shape89-121" v:mID="89" v:groupContext="shape" transform="translate(101.175,-108.112)">
			<title>Sheet.89</title>
			<desc>VR1</desc>
			<v:textBlock v:margins="rect(4,4,4,4)" v:tabSpace="42.5197"/>
			<v:textRect cx="14.4" cy="168.887" width="28.81" height="20"/>
			<rect x="0" y="158.887" width="28.8" height="20" class="st5"/>
			<text x="5.71" y="172.49" class="st6" v:langID="2057"><v:paragraph v:horizAlign="1"/><v:tabList/>VR<tspan class="st7">1</tspan></text>		</g>
		<g id="shape90-125" v:mID="90" v:groupContext="shape" transform="translate(151.575,-108.112)">
			<title>Sheet.90</title>
			<desc>R1</desc>
			<v:textBlock v:margins="rect(4,4,4,4)" v:tabSpace="42.5197"/>
			<v:textRect cx="14.4" cy="168.887" width="28.81" height="20"/>
			<rect x="0" y="158.887" width="28.8" height="20" class="st5"/>
			<text x="9.11" y="172.49" class="st6" v:langID="2057"><v:paragraph v:horizAlign="1"/><v:tabList/>R<tspan class="st7">1</tspan></text>		</g>
		<g id="shape91-129" v:mID="91" v:groupContext="shape" transform="translate(113.415,-158.512)">
			<title>Sheet.91</title>
			<desc>C1</desc>
			<v:textBlock v:margins="rect(4,4,4,4)" v:tabSpace="42.5197"/>
			<v:textRect cx="14.4" cy="168.887" width="28.81" height="20"/>
			<rect x="0" y="158.887" width="28.8" height="20" class="st5"/>
			<text x="9.17" y="172.49" class="st6" v:langID="2057"><v:paragraph v:horizAlign="1"/><v:tabList/>C<tspan class="st7">1</tspan></text>		</g>
		<g id="shape92-133" v:mID="92" v:groupContext="shape" transform="translate(65.175,-112.512)">
			<title>Sheet.92</title>
			<desc>C2</desc>
			<v:textBlock v:margins="rect(4,4,4,4)" v:tabSpace="42.5197"/>
			<v:textRect cx="14.4" cy="168.887" width="28.81" height="20"/>
			<rect x="0" y="158.887" width="28.8" height="20" class="st5"/>
			<text x="9.17" y="172.49" class="st6" v:langID="2057"><v:paragraph v:horizAlign="1"/><v:tabList/>C<tspan class="st7">2</tspan></text>		</g>
		<g id="shape93-137" v:mID="93" v:groupContext="shape" transform="translate(115.575,-90.1119)">
			<title>Sheet.93</title>
			<desc>cw</desc>
			<v:textBlock v:margins="rect(4,4,4,4)" v:tabSpace="42.5197"/>
			<v:textRect cx="10.8" cy="168.887" width="21.61" height="20"/>
			<rect x="0" y="158.887" width="21.6" height="20" class="st5"/>
			<text x="6.25" y="171.29" class="st8" v:langID="2057"><v:paragraph v:horizAlign="1"/><v:tabList/>cw</text>		</g>
	</g>
</svg>
