<?xml version="1.0" encoding="UTF-8" standalone="no"?>
<!DOCTYPE svg PUBLIC "-//W3C//DTD SVG 1.1//EN" "http://www.w3.org/Graphics/SVG/1.1/DTD/svg11.dtd">
<!-- Generated by Microsoft Visio, SVG Export marshall.svg Page-1 -->
<svg xmlns="http://www.w3.org/2000/svg" xmlns:xlink="http://www.w3.org/1999/xlink" xmlns:ev="http://www.w3.org/2001/xml-events"
		xmlns:v="http://schemas.microsoft.com/visio/2003/SVGExtensions/" width="3.01305in" height="2.38819in"
		viewBox="0 0 216.939 171.95" xml:space="preserve" color-interpolation-filters="sRGB" class="st9">
	<v:documentProperties v:langID="2057" v:metric="true" v:viewMarkup="false"/>

	<style type="text/css">
	<![CDATA[
		.st1 {fill:#ffffff;stroke:#000000;stroke-linecap:round;stroke-linejoin:round;stroke-width:0.75}
		.st2 {stroke:#000000;stroke-linecap:round;stroke-linejoin:round;stroke-width:0.75}
		.st3 {marker-end:url(#mrkr5-114);stroke:#000000;stroke-linecap:round;stroke-linejoin:round;stroke-width:0.75}
		.st4 {fill:#000000;fill-opacity:1;stroke:#000000;stroke-opacity:1;stroke-width:0.22935779816514}
		.st5 {fill:none;stroke:none;stroke-linecap:round;stroke-linejoin:round;stroke-width:0.75}
		.st6 {fill:#000000;font-family:Calibri;font-size:1.00001em}
		.st7 {font-size:0.666659em}
		.st8 {fill:#000000;font-family:Calibri;font-size:0.666664em}
		.st9 {fill:none;fill-rule:evenodd;font-size:12px;overflow:visible;stroke-linecap:square;stroke-miterlimit:3}
	]]>
	</style>

	<defs id="Markers">
		<g id="lend5">
			<path d="M 2 1 L 0 0 L 1.98117 -0.993387 C 1.67173 -0.364515 1.67301 0.372641 1.98465 1.00043 " style="stroke:none"/>
		</g>
		<marker id="mrkr5-114" class="st4" v:arrowType="5" v:arrowSize="2" v:setback="7.63" refX="-7.63" orient="auto"
				markerUnits="strokeWidth" overflow="visible">
			<use xlink:href="#lend5" transform="scale(-4.36,-4.36) "/>
		</marker>
	</defs>
	<g v:mID="0" v:index="1" v:groupContext="foregroundPage">
		<title>Page-1</title>
		<v:pageProperties v:drawingScale="1" v:pageScale="1" v:drawingUnits="0" v:shadowOffsetX="8.50394"
				v:shadowOffsetY="-8.50394"/>
		<g id="group18-1" transform="translate(47.175,-147.975)" v:mID="18" v:groupContext="group">
			<title>Sheet.18</title>
			<g id="shape19-2" v:mID="19" v:groupContext="shape" transform="translate(7.2,0)">
				<title>Sheet.19</title>
				<rect x="0" y="164.75" width="21.6" height="7.2" class="st1"/>
			</g>
			<g id="shape20-4" v:mID="20" v:groupContext="shape" transform="translate(1.59872E-14,-3.6)">
				<title>Sheet.20</title>
				<path d="M0 171.95 L7.2 171.95" class="st2"/>
			</g>
			<g id="shape21-7" v:mID="21" v:groupContext="shape" transform="translate(28.8,-3.6)">
				<title>Sheet.21</title>
				<path d="M0 171.95 L7.2 171.95" class="st2"/>
			</g>
		</g>
		<g id="shape25-10" v:mID="25" v:groupContext="shape" transform="translate(39.975,-93.975)">
			<title>Sheet.25</title>
			<path d="M0 171.95 L0 114.35 L7.2 114.35" class="st2"/>
		</g>
		<g id="shape26-13" v:mID="26" v:groupContext="shape" transform="translate(39.975,-0.375)">
			<title>Sheet.26</title>
			<path d="M0 114.35 L0 171.95 L151.2 171.95" class="st2"/>
		</g>
		<g id="group27-16" transform="translate(-27.575,63.575) rotate(-90)" v:mID="27" v:groupContext="group">
			<title>Sheet.27</title>
			<g id="shape28-17" v:mID="28" v:groupContext="shape" transform="translate(7.2,0)">
				<title>Sheet.28</title>
				<rect x="0" y="164.75" width="21.6" height="7.2" class="st1"/>
			</g>
			<g id="shape29-19" v:mID="29" v:groupContext="shape" transform="translate(1.59872E-14,-3.6)">
				<title>Sheet.29</title>
				<path d="M0 171.95 L7.2 171.95" class="st2"/>
			</g>
			<g id="shape30-22" v:mID="30" v:groupContext="shape" transform="translate(28.8,-3.6)">
				<title>Sheet.30</title>
				<path d="M0 171.95 L7.2 171.95" class="st2"/>
			</g>
		</g>
		<g id="group31-25" transform="translate(-27.575,113.975) rotate(-90)" v:mID="31" v:groupContext="group">
			<title>Sheet.31</title>
			<g id="shape32-26" v:mID="32" v:groupContext="shape" transform="translate(7.2,0)">
				<title>Sheet.32</title>
				<rect x="0" y="164.75" width="21.6" height="7.2" class="st1"/>
			</g>
			<g id="shape33-28" v:mID="33" v:groupContext="shape" transform="translate(1.59872E-14,-3.6)">
				<title>Sheet.33</title>
				<path d="M0 171.95 L7.2 171.95" class="st2"/>
			</g>
			<g id="shape34-31" v:mID="34" v:groupContext="shape" transform="translate(28.8,-3.6)">
				<title>Sheet.34</title>
				<path d="M0 171.95 L7.2 171.95" class="st2"/>
			</g>
		</g>
		<g id="group35-34" transform="translate(-27.575,164.375) rotate(-90)" v:mID="35" v:groupContext="group">
			<title>Sheet.35</title>
			<g id="shape36-35" v:mID="36" v:groupContext="shape" transform="translate(7.2,0)">
				<title>Sheet.36</title>
				<rect x="0" y="164.75" width="21.6" height="7.2" class="st1"/>
			</g>
			<g id="shape37-37" v:mID="37" v:groupContext="shape" transform="translate(1.59872E-14,-3.6)">
				<title>Sheet.37</title>
				<path d="M0 171.95 L7.2 171.95" class="st2"/>
			</g>
			<g id="shape38-40" v:mID="38" v:groupContext="shape" transform="translate(28.8,-3.6)">
				<title>Sheet.38</title>
				<path d="M0 171.95 L7.2 171.95" class="st2"/>
			</g>
		</g>
		<g id="group39-43" transform="translate(-77.975,63.575) rotate(-90)" v:mID="39" v:groupContext="group">
			<title>Sheet.39</title>
			<g id="shape40-44" v:mID="40" v:groupContext="shape" transform="translate(7.2,0)">
				<title>Sheet.40</title>
				<rect x="0" y="164.75" width="21.6" height="7.2" class="st1"/>
			</g>
			<g id="shape41-46" v:mID="41" v:groupContext="shape" transform="translate(1.59872E-14,-3.6)">
				<title>Sheet.41</title>
				<path d="M0 171.95 L7.2 171.95" class="st2"/>
			</g>
			<g id="shape42-49" v:mID="42" v:groupContext="shape" transform="translate(28.8,-3.6)">
				<title>Sheet.42</title>
				<path d="M0 171.95 L7.2 171.95" class="st2"/>
			</g>
		</g>
		<g id="group43-52" transform="translate(276.725,9.575) rotate(90)" v:mID="43" v:groupContext="group">
			<title>Sheet.43</title>
			<g id="shape44-53" v:mID="44" v:groupContext="shape" transform="translate(0,-12.24)">
				<title>Sheet.44</title>
				<rect x="0" y="169.79" width="21.6" height="2.16003" class="st1"/>
			</g>
			<g id="shape45-55" v:mID="45" v:groupContext="shape" transform="translate(0,-7.20001)">
				<title>Sheet.45</title>
				<rect x="0" y="169.79" width="21.6" height="2.16003" class="st1"/>
			</g>
			<g id="shape46-57" v:mID="46" v:groupContext="shape" transform="translate(-161.15,157.55) rotate(-90)">
				<title>Sheet.46</title>
				<path d="M0 171.95 L7.2 171.95" class="st2"/>
			</g>
			<g id="shape47-60" v:mID="47" v:groupContext="shape" transform="translate(182.75,164.75) rotate(90)">
				<title>Sheet.47</title>
				<path d="M0 171.95 L7.2 171.95" class="st2"/>
			</g>
		</g>
		<g id="group48-63" transform="translate(276.725,59.975) rotate(90)" v:mID="48" v:groupContext="group">
			<title>Sheet.48</title>
			<g id="shape49-64" v:mID="49" v:groupContext="shape" transform="translate(0,-12.24)">
				<title>Sheet.49</title>
				<rect x="0" y="169.79" width="21.6" height="2.16003" class="st1"/>
			</g>
			<g id="shape50-66" v:mID="50" v:groupContext="shape" transform="translate(0,-7.20001)">
				<title>Sheet.50</title>
				<rect x="0" y="169.79" width="21.6" height="2.16003" class="st1"/>
			</g>
			<g id="shape51-68" v:mID="51" v:groupContext="shape" transform="translate(-161.15,157.55) rotate(-90)">
				<title>Sheet.51</title>
				<path d="M0 171.95 L7.2 171.95" class="st2"/>
			</g>
			<g id="shape52-71" v:mID="52" v:groupContext="shape" transform="translate(182.75,164.75) rotate(90)">
				<title>Sheet.52</title>
				<path d="M0 171.95 L7.2 171.95" class="st2"/>
			</g>
		</g>
		<g id="group53-74" transform="translate(276.725,135.575) rotate(90)" v:mID="53" v:groupContext="group">
			<title>Sheet.53</title>
			<g id="shape54-75" v:mID="54" v:groupContext="shape" transform="translate(0,-12.24)">
				<title>Sheet.54</title>
				<rect x="0" y="169.79" width="21.6" height="2.16003" class="st1"/>
			</g>
			<g id="shape55-77" v:mID="55" v:groupContext="shape" transform="translate(0,-7.20001)">
				<title>Sheet.55</title>
				<rect x="0" y="169.79" width="21.6" height="2.16003" class="st1"/>
			</g>
			<g id="shape56-79" v:mID="56" v:groupContext="shape" transform="translate(-161.15,157.55) rotate(-90)">
				<title>Sheet.56</title>
				<path d="M0 171.95 L7.2 171.95" class="st2"/>
			</g>
			<g id="shape57-82" v:mID="57" v:groupContext="shape" transform="translate(182.75,164.75) rotate(90)">
				<title>Sheet.57</title>
				<path d="M0 171.95 L7.2 171.95" class="st2"/>
			</g>
		</g>
		<g id="shape58-85" v:mID="58" v:groupContext="shape" transform="translate(83.175,-151.575)">
			<title>Sheet.58</title>
			<path d="M0 171.95 L21.6 171.95" class="st2"/>
		</g>
		<g id="shape59-88" v:mID="59" v:groupContext="shape" transform="translate(-81.575,27.575) rotate(-90)">
			<title>Sheet.59</title>
			<path d="M0 171.95 L7.2 171.95" class="st2"/>
		</g>
		<g id="shape60-91" v:mID="60" v:groupContext="shape" transform="translate(126.375,-144.375)">
			<title>Sheet.60</title>
			<path d="M0 164.75 L14.4 164.75 L14.4 171.95" class="st2"/>
		</g>
		<g id="shape61-94" v:mID="61" v:groupContext="shape" transform="translate(126.375,-101.175)">
			<title>Sheet.61</title>
			<path d="M0 171.95 L14.4 171.95" class="st2"/>
		</g>
		<g id="shape62-97" v:mID="62" v:groupContext="shape" transform="translate(140.775,-93.975)">
			<title>Sheet.62</title>
			<path d="M0 171.95 L0 164.75 L0 157.55" class="st2"/>
		</g>
		<g id="shape63-100" v:mID="63" v:groupContext="shape" transform="translate(90.375,-101.175)">
			<title>Sheet.63</title>
			<path d="M0 164.75 L0 171.95 L14.4 171.95" class="st2"/>
		</g>
		<g id="shape64-103" v:mID="64" v:groupContext="shape" transform="translate(90.375,-25.575)">
			<title>Sheet.64</title>
			<path d="M14.4 171.95 L0 171.95 L0 96.35" class="st2"/>
		</g>
		<g id="shape65-106" v:mID="65" v:groupContext="shape" transform="translate(312.725,164.375) rotate(90)">
			<title>Sheet.65</title>
			<path d="M0 171.95 L7.2 171.95" class="st2"/>
		</g>
		<g id="shape66-109" v:mID="66" v:groupContext="shape" transform="translate(126.375,-25.575)">
			<title>Sheet.66</title>
			<path d="M0 171.95 L5.08 171.95" class="st3"/>
		</g>
		<g id="shape67-115" v:mID="67" v:groupContext="shape" transform="translate(-31.175,128.375) rotate(-90)">
			<title>Sheet.67</title>
			<path d="M0 171.95 L14.4 171.95" class="st2"/>
		</g>
		<g id="shape69-118" v:mID="69" v:groupContext="shape" transform="translate(140.775,-75.975)">
			<title>Sheet.69</title>
			<path d="M0 146.75 L18 146.75 L18 171.95 L9.32 171.95" class="st3"/>
		</g>
		<g id="group71-123" transform="translate(22.825,113.975) rotate(-90)" v:mID="71" v:groupContext="group">
			<title>Sheet.71</title>
			<g id="shape72-124" v:mID="72" v:groupContext="shape" transform="translate(7.2,0)">
				<title>Sheet.72</title>
				<rect x="0" y="164.75" width="21.6" height="7.2" class="st1"/>
			</g>
			<g id="shape73-126" v:mID="73" v:groupContext="shape" transform="translate(1.59872E-14,-3.6)">
				<title>Sheet.73</title>
				<path d="M0 171.95 L7.2 171.95" class="st2"/>
			</g>
			<g id="shape74-129" v:mID="74" v:groupContext="shape" transform="translate(28.8,-3.6)">
				<title>Sheet.74</title>
				<path d="M0 171.95 L7.2 171.95" class="st2"/>
			</g>
		</g>
		<g id="shape76-132" v:mID="76" v:groupContext="shape" transform="translate(144.375,-93.975)">
			<title>Sheet.76</title>
			<path d="M46.8 171.95 L46.8 139.55 L5.72 139.55" class="st3"/>
		</g>
		<g id="shape77-137" v:mID="77" v:groupContext="shape" transform="translate(363.125,113.975) rotate(90)">
			<title>Sheet.77</title>
			<path d="M0 171.95 L57.6 171.95" class="st2"/>
		</g>
		<g id="group78-140" transform="translate(0.375,-57.975)" v:mID="78" v:groupContext="group">
			<title>Sheet.78</title>
			<g id="shape79-141" v:mID="79" v:groupContext="shape" transform="translate(30.6,-9)">
				<title>Sheet.79</title>
				<ellipse cx="9" cy="162.95" rx="9" ry="9" class="st1"/>
			</g>
			<g id="shape80-143" v:mID="80" v:groupContext="shape" transform="translate(-132.35,159.35) rotate(-90)">
				<title>Sheet.80</title>
				<path d="M0 171.95 L5.08 171.95" class="st3"/>
			</g>
			<g id="shape81-148" v:mID="81" v:groupContext="shape" transform="translate(-132.35,144.952) rotate(-90)">
				<title>Sheet.81</title>
				<path d="M0 171.95 L9 171.95" class="st2"/>
			</g>
			<g id="shape82-151" v:mID="82" v:groupContext="shape" transform="translate(-132.35,171.95) rotate(-90)">
				<title>Sheet.82</title>
				<path d="M0 171.95 L9 171.95" class="st2"/>
			</g>
			<g id="shape83-154" v:mID="83" v:groupContext="shape" transform="translate(7.99361E-15,-9)">
				<title>Sheet.83</title>
				<desc>VIN</desc>
				<v:textBlock v:margins="rect(4,4,4,4)" v:tabSpace="42.5197"/>
				<v:textRect cx="14.4" cy="161.95" width="28.81" height="20"/>
				<rect x="0" y="151.95" width="28.8" height="20" class="st5"/>
				<text x="7.41" y="165.55" class="st6" v:langID="2057"><v:paragraph v:horizAlign="1"/><v:tabList/>V<tspan
							class="st7">IN</tspan></text>			</g>
		</g>
		<g id="shape84-158" v:mID="84" v:groupContext="shape" transform="translate(50.775,-151.575)">
			<title>Sheet.84</title>
			<desc>RS</desc>
			<v:textBlock v:margins="rect(4,4,4,4)" v:tabSpace="42.5197"/>
			<v:textRect cx="14.4" cy="161.95" width="28.81" height="20"/>
			<rect x="0" y="151.95" width="28.8" height="20" class="st5"/>
			<text x="9.3" y="165.55" class="st6" v:langID="2057"><v:paragraph v:horizAlign="1"/><v:tabList/>R<tspan class="st7">S</tspan></text>		</g>
		<g id="shape85-162" v:mID="85" v:groupContext="shape" transform="translate(187.764,-65.975)">
			<title>Sheet.85</title>
			<desc>RL</desc>
			<v:textBlock v:margins="rect(4,4,4,4)" v:tabSpace="42.5197"/>
			<v:textRect cx="14.4" cy="161.95" width="28.81" height="20"/>
			<rect x="0" y="151.95" width="28.8" height="20" class="st5"/>
			<text x="9.46" y="165.55" class="st6" v:langID="2057"><v:paragraph v:horizAlign="1"/><v:tabList/>R<tspan class="st7">L</tspan></text>		</g>
		<g id="shape90-166" v:mID="90" v:groupContext="shape" transform="translate(111.975,-65.975)">
			<title>Sheet.90</title>
			<desc>VR1</desc>
			<v:textBlock v:margins="rect(4,4,4,4)" v:tabSpace="42.5197"/>
			<v:textRect cx="14.4" cy="161.95" width="28.81" height="20"/>
			<rect x="0" y="151.95" width="28.8" height="20" class="st5"/>
			<text x="5.71" y="165.55" class="st6" v:langID="2057"><v:paragraph v:horizAlign="1"/><v:tabList/>VR<tspan class="st7">1</tspan></text>		</g>
		<g id="shape91-170" v:mID="91" v:groupContext="shape" transform="translate(65.175,-116.375)">
			<title>Sheet.91</title>
			<desc>R1</desc>
			<v:textBlock v:margins="rect(4,4,4,4)" v:tabSpace="42.5197"/>
			<v:textRect cx="14.4" cy="161.95" width="28.81" height="20"/>
			<rect x="0" y="151.95" width="28.8" height="20" class="st5"/>
			<text x="9.11" y="165.55" class="st6" v:langID="2057"><v:paragraph v:horizAlign="1"/><v:tabList/>R<tspan class="st7">1</tspan></text>		</g>
		<g id="shape92-174" v:mID="92" v:groupContext="shape" transform="translate(88.4803,-151.575)">
			<title>Sheet.92</title>
			<desc>C1</desc>
			<v:textBlock v:margins="rect(4,4,4,4)" v:tabSpace="42.5197"/>
			<v:textRect cx="14.4" cy="161.95" width="28.81" height="20"/>
			<rect x="0" y="151.95" width="28.8" height="20" class="st5"/>
			<text x="9.17" y="165.55" class="st6" v:langID="2057"><v:paragraph v:horizAlign="1"/><v:tabList/>C<tspan class="st7">1</tspan></text>		</g>
		<g id="shape93-178" v:mID="93" v:groupContext="shape" transform="translate(88.935,-81.175)">
			<title>Sheet.93</title>
			<desc>C2</desc>
			<v:textBlock v:margins="rect(4,4,4,4)" v:tabSpace="42.5197"/>
			<v:textRect cx="14.4" cy="161.95" width="28.81" height="20"/>
			<rect x="0" y="151.95" width="28.8" height="20" class="st5"/>
			<text x="9.17" y="165.55" class="st6" v:langID="2057"><v:paragraph v:horizAlign="1"/><v:tabList/>C<tspan class="st7">2</tspan></text>		</g>
		<g id="shape94-182" v:mID="94" v:groupContext="shape" transform="translate(140.775,-15.575)">
			<title>Sheet.94</title>
			<desc>VR2</desc>
			<v:textBlock v:margins="rect(4,4,4,4)" v:tabSpace="42.5197"/>
			<v:textRect cx="14.4" cy="161.95" width="28.81" height="20"/>
			<rect x="0" y="151.95" width="28.8" height="20" class="st5"/>
			<text x="5.71" y="165.55" class="st6" v:langID="2057"><v:paragraph v:horizAlign="1"/><v:tabList/>VR<tspan class="st7">2</tspan></text>		</g>
		<g id="shape95-186" v:mID="95" v:groupContext="shape" transform="translate(111.975,-116.375)">
			<title>Sheet.95</title>
			<desc>VR3</desc>
			<v:textBlock v:margins="rect(4,4,4,4)" v:tabSpace="42.5197"/>
			<v:textRect cx="14.4" cy="161.95" width="28.81" height="20"/>
			<rect x="0" y="151.95" width="28.8" height="20" class="st5"/>
			<text x="5.71" y="165.55" class="st6" v:langID="2057"><v:paragraph v:horizAlign="1"/><v:tabList/>VR<tspan class="st7">3</tspan></text>		</g>
		<g id="shape96-190" v:mID="96" v:groupContext="shape" transform="translate(88.935,-25.575)">
			<title>Sheet.96</title>
			<desc>C3</desc>
			<v:textBlock v:margins="rect(4,4,4,4)" v:tabSpace="42.5197"/>
			<v:textRect cx="14.4" cy="161.95" width="28.81" height="20"/>
			<rect x="0" y="151.95" width="28.8" height="20" class="st5"/>
			<text x="9.17" y="165.55" class="st6" v:langID="2057"><v:paragraph v:horizAlign="1"/><v:tabList/>C<tspan class="st7">3</tspan></text>		</g>
		<g id="shape97-194" v:mID="97" v:groupContext="shape" transform="translate(140.775,-124.375)">
			<title>Sheet.97</title>
			<desc>cw</desc>
			<v:textBlock v:margins="rect(4,4,4,4)" v:tabSpace="42.5197"/>
			<v:textRect cx="10.8" cy="161.95" width="21.61" height="20"/>
			<rect x="0" y="151.95" width="21.6" height="20" class="st5"/>
			<text x="6.25" y="164.35" class="st8" v:langID="2057"><v:paragraph v:horizAlign="1"/><v:tabList/>cw</text>		</g>
		<g id="shape98-197" v:mID="98" v:groupContext="shape" transform="translate(140.775,-73.975)">
			<title>Sheet.98</title>
			<desc>cw</desc>
			<v:textBlock v:margins="rect(4,4,4,4)" v:tabSpace="42.5197"/>
			<v:textRect cx="10.8" cy="161.95" width="21.61" height="20"/>
			<rect x="0" y="151.95" width="21.6" height="20" class="st5"/>
			<text x="6.25" y="164.35" class="st8" v:langID="2057"><v:paragraph v:horizAlign="1"/><v:tabList/>cw</text>		</g>
		<g id="shape99-200" v:mID="99" v:groupContext="shape" transform="translate(119.175,-23.575)">
			<title>Sheet.99</title>
			<desc>cw</desc>
			<v:textBlock v:margins="rect(4,4,4,4)" v:tabSpace="42.5197"/>
			<v:textRect cx="10.8" cy="161.95" width="21.61" height="20"/>
			<rect x="0" y="151.95" width="21.6" height="20" class="st5"/>
			<text x="6.25" y="164.35" class="st8" v:langID="2057"><v:paragraph v:horizAlign="1"/><v:tabList/>cw</text>		</g>
	</g>
</svg>
