<?xml version="1.0" encoding="UTF-8" standalone="no"?>
<!DOCTYPE svg PUBLIC "-//W3C//DTD SVG 1.1//EN" "http://www.w3.org/Graphics/SVG/1.1/DTD/svg11.dtd">
<!-- Generated by Microsoft Visio, SVG Export voigt.svg Page-1 -->
<svg xmlns="http://www.w3.org/2000/svg" xmlns:xlink="http://www.w3.org/1999/xlink" xmlns:ev="http://www.w3.org/2001/xml-events"
		xmlns:v="http://schemas.microsoft.com/visio/2003/SVGExtensions/" width="3.56042in" height="2.38819in"
		viewBox="0 0 256.35 171.95" xml:space="preserve" color-interpolation-filters="sRGB" class="st10">
	<v:documentProperties v:langID="2057" v:metric="true" v:viewMarkup="false"/>

	<style type="text/css">
	<![CDATA[
		.st1 {fill:#ffffff;stroke:#000000;stroke-linecap:round;stroke-linejoin:round;stroke-width:0.75}
		.st2 {stroke:#000000;stroke-linecap:round;stroke-linejoin:round;stroke-width:0.75}
		.st3 {marker-start:url(#mrkr5-81);stroke:#000000;stroke-linecap:round;stroke-linejoin:round;stroke-width:0.75}
		.st4 {fill:#000000;fill-opacity:1;stroke:#000000;stroke-opacity:1;stroke-width:0.22935779816514}
		.st5 {marker-end:url(#mrkr5-121);stroke:#000000;stroke-linecap:round;stroke-linejoin:round;stroke-width:0.75}
		.st6 {fill:none;stroke:none;stroke-linecap:round;stroke-linejoin:round;stroke-width:0.75}
		.st7 {fill:#000000;font-family:Calibri;font-size:1.00001em}
		.st8 {font-size:0.666659em}
		.st9 {fill:#000000;font-family:Calibri;font-size:0.666664em}
		.st10 {fill:none;fill-rule:evenodd;font-size:12px;overflow:visible;stroke-linecap:square;stroke-miterlimit:3}
	]]>
	</style>

	<defs id="Markers">
		<g id="lend5">
			<path d="M 2 1 L 0 0 L 1.98117 -0.993387 C 1.67173 -0.364515 1.67301 0.372641 1.98465 1.00043 " style="stroke:none"/>
		</g>
		<marker id="mrkr5-81" class="st4" v:arrowType="5" v:arrowSize="2" v:setback="7.15" refX="7.15" orient="auto"
				markerUnits="strokeWidth" overflow="visible">
			<use xlink:href="#lend5" transform="scale(4.36) "/>
		</marker>
		<marker id="mrkr5-121" class="st4" v:arrowType="5" v:arrowSize="2" v:setback="7.63" refX="-7.63" orient="auto"
				markerUnits="strokeWidth" overflow="visible">
			<use xlink:href="#lend5" transform="scale(-4.36,-4.36) "/>
		</marker>
	</defs>
	<g v:mID="0" v:index="1" v:groupContext="foregroundPage">
		<title>Page-1</title>
		<v:pageProperties v:drawingScale="1" v:pageScale="1" v:drawingUnits="0" v:shadowOffsetX="8.50394"
				v:shadowOffsetY="-8.50394"/>
		<g id="group18-1" transform="translate(47.175,-147.975)" v:mID="18" v:groupContext="group">
			<title>Sheet.18</title>
			<g id="shape19-2" v:mID="19" v:groupContext="shape" transform="translate(7.2,2.84217E-14)">
				<title>Sheet.19</title>
				<rect x="0" y="164.75" width="21.6" height="7.2" class="st1"/>
			</g>
			<g id="shape20-4" v:mID="20" v:groupContext="shape" transform="translate(1.59872E-14,-3.6)">
				<title>Sheet.20</title>
				<path d="M0 171.95 L7.2 171.95" class="st2"/>
			</g>
			<g id="shape21-7" v:mID="21" v:groupContext="shape" transform="translate(28.8,-3.6)">
				<title>Sheet.21</title>
				<path d="M0 171.95 L7.2 171.95" class="st2"/>
			</g>
		</g>
		<g id="shape25-10" v:mID="25" v:groupContext="shape" transform="translate(39.975,-93.975)">
			<title>Sheet.25</title>
			<path d="M0 171.95 L0 114.35 L7.2 114.35" class="st2"/>
		</g>
		<g id="shape26-13" v:mID="26" v:groupContext="shape" transform="translate(39.975,-0.375)">
			<title>Sheet.26</title>
			<path d="M0 114.35 L0 171.95 L190.8 171.95" class="st2"/>
		</g>
		<g id="group31-16" transform="translate(12.025,113.975) rotate(-90)" v:mID="31" v:groupContext="group">
			<title>Sheet.31</title>
			<g id="shape32-17" v:mID="32" v:groupContext="shape" transform="translate(7.2,2.84217E-14)">
				<title>Sheet.32</title>
				<rect x="0" y="164.75" width="21.6" height="7.2" class="st1"/>
			</g>
			<g id="shape33-19" v:mID="33" v:groupContext="shape" transform="translate(1.59872E-14,-3.6)">
				<title>Sheet.33</title>
				<path d="M0 171.95 L7.2 171.95" class="st2"/>
			</g>
			<g id="shape34-22" v:mID="34" v:groupContext="shape" transform="translate(28.8,-3.6)">
				<title>Sheet.34</title>
				<path d="M0 171.95 L7.2 171.95" class="st2"/>
			</g>
		</g>
		<g id="group39-25" transform="translate(-77.975,63.575) rotate(-90)" v:mID="39" v:groupContext="group">
			<title>Sheet.39</title>
			<g id="shape40-26" v:mID="40" v:groupContext="shape" transform="translate(7.2,2.84217E-14)">
				<title>Sheet.40</title>
				<rect x="0" y="164.75" width="21.6" height="7.2" class="st1"/>
			</g>
			<g id="shape41-28" v:mID="41" v:groupContext="shape" transform="translate(1.59872E-14,-3.6)">
				<title>Sheet.41</title>
				<path d="M0 171.95 L7.2 171.95" class="st2"/>
			</g>
			<g id="shape42-31" v:mID="42" v:groupContext="shape" transform="translate(28.8,-3.6)">
				<title>Sheet.42</title>
				<path d="M0 171.95 L7.2 171.95" class="st2"/>
			</g>
		</g>
		<g id="shape58-34" v:mID="58" v:groupContext="shape" transform="translate(83.175,-151.575)">
			<title>Sheet.58</title>
			<path d="M0 171.95 L21.6 171.95" class="st2"/>
		</g>
		<g id="shape59-37" v:mID="59" v:groupContext="shape" transform="translate(-81.575,27.575) rotate(-90)">
			<title>Sheet.59</title>
			<path d="M0 171.95 L7.2 171.95" class="st2"/>
		</g>
		<g id="shape60-40" v:mID="60" v:groupContext="shape" transform="translate(104.775,-137.175)">
			<title>Sheet.60</title>
			<path d="M0 157.55 L75.6 157.55 L75.6 171.95" class="st2"/>
		</g>
		<g id="shape62-43" v:mID="62" v:groupContext="shape" transform="translate(180.375,-93.975)">
			<title>Sheet.62</title>
			<path d="M0 171.95 L0 161.15 L0 150.35" class="st2"/>
		</g>
		<g id="shape65-46" v:mID="65" v:groupContext="shape" transform="translate(352.325,157.175) rotate(90)">
			<title>Sheet.65</title>
			<path d="M0 171.95 L14.4 171.95" class="st2"/>
		</g>
		<g id="shape67-49" v:mID="67" v:groupContext="shape" transform="translate(8.425,135.575) rotate(-90)">
			<title>Sheet.67</title>
			<path d="M0 171.95 L21.6 171.95" class="st2"/>
		</g>
		<g id="group71-52" transform="translate(119.175,-97.575)" v:mID="71" v:groupContext="group">
			<title>Sheet.71</title>
			<g id="shape72-53" v:mID="72" v:groupContext="shape" transform="translate(7.2,2.84217E-14)">
				<title>Sheet.72</title>
				<rect x="0" y="164.75" width="21.6" height="7.2" class="st1"/>
			</g>
			<g id="shape73-55" v:mID="73" v:groupContext="shape" transform="translate(1.59872E-14,-3.6)">
				<title>Sheet.73</title>
				<path d="M0 171.95 L7.2 171.95" class="st2"/>
			</g>
			<g id="shape74-58" v:mID="74" v:groupContext="shape" transform="translate(28.8,-3.6)">
				<title>Sheet.74</title>
				<path d="M0 171.95 L7.2 171.95" class="st2"/>
			</g>
		</g>
		<g id="group78-61" transform="translate(-77.975,113.975) rotate(-90)" v:mID="78" v:groupContext="group">
			<title>Sheet.78</title>
			<g id="shape79-62" v:mID="79" v:groupContext="shape" transform="translate(7.2,2.84217E-14)">
				<title>Sheet.79</title>
				<rect x="0" y="164.75" width="21.6" height="7.2" class="st1"/>
			</g>
			<g id="shape80-64" v:mID="80" v:groupContext="shape" transform="translate(1.59872E-14,-3.6)">
				<title>Sheet.80</title>
				<path d="M0 171.95 L7.2 171.95" class="st2"/>
			</g>
			<g id="shape81-67" v:mID="81" v:groupContext="shape" transform="translate(28.8,-3.6)">
				<title>Sheet.81</title>
				<path d="M0 171.95 L7.2 171.95" class="st2"/>
			</g>
		</g>
		<g id="shape86-70" v:mID="86" v:groupContext="shape" transform="translate(262.325,63.575) rotate(90)">
			<title>Sheet.86</title>
			<path d="M0 171.95 L14.4 171.95" class="st2"/>
		</g>
		<g id="shape87-73" v:mID="87" v:groupContext="shape" transform="translate(262.325,113.975) rotate(90)">
			<title>Sheet.87</title>
			<path d="M0 171.95 L57.6 171.95" class="st2"/>
		</g>
		<g id="shape89-76" v:mID="89" v:groupContext="shape" transform="translate(93.975,-75.975)">
			<title>Sheet.89</title>
			<path d="M5.36 171.95 L5.72 171.95 L18 171.95" class="st3"/>
		</g>
		<g id="group100-82" transform="translate(169.575,-115.575)" v:mID="100" v:groupContext="group">
			<title>Sheet.100</title>
			<g id="shape101-83" v:mID="101" v:groupContext="shape" transform="translate(0,-12.24)">
				<title>Sheet.101</title>
				<rect x="0" y="169.79" width="21.6" height="2.16003" class="st1"/>
			</g>
			<g id="shape102-85" v:mID="102" v:groupContext="shape" transform="translate(0,-7.20001)">
				<title>Sheet.102</title>
				<rect x="0" y="169.79" width="21.6" height="2.16003" class="st1"/>
			</g>
			<g id="shape103-87" v:mID="103" v:groupContext="shape" transform="translate(-161.15,157.55) rotate(-90)">
				<title>Sheet.103</title>
				<path d="M0 171.95 L7.2 171.95" class="st2"/>
			</g>
			<g id="shape104-90" v:mID="104" v:groupContext="shape" transform="translate(182.75,164.75) rotate(90)">
				<title>Sheet.104</title>
				<path d="M0 171.95 L7.2 171.95" class="st2"/>
			</g>
		</g>
		<g id="group105-93" transform="translate(169.575,-14.775)" v:mID="105" v:groupContext="group">
			<title>Sheet.105</title>
			<g id="shape106-94" v:mID="106" v:groupContext="shape" transform="translate(0,-12.24)">
				<title>Sheet.106</title>
				<rect x="0" y="169.79" width="21.6" height="2.16003" class="st1"/>
			</g>
			<g id="shape107-96" v:mID="107" v:groupContext="shape" transform="translate(0,-7.20001)">
				<title>Sheet.107</title>
				<rect x="0" y="169.79" width="21.6" height="2.16003" class="st1"/>
			</g>
			<g id="shape108-98" v:mID="108" v:groupContext="shape" transform="translate(-161.15,157.55) rotate(-90)">
				<title>Sheet.108</title>
				<path d="M0 171.95 L7.2 171.95" class="st2"/>
			</g>
			<g id="shape109-101" v:mID="109" v:groupContext="shape" transform="translate(182.75,164.75) rotate(90)">
				<title>Sheet.109</title>
				<path d="M0 171.95 L7.2 171.95" class="st2"/>
			</g>
		</g>
		<g id="group110-104" transform="translate(62.425,153.575) rotate(-90)" v:mID="110" v:groupContext="group">
			<title>Sheet.110</title>
			<g id="shape111-105" v:mID="111" v:groupContext="shape" transform="translate(7.2,2.84217E-14)">
				<title>Sheet.111</title>
				<rect x="0" y="164.75" width="21.6" height="7.2" class="st1"/>
			</g>
			<g id="shape112-107" v:mID="112" v:groupContext="shape" transform="translate(1.59872E-14,-3.6)">
				<title>Sheet.112</title>
				<path d="M0 171.95 L7.2 171.95" class="st2"/>
			</g>
			<g id="shape113-110" v:mID="113" v:groupContext="shape" transform="translate(28.8,-3.6)">
				<title>Sheet.113</title>
				<path d="M0 171.95 L7.2 171.95" class="st2"/>
			</g>
		</g>
		<g id="shape114-113" v:mID="114" v:groupContext="shape" transform="translate(402.725,153.575) rotate(90)">
			<title>Sheet.114</title>
			<path d="M0 171.95 L18 171.95" class="st2"/>
		</g>
		<g id="shape115-116" v:mID="115" v:groupContext="shape" transform="translate(183.975,-54.375)">
			<title>Sheet.115</title>
			<path d="M46.8 171.95 L46.8 150.35 L5.72 150.35" class="st5"/>
		</g>
		<g id="group122-122" transform="translate(0.375,-57.975)" v:mID="122" v:groupContext="group">
			<title>Sheet.122</title>
			<g id="shape123-123" v:mID="123" v:groupContext="shape" transform="translate(30.6,-9)">
				<title>Sheet.123</title>
				<ellipse cx="9" cy="162.95" rx="9" ry="9" class="st1"/>
			</g>
			<g id="shape124-125" v:mID="124" v:groupContext="shape" transform="translate(-132.35,159.35) rotate(-90)">
				<title>Sheet.124</title>
				<path d="M0 171.95 L5.08 171.95" class="st5"/>
			</g>
			<g id="shape125-130" v:mID="125" v:groupContext="shape" transform="translate(-132.35,144.952) rotate(-90)">
				<title>Sheet.125</title>
				<path d="M0 171.95 L9 171.95" class="st2"/>
			</g>
			<g id="shape126-133" v:mID="126" v:groupContext="shape" transform="translate(-132.35,171.95) rotate(-90)">
				<title>Sheet.126</title>
				<path d="M0 171.95 L9 171.95" class="st2"/>
			</g>
			<g id="shape127-136" v:mID="127" v:groupContext="shape" transform="translate(7.99361E-15,-9)">
				<title>Sheet.127</title>
				<desc>VIN</desc>
				<v:textBlock v:margins="rect(4,4,4,4)" v:tabSpace="42.5197"/>
				<v:textRect cx="14.4" cy="161.95" width="28.81" height="20"/>
				<rect x="0" y="151.95" width="28.8" height="20" class="st6"/>
				<text x="7.41" y="165.55" class="st7" v:langID="2057"><v:paragraph v:horizAlign="1"/><v:tabList/>V<tspan
							class="st8">IN</tspan></text>			</g>
		</g>
		<g id="shape128-140" v:mID="128" v:groupContext="shape" transform="translate(50.775,-151.575)">
			<title>Sheet.128</title>
			<desc>RS</desc>
			<v:textBlock v:margins="rect(4,4,4,4)" v:tabSpace="42.5197"/>
			<v:textRect cx="14.4" cy="161.95" width="28.81" height="20"/>
			<rect x="0" y="151.95" width="28.8" height="20" class="st6"/>
			<text x="9.3" y="165.55" class="st7" v:langID="2057"><v:paragraph v:horizAlign="1"/><v:tabList/>R<tspan class="st8">S</tspan></text>		</g>
		<g id="shape129-144" v:mID="129" v:groupContext="shape" transform="translate(227.175,-26.375)">
			<title>Sheet.129</title>
			<desc>RL</desc>
			<v:textBlock v:margins="rect(4,4,4,4)" v:tabSpace="42.5197"/>
			<v:textRect cx="14.4" cy="161.95" width="28.81" height="20"/>
			<rect x="0" y="151.95" width="28.8" height="20" class="st6"/>
			<text x="9.46" y="165.55" class="st7" v:langID="2057"><v:paragraph v:horizAlign="1"/><v:tabList/>R<tspan class="st8">L</tspan></text>		</g>
		<g id="shape130-148" v:mID="130" v:groupContext="shape" transform="translate(61.575,-65.975)">
			<title>Sheet.130</title>
			<desc>VR1</desc>
			<v:textBlock v:margins="rect(4,4,4,4)" v:tabSpace="42.5197"/>
			<v:textRect cx="14.4" cy="161.95" width="28.81" height="20"/>
			<rect x="0" y="151.95" width="28.8" height="20" class="st6"/>
			<text x="5.71" y="165.55" class="st7" v:langID="2057"><v:paragraph v:horizAlign="1"/><v:tabList/>VR<tspan class="st8">1</tspan></text>		</g>
		<g id="shape131-152" v:mID="131" v:groupContext="shape" transform="translate(65.175,-116.375)">
			<title>Sheet.131</title>
			<desc>R1</desc>
			<v:textBlock v:margins="rect(4,4,4,4)" v:tabSpace="42.5197"/>
			<v:textRect cx="14.4" cy="161.95" width="28.81" height="20"/>
			<rect x="0" y="151.95" width="28.8" height="20" class="st6"/>
			<text x="9.11" y="165.55" class="st7" v:langID="2057"><v:paragraph v:horizAlign="1"/><v:tabList/>R<tspan class="st8">1</tspan></text>		</g>
		<g id="shape134-156" v:mID="134" v:groupContext="shape" transform="translate(151.575,-65.975)">
			<title>Sheet.134</title>
			<desc>VR2</desc>
			<v:textBlock v:margins="rect(4,4,4,4)" v:tabSpace="42.5197"/>
			<v:textRect cx="14.4" cy="161.95" width="28.81" height="20"/>
			<rect x="0" y="151.95" width="28.8" height="20" class="st6"/>
			<text x="5.71" y="165.55" class="st7" v:langID="2057"><v:paragraph v:horizAlign="1"/><v:tabList/>VR<tspan class="st8">2</tspan></text>		</g>
		<g id="shape136-160" v:mID="136" v:groupContext="shape" transform="translate(122.775,-101.175)">
			<title>Sheet.136</title>
			<desc>R2</desc>
			<v:textBlock v:margins="rect(4,4,4,4)" v:tabSpace="42.5197"/>
			<v:textRect cx="14.4" cy="161.95" width="28.81" height="20"/>
			<rect x="0" y="151.95" width="28.8" height="20" class="st6"/>
			<text x="9.11" y="165.55" class="st7" v:langID="2057"><v:paragraph v:horizAlign="1"/><v:tabList/>R<tspan class="st8">2</tspan></text>		</g>
		<g id="shape137-164" v:mID="137" v:groupContext="shape" transform="translate(155.175,-25.575)">
			<title>Sheet.137</title>
			<desc>C2</desc>
			<v:textBlock v:margins="rect(4,4,4,4)" v:tabSpace="42.5197"/>
			<v:textRect cx="14.4" cy="161.95" width="28.81" height="20"/>
			<rect x="0" y="151.95" width="28.8" height="20" class="st6"/>
			<text x="9.17" y="165.55" class="st7" v:langID="2057"><v:paragraph v:horizAlign="1"/><v:tabList/>C<tspan class="st8">2</tspan></text>		</g>
		<g id="shape138-168" v:mID="138" v:groupContext="shape" transform="translate(155.175,-105.655)">
			<title>Sheet.138</title>
			<desc>C1</desc>
			<v:textBlock v:margins="rect(4,4,4,4)" v:tabSpace="42.5197"/>
			<v:textRect cx="14.4" cy="161.95" width="28.81" height="20"/>
			<rect x="0" y="151.95" width="28.8" height="20" class="st6"/>
			<text x="9.17" y="165.55" class="st7" v:langID="2057"><v:paragraph v:horizAlign="1"/><v:tabList/>C<tspan class="st8">1</tspan></text>		</g>
		<g id="shape139-172" v:mID="139" v:groupContext="shape" transform="translate(90.375,-73.975)">
			<title>Sheet.139</title>
			<desc>cw</desc>
			<v:textBlock v:margins="rect(4,4,4,4)" v:tabSpace="42.5197"/>
			<v:textRect cx="10.8" cy="161.95" width="21.61" height="20"/>
			<rect x="0" y="151.95" width="21.6" height="20" class="st6"/>
			<text x="6.25" y="164.35" class="st9" v:langID="2057"><v:paragraph v:horizAlign="1"/><v:tabList/>cw</text>		</g>
		<g id="shape140-175" v:mID="140" v:groupContext="shape" transform="translate(180.375,-73.975)">
			<title>Sheet.140</title>
			<desc>cw</desc>
			<v:textBlock v:margins="rect(4,4,4,4)" v:tabSpace="42.5197"/>
			<v:textRect cx="10.8" cy="161.95" width="21.61" height="20"/>
			<rect x="0" y="151.95" width="21.6" height="20" class="st6"/>
			<text x="6.25" y="164.35" class="st9" v:langID="2057"><v:paragraph v:horizAlign="1"/><v:tabList/>cw</text>		</g>
		<g id="group141-178" transform="translate(119.175,-47.175)" v:mID="141" v:groupContext="group">
			<title>Sheet.141</title>
			<g id="shape142-179" v:mID="142" v:groupContext="shape" transform="translate(7.2,2.84217E-14)">
				<title>Sheet.142</title>
				<rect x="0" y="164.75" width="21.6" height="7.2" class="st1"/>
			</g>
			<g id="shape143-181" v:mID="143" v:groupContext="shape" transform="translate(1.59872E-14,-3.6)">
				<title>Sheet.143</title>
				<path d="M0 171.95 L7.2 171.95" class="st2"/>
			</g>
			<g id="shape144-184" v:mID="144" v:groupContext="shape" transform="translate(28.8,-3.6)">
				<title>Sheet.144</title>
				<path d="M0 171.95 L7.2 171.95" class="st2"/>
			</g>
		</g>
		<g id="shape145-187" v:mID="145" v:groupContext="shape" transform="translate(122.775,-50.775)">
			<title>Sheet.145</title>
			<desc>R3</desc>
			<v:textBlock v:margins="rect(4,4,4,4)" v:tabSpace="42.5197"/>
			<v:textRect cx="14.4" cy="161.95" width="28.81" height="20"/>
			<rect x="0" y="151.95" width="28.8" height="20" class="st6"/>
			<text x="9.11" y="165.55" class="st7" v:langID="2057"><v:paragraph v:horizAlign="1"/><v:tabList/>R<tspan class="st8">3</tspan></text>		</g>
		<g id="shape146-191" v:mID="146" v:groupContext="shape" transform="translate(155.175,-101.175)">
			<title>Sheet.146</title>
			<path d="M0 171.95 L25.2 171.95" class="st2"/>
		</g>
		<g id="shape147-194" v:mID="147" v:groupContext="shape" transform="translate(155.175,-50.775)">
			<title>Sheet.147</title>
			<path d="M0 171.95 L25.2 171.95" class="st2"/>
		</g>
		<g id="shape148-197" v:mID="148" v:groupContext="shape" transform="translate(111.975,-50.775)">
			<title>Sheet.148</title>
			<path d="M7.2 121.55 L0 121.55 L0 171.95 L7.2 171.95" class="st2"/>
		</g>
	</g>
</svg>
