<?xml version="1.0" encoding="UTF-8" standalone="no"?>
<!DOCTYPE svg PUBLIC "-//W3C//DTD SVG 1.1//EN" "http://www.w3.org/Graphics/SVG/1.1/DTD/svg11.dtd">
<!-- Generated by Microsoft Visio, SVG Export vox.svg Page-1 -->
<svg xmlns="http://www.w3.org/2000/svg" xmlns:xlink="http://www.w3.org/1999/xlink" xmlns:ev="http://www.w3.org/2001/xml-events"
		xmlns:v="http://schemas.microsoft.com/visio/2003/SVGExtensions/" width="3.01042in" height="2.38819in"
		viewBox="0 0 216.75 171.95" xml:space="preserve" color-interpolation-filters="sRGB" class="st9">
	<v:documentProperties v:langID="2057" v:metric="true" v:viewMarkup="false"/>

	<style type="text/css">
	<![CDATA[
		.st1 {fill:#ffffff;stroke:#000000;stroke-linecap:round;stroke-linejoin:round;stroke-width:0.75}
		.st2 {stroke:#000000;stroke-linecap:round;stroke-linejoin:round;stroke-width:0.75}
		.st3 {marker-end:url(#mrkr5-108);stroke:#000000;stroke-linecap:round;stroke-linejoin:round;stroke-width:0.75}
		.st4 {fill:#000000;fill-opacity:1;stroke:#000000;stroke-opacity:1;stroke-width:0.22935779816514}
		.st5 {fill:none;stroke:none;stroke-linecap:round;stroke-linejoin:round;stroke-width:0.75}
		.st6 {fill:#000000;font-family:Calibri;font-size:1.00001em}
		.st7 {font-size:0.666659em}
		.st8 {fill:#000000;font-family:Calibri;font-size:0.666664em}
		.st9 {fill:none;fill-rule:evenodd;font-size:12px;overflow:visible;stroke-linecap:square;stroke-miterlimit:3}
	]]>
	</style>

	<defs id="Markers">
		<g id="lend5">
			<path d="M 2 1 L 0 0 L 1.98117 -0.993387 C 1.67173 -0.364515 1.67301 0.372641 1.98465 1.00043 " style="stroke:none"/>
		</g>
		<marker id="mrkr5-108" class="st4" v:arrowType="5" v:arrowSize="2" v:setback="7.63" refX="-7.63" orient="auto"
				markerUnits="strokeWidth" overflow="visible">
			<use xlink:href="#lend5" transform="scale(-4.36,-4.36) "/>
		</marker>
	</defs>
	<g v:mID="0" v:index="1" v:groupContext="foregroundPage">
		<title>Page-1</title>
		<v:pageProperties v:drawingScale="1" v:pageScale="1" v:drawingUnits="0" v:shadowOffsetX="8.50394"
				v:shadowOffsetY="-8.50394"/>
		<g id="group18-1" transform="translate(47.175,-147.975)" v:mID="18" v:groupContext="group">
			<title>Sheet.18</title>
			<g id="shape19-2" v:mID="19" v:groupContext="shape" transform="translate(7.2,0)">
				<title>Sheet.19</title>
				<rect x="0" y="164.75" width="21.6" height="7.2" class="st1"/>
			</g>
			<g id="shape20-4" v:mID="20" v:groupContext="shape" transform="translate(1.59872E-14,-3.6)">
				<title>Sheet.20</title>
				<path d="M0 171.95 L7.2 171.95" class="st2"/>
			</g>
			<g id="shape21-7" v:mID="21" v:groupContext="shape" transform="translate(28.8,-3.6)">
				<title>Sheet.21</title>
				<path d="M0 171.95 L7.2 171.95" class="st2"/>
			</g>
		</g>
		<g id="shape25-10" v:mID="25" v:groupContext="shape" transform="translate(39.975,-93.975)">
			<title>Sheet.25</title>
			<path d="M0 171.95 L0 114.35 L7.2 114.35" class="st2"/>
		</g>
		<g id="shape26-13" v:mID="26" v:groupContext="shape" transform="translate(39.975,-0.375)">
			<title>Sheet.26</title>
			<path d="M0 114.35 L0 171.95 L151.2 171.95" class="st2"/>
		</g>
		<g id="group27-16" transform="translate(-27.575,63.575) rotate(-90)" v:mID="27" v:groupContext="group">
			<title>Sheet.27</title>
			<g id="shape28-17" v:mID="28" v:groupContext="shape" transform="translate(7.2,0)">
				<title>Sheet.28</title>
				<rect x="0" y="164.75" width="21.6" height="7.2" class="st1"/>
			</g>
			<g id="shape29-19" v:mID="29" v:groupContext="shape" transform="translate(1.59872E-14,-3.6)">
				<title>Sheet.29</title>
				<path d="M0 171.95 L7.2 171.95" class="st2"/>
			</g>
			<g id="shape30-22" v:mID="30" v:groupContext="shape" transform="translate(28.8,-3.6)">
				<title>Sheet.30</title>
				<path d="M0 171.95 L7.2 171.95" class="st2"/>
			</g>
		</g>
		<g id="group35-25" transform="translate(-27.575,139.175) rotate(-90)" v:mID="35" v:groupContext="group">
			<title>Sheet.35</title>
			<g id="shape36-26" v:mID="36" v:groupContext="shape" transform="translate(7.2,0)">
				<title>Sheet.36</title>
				<rect x="0" y="164.75" width="21.6" height="7.2" class="st1"/>
			</g>
			<g id="shape37-28" v:mID="37" v:groupContext="shape" transform="translate(1.59872E-14,-3.6)">
				<title>Sheet.37</title>
				<path d="M0 171.95 L7.2 171.95" class="st2"/>
			</g>
			<g id="shape38-31" v:mID="38" v:groupContext="shape" transform="translate(28.8,-3.6)">
				<title>Sheet.38</title>
				<path d="M0 171.95 L7.2 171.95" class="st2"/>
			</g>
		</g>
		<g id="group39-34" transform="translate(-77.975,63.575) rotate(-90)" v:mID="39" v:groupContext="group">
			<title>Sheet.39</title>
			<g id="shape40-35" v:mID="40" v:groupContext="shape" transform="translate(7.2,0)">
				<title>Sheet.40</title>
				<rect x="0" y="164.75" width="21.6" height="7.2" class="st1"/>
			</g>
			<g id="shape41-37" v:mID="41" v:groupContext="shape" transform="translate(1.59872E-14,-3.6)">
				<title>Sheet.41</title>
				<path d="M0 171.95 L7.2 171.95" class="st2"/>
			</g>
			<g id="shape42-40" v:mID="42" v:groupContext="shape" transform="translate(28.8,-3.6)">
				<title>Sheet.42</title>
				<path d="M0 171.95 L7.2 171.95" class="st2"/>
			</g>
		</g>
		<g id="group43-43" transform="translate(276.725,9.575) rotate(90)" v:mID="43" v:groupContext="group">
			<title>Sheet.43</title>
			<g id="shape44-44" v:mID="44" v:groupContext="shape" transform="translate(0,-12.24)">
				<title>Sheet.44</title>
				<rect x="0" y="169.79" width="21.6" height="2.16003" class="st1"/>
			</g>
			<g id="shape45-46" v:mID="45" v:groupContext="shape" transform="translate(0,-7.20001)">
				<title>Sheet.45</title>
				<rect x="0" y="169.79" width="21.6" height="2.16003" class="st1"/>
			</g>
			<g id="shape46-48" v:mID="46" v:groupContext="shape" transform="translate(-161.15,157.55) rotate(-90)">
				<title>Sheet.46</title>
				<path d="M0 171.95 L7.2 171.95" class="st2"/>
			</g>
			<g id="shape47-51" v:mID="47" v:groupContext="shape" transform="translate(182.75,164.75) rotate(90)">
				<title>Sheet.47</title>
				<path d="M0 171.95 L7.2 171.95" class="st2"/>
			</g>
		</g>
		<g id="group48-54" transform="translate(276.725,59.975) rotate(90)" v:mID="48" v:groupContext="group">
			<title>Sheet.48</title>
			<g id="shape49-55" v:mID="49" v:groupContext="shape" transform="translate(0,-12.24)">
				<title>Sheet.49</title>
				<rect x="0" y="169.79" width="21.6" height="2.16003" class="st1"/>
			</g>
			<g id="shape50-57" v:mID="50" v:groupContext="shape" transform="translate(0,-7.20001)">
				<title>Sheet.50</title>
				<rect x="0" y="169.79" width="21.6" height="2.16003" class="st1"/>
			</g>
			<g id="shape51-59" v:mID="51" v:groupContext="shape" transform="translate(-161.15,157.55) rotate(-90)">
				<title>Sheet.51</title>
				<path d="M0 171.95 L7.2 171.95" class="st2"/>
			</g>
			<g id="shape52-62" v:mID="52" v:groupContext="shape" transform="translate(182.75,164.75) rotate(90)">
				<title>Sheet.52</title>
				<path d="M0 171.95 L7.2 171.95" class="st2"/>
			</g>
		</g>
		<g id="group53-65" transform="translate(79.575,-65.175)" v:mID="53" v:groupContext="group">
			<title>Sheet.53</title>
			<g id="shape54-66" v:mID="54" v:groupContext="shape" transform="translate(0,-12.24)">
				<title>Sheet.54</title>
				<rect x="0" y="169.79" width="21.6" height="2.16003" class="st1"/>
			</g>
			<g id="shape55-68" v:mID="55" v:groupContext="shape" transform="translate(0,-7.20001)">
				<title>Sheet.55</title>
				<rect x="0" y="169.79" width="21.6" height="2.16003" class="st1"/>
			</g>
			<g id="shape56-70" v:mID="56" v:groupContext="shape" transform="translate(-161.15,157.55) rotate(-90)">
				<title>Sheet.56</title>
				<path d="M0 171.95 L7.2 171.95" class="st2"/>
			</g>
			<g id="shape57-73" v:mID="57" v:groupContext="shape" transform="translate(182.75,164.75) rotate(90)">
				<title>Sheet.57</title>
				<path d="M0 171.95 L7.2 171.95" class="st2"/>
			</g>
		</g>
		<g id="shape58-76" v:mID="58" v:groupContext="shape" transform="translate(83.175,-151.575)">
			<title>Sheet.58</title>
			<path d="M0 171.95 L21.6 171.95" class="st2"/>
		</g>
		<g id="shape59-79" v:mID="59" v:groupContext="shape" transform="translate(-81.575,27.575) rotate(-90)">
			<title>Sheet.59</title>
			<path d="M0 171.95 L7.2 171.95" class="st2"/>
		</g>
		<g id="shape60-82" v:mID="60" v:groupContext="shape" transform="translate(126.375,-144.375)">
			<title>Sheet.60</title>
			<path d="M0 164.75 L14.4 164.75 L14.4 171.95" class="st2"/>
		</g>
		<g id="shape61-85" v:mID="61" v:groupContext="shape" transform="translate(126.375,-101.175)">
			<title>Sheet.61</title>
			<path d="M0 171.95 L14.4 171.95" class="st2"/>
		</g>
		<g id="shape63-88" v:mID="63" v:groupContext="shape" transform="translate(90.375,-101.175)">
			<title>Sheet.63</title>
			<path d="M0 164.75 L0 171.95 L14.4 171.95" class="st2"/>
		</g>
		<g id="shape65-91" v:mID="65" v:groupContext="shape" transform="translate(312.725,139.175) rotate(90)">
			<title>Sheet.65</title>
			<path d="M0 171.95 L32.4 171.95" class="st2"/>
		</g>
		<g id="group71-94" transform="translate(22.825,113.975) rotate(-90)" v:mID="71" v:groupContext="group">
			<title>Sheet.71</title>
			<g id="shape72-95" v:mID="72" v:groupContext="shape" transform="translate(7.2,0)">
				<title>Sheet.72</title>
				<rect x="0" y="164.75" width="21.6" height="7.2" class="st1"/>
			</g>
			<g id="shape73-97" v:mID="73" v:groupContext="shape" transform="translate(1.59872E-14,-3.6)">
				<title>Sheet.73</title>
				<path d="M0 171.95 L7.2 171.95" class="st2"/>
			</g>
			<g id="shape74-100" v:mID="74" v:groupContext="shape" transform="translate(28.8,-3.6)">
				<title>Sheet.74</title>
				<path d="M0 171.95 L7.2 171.95" class="st2"/>
			</g>
		</g>
		<g id="shape76-103" v:mID="76" v:groupContext="shape" transform="translate(144.375,-93.975)">
			<title>Sheet.76</title>
			<path d="M46.8 171.95 L46.8 139.55 L5.72 139.55" class="st3"/>
		</g>
		<g id="shape77-109" v:mID="77" v:groupContext="shape" transform="translate(363.125,113.975) rotate(90)">
			<title>Sheet.77</title>
			<path d="M0 171.95 L57.6 171.95" class="st2"/>
		</g>
		<g id="group78-112" transform="translate(-77.975,164.375) rotate(-90)" v:mID="78" v:groupContext="group">
			<title>Sheet.78</title>
			<g id="shape79-113" v:mID="79" v:groupContext="shape" transform="translate(7.2,0)">
				<title>Sheet.79</title>
				<rect x="0" y="164.75" width="21.6" height="7.2" class="st1"/>
			</g>
			<g id="shape80-115" v:mID="80" v:groupContext="shape" transform="translate(1.59872E-14,-3.6)">
				<title>Sheet.80</title>
				<path d="M0 171.95 L7.2 171.95" class="st2"/>
			</g>
			<g id="shape81-118" v:mID="81" v:groupContext="shape" transform="translate(28.8,-3.6)">
				<title>Sheet.81</title>
				<path d="M0 171.95 L7.2 171.95" class="st2"/>
			</g>
		</g>
		<g id="shape82-121" v:mID="82" v:groupContext="shape" transform="translate(262.325,164.375) rotate(90)">
			<title>Sheet.82</title>
			<path d="M0 171.95 L7.2 171.95" class="st2"/>
		</g>
		<g id="shape83-124" v:mID="83" v:groupContext="shape" transform="translate(-81.575,128.375) rotate(-90)">
			<title>Sheet.83</title>
			<path d="M0 171.95 L21.6 171.95" class="st2"/>
		</g>
		<g id="shape84-127" v:mID="84" v:groupContext="shape" transform="translate(-81.575,85.175) rotate(-90)">
			<title>Sheet.84</title>
			<path d="M0 171.95 L14.4 171.95" class="st2"/>
		</g>
		<g id="group86-130" transform="translate(0.375,-57.975)" v:mID="86" v:groupContext="group">
			<title>Sheet.86</title>
			<g id="shape87-131" v:mID="87" v:groupContext="shape" transform="translate(30.6,-9)">
				<title>Sheet.87</title>
				<ellipse cx="9" cy="162.95" rx="9" ry="9" class="st1"/>
			</g>
			<g id="shape88-133" v:mID="88" v:groupContext="shape" transform="translate(-132.35,159.35) rotate(-90)">
				<title>Sheet.88</title>
				<path d="M0 171.95 L5.08 171.95" class="st3"/>
			</g>
			<g id="shape89-138" v:mID="89" v:groupContext="shape" transform="translate(-132.35,144.952) rotate(-90)">
				<title>Sheet.89</title>
				<path d="M0 171.95 L9 171.95" class="st2"/>
			</g>
			<g id="shape90-141" v:mID="90" v:groupContext="shape" transform="translate(-132.35,171.95) rotate(-90)">
				<title>Sheet.90</title>
				<path d="M0 171.95 L9 171.95" class="st2"/>
			</g>
			<g id="shape91-144" v:mID="91" v:groupContext="shape" transform="translate(7.99361E-15,-9)">
				<title>Sheet.91</title>
				<desc>VIN</desc>
				<v:textBlock v:margins="rect(4,4,4,4)" v:tabSpace="42.5197"/>
				<v:textRect cx="14.4" cy="161.95" width="28.81" height="20"/>
				<rect x="0" y="151.95" width="28.8" height="20" class="st5"/>
				<text x="7.41" y="165.55" class="st6" v:langID="2057"><v:paragraph v:horizAlign="1"/><v:tabList/>V<tspan
							class="st7">IN</tspan></text>			</g>
		</g>
		<g id="shape92-148" v:mID="92" v:groupContext="shape" transform="translate(50.775,-151.575)">
			<title>Sheet.92</title>
			<desc>RS</desc>
			<v:textBlock v:margins="rect(4,4,4,4)" v:tabSpace="42.5197"/>
			<v:textRect cx="14.4" cy="161.95" width="28.81" height="20"/>
			<rect x="0" y="151.95" width="28.8" height="20" class="st5"/>
			<text x="9.3" y="165.55" class="st6" v:langID="2057"><v:paragraph v:horizAlign="1"/><v:tabList/>R<tspan class="st7">S</tspan></text>		</g>
		<g id="shape93-152" v:mID="93" v:groupContext="shape" transform="translate(187.575,-65.975)">
			<title>Sheet.93</title>
			<desc>RL</desc>
			<v:textBlock v:margins="rect(4,4,4,4)" v:tabSpace="42.5197"/>
			<v:textRect cx="14.4" cy="161.95" width="28.81" height="20"/>
			<rect x="0" y="151.95" width="28.8" height="20" class="st5"/>
			<text x="9.46" y="165.55" class="st6" v:langID="2057"><v:paragraph v:horizAlign="1"/><v:tabList/>R<tspan class="st7">L</tspan></text>		</g>
		<g id="shape109-156" v:mID="109" v:groupContext="shape" transform="translate(65.175,-116.375)">
			<title>Sheet.109</title>
			<desc>R1</desc>
			<v:textBlock v:margins="rect(4,4,4,4)" v:tabSpace="42.5197"/>
			<v:textRect cx="14.4" cy="161.95" width="28.81" height="20"/>
			<rect x="0" y="151.95" width="28.8" height="20" class="st5"/>
			<text x="9.11" y="165.55" class="st6" v:langID="2057"><v:paragraph v:horizAlign="1"/><v:tabList/>R<tspan class="st7">1</tspan></text>		</g>
		<g id="shape110-160" v:mID="110" v:groupContext="shape" transform="translate(88.935,-151.575)">
			<title>Sheet.110</title>
			<desc>C1</desc>
			<v:textBlock v:margins="rect(4,4,4,4)" v:tabSpace="42.5197"/>
			<v:textRect cx="14.4" cy="161.95" width="28.81" height="20"/>
			<rect x="0" y="151.95" width="28.8" height="20" class="st5"/>
			<text x="9.17" y="165.55" class="st6" v:langID="2057"><v:paragraph v:horizAlign="1"/><v:tabList/>C<tspan class="st7">1</tspan></text>		</g>
		<g id="shape111-164" v:mID="111" v:groupContext="shape" transform="translate(113.415,-81.175)">
			<title>Sheet.111</title>
			<desc>C2</desc>
			<v:textBlock v:margins="rect(4,4,4,4)" v:tabSpace="42.5197"/>
			<v:textRect cx="14.4" cy="161.95" width="28.81" height="20"/>
			<rect x="0" y="151.95" width="28.8" height="20" class="st5"/>
			<text x="9.17" y="165.55" class="st6" v:langID="2057"><v:paragraph v:horizAlign="1"/><v:tabList/>C<tspan class="st7">2</tspan></text>		</g>
		<g id="shape112-168" v:mID="112" v:groupContext="shape" transform="translate(140.775,-40.855)">
			<title>Sheet.112</title>
			<desc>VR1</desc>
			<v:textBlock v:margins="rect(4,4,4,4)" v:tabSpace="42.5197"/>
			<v:textRect cx="14.4" cy="161.95" width="28.81" height="20"/>
			<rect x="0" y="151.95" width="28.8" height="20" class="st5"/>
			<text x="5.71" y="165.55" class="st6" v:langID="2057"><v:paragraph v:horizAlign="1"/><v:tabList/>VR<tspan class="st7">1</tspan></text>		</g>
		<g id="shape113-172" v:mID="113" v:groupContext="shape" transform="translate(111.975,-116.375)">
			<title>Sheet.113</title>
			<desc>VR2</desc>
			<v:textBlock v:margins="rect(4,4,4,4)" v:tabSpace="42.5197"/>
			<v:textRect cx="14.4" cy="161.95" width="28.81" height="20"/>
			<rect x="0" y="151.95" width="28.8" height="20" class="st5"/>
			<text x="5.71" y="165.55" class="st6" v:langID="2057"><v:paragraph v:horizAlign="1"/><v:tabList/>VR<tspan class="st7">2</tspan></text>		</g>
		<g id="shape114-176" v:mID="114" v:groupContext="shape" transform="translate(65.895,-75.975)">
			<title>Sheet.114</title>
			<desc>C3</desc>
			<v:textBlock v:margins="rect(4,4,4,4)" v:tabSpace="42.5197"/>
			<v:textRect cx="14.4" cy="161.95" width="28.81" height="20"/>
			<rect x="0" y="151.95" width="28.8" height="20" class="st5"/>
			<text x="9.17" y="165.55" class="st6" v:langID="2057"><v:paragraph v:horizAlign="1"/><v:tabList/>C<tspan class="st7">3</tspan></text>		</g>
		<g id="shape115-180" v:mID="115" v:groupContext="shape" transform="translate(140.775,-124.375)">
			<title>Sheet.115</title>
			<desc>cw</desc>
			<v:textBlock v:margins="rect(4,4,4,4)" v:tabSpace="42.5197"/>
			<v:textRect cx="10.8" cy="161.95" width="21.61" height="20"/>
			<rect x="0" y="151.95" width="21.6" height="20" class="st5"/>
			<text x="6.25" y="164.35" class="st8" v:langID="2057"><v:paragraph v:horizAlign="1"/><v:tabList/>cw</text>		</g>
		<g id="shape117-183" v:mID="117" v:groupContext="shape" transform="translate(119.175,-48.775)">
			<title>Sheet.117</title>
			<desc>cw</desc>
			<v:textBlock v:margins="rect(4,4,4,4)" v:tabSpace="42.5197"/>
			<v:textRect cx="10.8" cy="161.95" width="21.61" height="20"/>
			<rect x="0" y="151.95" width="21.6" height="20" class="st5"/>
			<text x="6.25" y="164.35" class="st8" v:langID="2057"><v:paragraph v:horizAlign="1"/><v:tabList/>cw</text>		</g>
		<g id="shape118-186" v:mID="118" v:groupContext="shape" transform="translate(90.375,-50.775)">
			<title>Sheet.118</title>
			<path d="M0 171.95 L41.08 171.95" class="st3"/>
		</g>
		<g id="shape119-191" v:mID="119" v:groupContext="shape" transform="translate(312.725,63.575) rotate(90)">
			<title>Sheet.119</title>
			<path d="M0 171.95 L39.6 171.95" class="st2"/>
		</g>
		<g id="shape120-194" v:mID="120" v:groupContext="shape" transform="translate(65.175,-15.575)">
			<title>Sheet.120</title>
			<desc>R2</desc>
			<v:textBlock v:margins="rect(4,4,4,4)" v:tabSpace="42.5197"/>
			<v:textRect cx="14.4" cy="161.95" width="28.81" height="20"/>
			<rect x="0" y="151.95" width="28.8" height="20" class="st5"/>
			<text x="9.11" y="165.55" class="st6" v:langID="2057"><v:paragraph v:horizAlign="1"/><v:tabList/>R<tspan class="st7">2</tspan></text>		</g>
	</g>
</svg>
