<?xml version="1.0" encoding="UTF-8" standalone="no"?>
<!DOCTYPE svg PUBLIC "-//W3C//DTD SVG 1.1//EN" "http://www.w3.org/Graphics/SVG/1.1/DTD/svg11.dtd">
<!-- Generated by Microsoft Visio, SVG Export pearlod5.svg Page-1 -->
<svg xmlns="http://www.w3.org/2000/svg" xmlns:xlink="http://www.w3.org/1999/xlink" xmlns:ev="http://www.w3.org/2001/xml-events"
		xmlns:v="http://schemas.microsoft.com/visio/2003/SVGExtensions/" width="8.66042in" height="4.31042in"
		viewBox="0 0 623.55 310.35" xml:space="preserve" color-interpolation-filters="sRGB" class="st10">
	<v:documentProperties v:langID="2057" v:metric="true" v:viewMarkup="false"/>

	<style type="text/css">
	<![CDATA[
		.st1 {fill:#ffffff;stroke:#000000;stroke-linecap:round;stroke-linejoin:round;stroke-width:0.75}
		.st2 {stroke:#000000;stroke-linecap:round;stroke-linejoin:round;stroke-width:0.75}
		.st3 {marker-start:url(#mrkr5-52);stroke:#000000;stroke-linecap:round;stroke-linejoin:round;stroke-width:0.75}
		.st4 {fill:#000000;fill-opacity:1;stroke:#000000;stroke-opacity:1;stroke-width:0.22935779816514}
		.st5 {marker-end:url(#mrkr5-61);stroke:#000000;stroke-linecap:round;stroke-linejoin:round;stroke-width:0.75}
		.st6 {fill:none;stroke:none;stroke-linecap:round;stroke-linejoin:round;stroke-width:0.75}
		.st7 {fill:#000000;font-family:Calibri;font-size:1.00001em}
		.st8 {font-size:0.666659em}
		.st9 {fill:#000000;font-family:Calibri;font-size:0.666664em}
		.st10 {fill:none;fill-rule:evenodd;font-size:12px;overflow:visible;stroke-linecap:square;stroke-miterlimit:3}
	]]>
	</style>

	<defs id="Markers">
		<g id="lend5">
			<path d="M 2 1 L 0 0 L 1.98117 -0.993387 C 1.67173 -0.364515 1.67301 0.372641 1.98465 1.00043 " style="stroke:none"/>
		</g>
		<marker id="mrkr5-52" class="st4" v:arrowType="5" v:arrowSize="2" v:setback="7.15" refX="7.15" orient="auto"
				markerUnits="strokeWidth" overflow="visible">
			<use xlink:href="#lend5" transform="scale(4.36) "/>
		</marker>
		<marker id="mrkr5-61" class="st4" v:arrowType="5" v:arrowSize="2" v:setback="7.63" refX="-7.63" orient="auto"
				markerUnits="strokeWidth" overflow="visible">
			<use xlink:href="#lend5" transform="scale(-4.36,-4.36) "/>
		</marker>
	</defs>
	<g v:mID="0" v:index="1" v:groupContext="foregroundPage">
		<title>Page-1</title>
		<v:pageProperties v:drawingScale="1" v:pageScale="1" v:drawingUnits="0" v:shadowOffsetX="8.50394"
				v:shadowOffsetY="-8.50394"/>
		<g id="group18-1" transform="translate(47.175,-61.575)" v:mID="18" v:groupContext="group">
			<title>Sheet.18</title>
			<g id="shape19-2" v:mID="19" v:groupContext="shape" transform="translate(7.2,0)">
				<title>Sheet.19</title>
				<rect x="0" y="303.15" width="21.6" height="7.2" class="st1"/>
			</g>
			<g id="shape20-4" v:mID="20" v:groupContext="shape" transform="translate(1.59872E-14,-3.6)">
				<title>Sheet.20</title>
				<path d="M0 310.35 L7.2 310.35" class="st2"/>
			</g>
			<g id="shape21-7" v:mID="21" v:groupContext="shape" transform="translate(28.8,-3.6)">
				<title>Sheet.21</title>
				<path d="M0 310.35 L7.2 310.35" class="st2"/>
			</g>
		</g>
		<g id="shape25-10" v:mID="25" v:groupContext="shape" transform="translate(39.975,-50.775)">
			<title>Sheet.25</title>
			<path d="M0 310.35 L0 295.95 L7.2 295.95" class="st2"/>
		</g>
		<g id="shape26-13" v:mID="26" v:groupContext="shape" transform="translate(39.975,-0.375)">
			<title>Sheet.26</title>
			<path d="M0 295.95 L0 310.35 L543.6 310.35" class="st2"/>
		</g>
		<g id="group27-16" transform="translate(-54.375,115.575) rotate(-90)" v:mID="27" v:groupContext="group">
			<title>Sheet.27</title>
			<g id="shape28-17" v:mID="28" v:groupContext="shape" transform="translate(7.2,0)">
				<title>Sheet.28</title>
				<rect x="0" y="303.15" width="21.6" height="7.2" class="st1"/>
			</g>
			<g id="shape29-19" v:mID="29" v:groupContext="shape" transform="translate(1.59872E-14,-3.6)">
				<title>Sheet.29</title>
				<path d="M0 310.35 L7.2 310.35" class="st2"/>
			</g>
			<g id="shape30-22" v:mID="30" v:groupContext="shape" transform="translate(28.8,-3.6)">
				<title>Sheet.30</title>
				<path d="M0 310.35 L7.2 310.35" class="st2"/>
			</g>
		</g>
		<g id="group43-25" transform="translate(497.925,133.575) rotate(90)" v:mID="43" v:groupContext="group">
			<title>Sheet.43</title>
			<g id="shape44-26" v:mID="44" v:groupContext="shape" transform="translate(0,-12.24)">
				<title>Sheet.44</title>
				<rect x="0" y="308.19" width="21.6" height="2.16003" class="st1"/>
			</g>
			<g id="shape45-28" v:mID="45" v:groupContext="shape" transform="translate(0,-7.20001)">
				<title>Sheet.45</title>
				<rect x="0" y="308.19" width="21.6" height="2.16003" class="st1"/>
			</g>
			<g id="shape46-30" v:mID="46" v:groupContext="shape" transform="translate(-299.55,295.95) rotate(-90)">
				<title>Sheet.46</title>
				<path d="M0 310.35 L7.2 310.35" class="st2"/>
			</g>
			<g id="shape47-33" v:mID="47" v:groupContext="shape" transform="translate(321.15,303.15) rotate(90)">
				<title>Sheet.47</title>
				<path d="M0 310.35 L7.2 310.35" class="st2"/>
			</g>
		</g>
		<g id="group53-36" transform="translate(187.575,-201.975)" v:mID="53" v:groupContext="group">
			<title>Sheet.53</title>
			<g id="shape54-37" v:mID="54" v:groupContext="shape" transform="translate(0,-12.24)">
				<title>Sheet.54</title>
				<rect x="0" y="308.19" width="21.6" height="2.16003" class="st1"/>
			</g>
			<g id="shape55-39" v:mID="55" v:groupContext="shape" transform="translate(0,-7.20001)">
				<title>Sheet.55</title>
				<rect x="0" y="308.19" width="21.6" height="2.16003" class="st1"/>
			</g>
			<g id="shape56-41" v:mID="56" v:groupContext="shape" transform="translate(-299.55,295.95) rotate(-90)">
				<title>Sheet.56</title>
				<path d="M0 310.35 L7.2 310.35" class="st2"/>
			</g>
			<g id="shape57-44" v:mID="57" v:groupContext="shape" transform="translate(321.15,303.15) rotate(90)">
				<title>Sheet.57</title>
				<path d="M0 310.35 L7.2 310.35" class="st2"/>
			</g>
		</g>
		<g id="shape78-47" v:mID="78" v:groupContext="shape" transform="translate(111.975,-101.175)">
			<title>Sheet.78</title>
			<path d="M5.36 310.35 L5.72 310.35 L54 310.35" class="st3"/>
		</g>
		<g id="group80-53" transform="translate(0.375,-14.775)" v:mID="80" v:groupContext="group">
			<title>Sheet.80</title>
			<g id="shape81-54" v:mID="81" v:groupContext="shape" transform="translate(30.6,-9)">
				<title>Sheet.81</title>
				<ellipse cx="9" cy="301.35" rx="9" ry="9" class="st1"/>
			</g>
			<g id="shape82-56" v:mID="82" v:groupContext="shape" transform="translate(-270.75,297.75) rotate(-90)">
				<title>Sheet.82</title>
				<path d="M0 310.35 L5.08 310.35" class="st5"/>
			</g>
			<g id="shape83-62" v:mID="83" v:groupContext="shape" transform="translate(-270.75,283.352) rotate(-90)">
				<title>Sheet.83</title>
				<path d="M0 310.35 L9 310.35" class="st2"/>
			</g>
			<g id="shape84-65" v:mID="84" v:groupContext="shape" transform="translate(-270.75,310.35) rotate(-90)">
				<title>Sheet.84</title>
				<path d="M0 310.35 L9 310.35" class="st2"/>
			</g>
			<g id="shape85-68" v:mID="85" v:groupContext="shape" transform="translate(7.99361E-15,-9)">
				<title>Sheet.85</title>
				<desc>VIN</desc>
				<v:textBlock v:margins="rect(4,4,4,4)" v:tabSpace="42.5197"/>
				<v:textRect cx="14.4" cy="300.35" width="28.81" height="20"/>
				<rect x="0" y="290.35" width="28.8" height="20" class="st6"/>
				<text x="7.41" y="303.95" class="st7" v:langID="2057"><v:paragraph v:horizAlign="1"/><v:tabList/>V<tspan
							class="st8">IN</tspan></text>			</g>
		</g>
		<g id="shape106-72" v:mID="106" v:groupContext="shape" transform="translate(50.775,-65.335)">
			<title>Sheet.106</title>
			<desc>RS</desc>
			<v:textBlock v:margins="rect(4,4,4,4)" v:tabSpace="42.5197"/>
			<v:textRect cx="14.4" cy="300.35" width="28.81" height="20"/>
			<rect x="0" y="290.35" width="28.8" height="20" class="st6"/>
			<text x="9.3" y="303.95" class="st7" v:langID="2057"><v:paragraph v:horizAlign="1"/><v:tabList/>R<tspan class="st8">S</tspan></text>		</g>
		<g id="shape112-76" v:mID="112" v:groupContext="shape" transform="translate(79.575,-91.175)">
			<title>Sheet.112</title>
			<desc>VR1</desc>
			<v:textBlock v:margins="rect(4,4,4,4)" v:tabSpace="42.5197"/>
			<v:textRect cx="14.4" cy="300.35" width="28.81" height="20"/>
			<rect x="0" y="290.35" width="28.8" height="20" class="st6"/>
			<text x="5.71" y="303.95" class="st7" v:langID="2057"><v:paragraph v:horizAlign="1"/><v:tabList/>VR<tspan class="st8">1</tspan></text>		</g>
		<g id="shape114-80" v:mID="114" v:groupContext="shape" transform="translate(171.28,-165.975)">
			<title>Sheet.114</title>
			<desc>C1</desc>
			<v:textBlock v:margins="rect(4,4,4,4)" v:tabSpace="42.5197"/>
			<v:textRect cx="14.4" cy="300.35" width="28.81" height="20"/>
			<rect x="0" y="290.35" width="28.8" height="20" class="st6"/>
			<text x="9.17" y="303.95" class="st7" v:langID="2057"><v:paragraph v:horizAlign="1"/><v:tabList/>C<tspan class="st8">1</tspan></text>		</g>
		<g id="shape119-84" v:mID="119" v:groupContext="shape" transform="translate(205.575,-253.975)">
			<title>Sheet.119</title>
			<desc>cw</desc>
			<v:textBlock v:margins="rect(4,4,4,4)" v:tabSpace="42.5197"/>
			<v:textRect cx="10.8" cy="300.35" width="21.61" height="20"/>
			<rect x="0" y="290.35" width="21.6" height="20" class="st6"/>
			<text x="6.25" y="302.75" class="st9" v:langID="2057"><v:paragraph v:horizAlign="1"/><v:tabList/>cw</text>		</g>
		<g id="shape120-87" v:mID="120" v:groupContext="shape" transform="translate(194.775,-213.575)">
			<title>Sheet.120</title>
			<desc>C2</desc>
			<v:textBlock v:margins="rect(4,4,4,4)" v:tabSpace="42.5197"/>
			<v:textRect cx="14.4" cy="300.35" width="28.81" height="20"/>
			<rect x="0" y="290.35" width="28.8" height="20" class="st6"/>
			<text x="9.17" y="303.95" class="st7" v:langID="2057"><v:paragraph v:horizAlign="1"/><v:tabList/>C<tspan class="st8">2</tspan></text>		</g>
		<g id="shape121-91" v:mID="121" v:groupContext="shape" transform="translate(248.775,-202.775)">
			<title>Sheet.121</title>
			<desc>R2</desc>
			<v:textBlock v:margins="rect(4,4,4,4)" v:tabSpace="42.5197"/>
			<v:textRect cx="14.4" cy="300.35" width="28.81" height="20"/>
			<rect x="0" y="290.35" width="28.8" height="20" class="st6"/>
			<text x="9.11" y="303.95" class="st7" v:langID="2057"><v:paragraph v:horizAlign="1"/><v:tabList/>R<tspan class="st8">2</tspan></text>		</g>
		<g id="group122-95" transform="translate(-198.375,227.175) rotate(-90)" v:mID="122" v:groupContext="group">
			<title>Sheet.122</title>
			<g id="shape123-96" v:mID="123" v:groupContext="shape" transform="translate(7.2,0)">
				<title>Sheet.123</title>
				<rect x="0" y="303.15" width="21.6" height="7.2" class="st1"/>
			</g>
			<g id="shape124-98" v:mID="124" v:groupContext="shape" transform="translate(1.59872E-14,-3.6)">
				<title>Sheet.124</title>
				<path d="M0 310.35 L7.2 310.35" class="st2"/>
			</g>
			<g id="shape125-101" v:mID="125" v:groupContext="shape" transform="translate(28.8,-3.6)">
				<title>Sheet.125</title>
				<path d="M0 310.35 L7.2 310.35" class="st2"/>
			</g>
		</g>
		<g id="group150-104" transform="translate(166.425,-86.775)" v:mID="150" v:groupContext="group">
			<title>Sheet.150</title>
			<g id="shape144-105" v:mID="144" v:groupContext="shape" transform="translate(7.2,0)">
				<title>Sheet.144</title>
				<path d="M0 310.35 L43.2 281.55 L0 252.75 L0 310.35 Z" class="st1"/>
			</g>
			<g id="shape145-107" v:mID="145" v:groupContext="shape" transform="translate(0,-43.2)">
				<title>Sheet.145</title>
				<path d="M0 310.35 L7.2 310.35" class="st2"/>
			</g>
			<g id="shape146-110" v:mID="146" v:groupContext="shape" transform="translate(7.04715E-07,-14.4)">
				<title>Sheet.146</title>
				<path d="M0 310.35 L7.2 310.35" class="st2"/>
			</g>
			<g id="shape147-113" v:mID="147" v:groupContext="shape" transform="translate(50.4,-28.8)">
				<title>Sheet.147</title>
				<path d="M0 310.35 L6.75 310.35" class="st2"/>
			</g>
			<g id="shape148-116" v:mID="148" v:groupContext="shape" transform="translate(7.2,-39.6)">
				<title>Sheet.148</title>
				<desc>-</desc>
				<v:textBlock v:margins="rect(4,4,4,4)" v:tabSpace="42.5197"/>
				<v:textRect cx="6.95" cy="306.75" width="13.9" height="7.2"/>
				<rect x="0" y="303.15" width="13.9" height="7.2" class="st6"/>
				<text x="5.11" y="310.35" class="st7" v:langID="2057"><v:paragraph v:horizAlign="1"/><v:tabList/>-</text>			</g>
			<g id="shape149-119" v:mID="149" v:groupContext="shape" transform="translate(7.2,-10.8)">
				<title>Sheet.149</title>
				<desc>+</desc>
				<v:textBlock v:margins="rect(4,4,4,4)" v:tabSpace="42.5197"/>
				<v:textRect cx="6.95" cy="306.75" width="13.9" height="7.2"/>
				<rect x="0" y="303.15" width="13.9" height="7.2" class="st6"/>
				<text x="4" y="310.35" class="st7" v:langID="2057"><v:paragraph v:horizAlign="1"/><v:tabList/>+</text>			</g>
		</g>
		<g id="shape151-122" v:mID="151" v:groupContext="shape" transform="translate(183.975,-245.975)">
			<title>Sheet.151</title>
			<desc>VR2</desc>
			<v:textBlock v:margins="rect(4,4,4,4)" v:tabSpace="42.5197"/>
			<v:textRect cx="14.4" cy="300.35" width="28.81" height="20"/>
			<rect x="0" y="290.35" width="28.8" height="20" class="st6"/>
			<text x="5.71" y="303.95" class="st7" v:langID="2057"><v:paragraph v:horizAlign="1"/><v:tabList/>VR<tspan class="st8">2</tspan></text>		</g>
		<g id="group152-126" transform="translate(-122.775,72.375) rotate(-90)" v:mID="152" v:groupContext="group">
			<title>Sheet.152</title>
			<g id="shape153-127" v:mID="153" v:groupContext="shape" transform="translate(7.2,0)">
				<title>Sheet.153</title>
				<rect x="0" y="303.15" width="21.6" height="7.2" class="st1"/>
			</g>
			<g id="shape154-129" v:mID="154" v:groupContext="shape" transform="translate(1.59872E-14,-3.6)">
				<title>Sheet.154</title>
				<path d="M0 310.35 L7.2 310.35" class="st2"/>
			</g>
			<g id="shape155-132" v:mID="155" v:groupContext="shape" transform="translate(28.8,-3.6)">
				<title>Sheet.155</title>
				<path d="M0 310.35 L7.2 310.35" class="st2"/>
			</g>
		</g>
		<g id="shape156-135" v:mID="156" v:groupContext="shape" transform="translate(227.175,-245.975)">
			<title>Sheet.156</title>
			<desc>VR2</desc>
			<v:textBlock v:margins="rect(4,4,4,4)" v:tabSpace="42.5197"/>
			<v:textRect cx="14.4" cy="300.35" width="28.81" height="20"/>
			<rect x="0" y="290.35" width="28.8" height="20" class="st6"/>
			<text x="5.71" y="303.95" class="st7" v:langID="2057"><v:paragraph v:horizAlign="1"/><v:tabList/>VR<tspan class="st8">2</tspan></text>		</g>
		<g id="group157-139" transform="translate(-79.575,72.375) rotate(-90)" v:mID="157" v:groupContext="group">
			<title>Sheet.157</title>
			<g id="shape158-140" v:mID="158" v:groupContext="shape" transform="translate(7.2,0)">
				<title>Sheet.158</title>
				<rect x="0" y="303.15" width="21.6" height="7.2" class="st1"/>
			</g>
			<g id="shape159-142" v:mID="159" v:groupContext="shape" transform="translate(1.59872E-14,-3.6)">
				<title>Sheet.159</title>
				<path d="M0 310.35 L7.2 310.35" class="st2"/>
			</g>
			<g id="shape160-145" v:mID="160" v:groupContext="shape" transform="translate(28.8,-3.6)">
				<title>Sheet.160</title>
				<path d="M0 310.35 L7.2 310.35" class="st2"/>
			</g>
		</g>
		<g id="shape161-148" v:mID="161" v:groupContext="shape" transform="translate(183.975,-230.775)">
			<title>Sheet.161</title>
			<path d="M0 303.15 L0 310.35 L28.8 310.35 L28.8 285.15 L33.88 285.15" class="st5"/>
		</g>
		<g id="group162-153" transform="translate(-148.164,115.575) rotate(-90)" v:mID="162" v:groupContext="group">
			<title>Sheet.162</title>
			<g id="shape163-154" v:mID="163" v:groupContext="shape" transform="translate(7.2,0)">
				<title>Sheet.163</title>
				<rect x="0" y="303.15" width="21.6" height="7.2" class="st1"/>
			</g>
			<g id="shape164-156" v:mID="164" v:groupContext="shape" transform="translate(1.59872E-14,-3.6)">
				<title>Sheet.164</title>
				<path d="M0 310.35 L7.2 310.35" class="st2"/>
			</g>
			<g id="shape165-159" v:mID="165" v:groupContext="shape" transform="translate(28.8,-3.6)">
				<title>Sheet.165</title>
				<path d="M0 310.35 L7.2 310.35" class="st2"/>
			</g>
		</g>
		<g id="shape166-162" v:mID="166" v:groupContext="shape" transform="translate(133.575,-202.775)">
			<title>Sheet.166</title>
			<desc>R1</desc>
			<v:textBlock v:margins="rect(4,4,4,4)" v:tabSpace="42.5197"/>
			<v:textRect cx="14.4" cy="300.35" width="28.81" height="20"/>
			<rect x="0" y="290.35" width="28.8" height="20" class="st6"/>
			<text x="9.11" y="303.95" class="st7" v:langID="2057"><v:paragraph v:horizAlign="1"/><v:tabList/>R<tspan class="st8">1</tspan></text>		</g>
		<g id="shape171-166" v:mID="171" v:groupContext="shape" transform="translate(-111.975,86.775) rotate(-90)">
			<title>Sheet.171</title>
			<path d="M0 310.35 L7.2 310.35" class="st2"/>
		</g>
		<g id="shape172-169" v:mID="172" v:groupContext="shape" transform="translate(227.175,-230.775)">
			<title>Sheet.172</title>
			<path d="M0 267.15 L0 259.95 L25.2 259.95 L25.2 310.35" class="st2"/>
		</g>
		<g id="shape173-172" v:mID="173" v:groupContext="shape" transform="translate(158.586,-230.775)">
			<title>Sheet.173</title>
			<path d="M0 310.35 L0 285.15 L16.07 285.15" class="st5"/>
		</g>
		<g id="shape174-177" v:mID="174" v:groupContext="shape" transform="translate(158.586,-165.975)">
			<title>Sheet.174</title>
			<path d="M0 281.55 L0 310.35 L28.99 310.35" class="st2"/>
		</g>
		<g id="shape175-180" v:mID="175" v:groupContext="shape" transform="translate(158.586,-129.975)">
			<title>Sheet.175</title>
			<path d="M7.84 310.35 L0.19 310.35 L0 274.35" class="st2"/>
		</g>
		<g id="shape176-183" v:mID="176" v:groupContext="shape" transform="translate(209.175,-165.975)">
			<title>Sheet.176</title>
			<path d="M0 310.35 L43.2 310.35 L43.2 281.55" class="st2"/>
		</g>
		<g id="shape177-186" v:mID="177" v:groupContext="shape" transform="translate(223.575,-115.575)">
			<title>Sheet.177</title>
			<path d="M0 310.35 L28.8 310.35 L28.8 259.95" class="st2"/>
		</g>
		<g id="shape178-189" v:mID="178" v:groupContext="shape" transform="translate(162.375,-253.975)">
			<title>Sheet.178</title>
			<desc>cw</desc>
			<v:textBlock v:margins="rect(4,4,4,4)" v:tabSpace="42.5197"/>
			<v:textRect cx="10.8" cy="300.35" width="21.61" height="20"/>
			<rect x="0" y="290.35" width="21.6" height="20" class="st6"/>
			<text x="6.25" y="302.75" class="st9" v:langID="2057"><v:paragraph v:horizAlign="1"/><v:tabList/>cw</text>		</g>
		<g id="group179-192" transform="translate(288.375,-111.975)" v:mID="179" v:groupContext="group">
			<title>Sheet.179</title>
			<g id="shape180-193" v:mID="180" v:groupContext="shape" transform="translate(7.2,0)">
				<title>Sheet.180</title>
				<rect x="0" y="303.15" width="21.6" height="7.2" class="st1"/>
			</g>
			<g id="shape181-195" v:mID="181" v:groupContext="shape" transform="translate(1.59872E-14,-3.6)">
				<title>Sheet.181</title>
				<path d="M0 310.35 L7.2 310.35" class="st2"/>
			</g>
			<g id="shape182-198" v:mID="182" v:groupContext="shape" transform="translate(28.8,-3.6)">
				<title>Sheet.182</title>
				<path d="M0 310.35 L7.2 310.35" class="st2"/>
			</g>
		</g>
		<g id="group183-201" transform="translate(338.775,-101.175)" v:mID="183" v:groupContext="group">
			<title>Sheet.183</title>
			<g id="shape184-202" v:mID="184" v:groupContext="shape" transform="translate(7.2,0)">
				<title>Sheet.184</title>
				<path d="M0 310.35 L43.2 281.55 L0 252.75 L0 310.35 Z" class="st1"/>
			</g>
			<g id="shape185-204" v:mID="185" v:groupContext="shape" transform="translate(0,-43.2)">
				<title>Sheet.185</title>
				<path d="M0 310.35 L7.2 310.35" class="st2"/>
			</g>
			<g id="shape186-207" v:mID="186" v:groupContext="shape" transform="translate(7.04715E-07,-14.4)">
				<title>Sheet.186</title>
				<path d="M0 310.35 L7.2 310.35" class="st2"/>
			</g>
			<g id="shape187-210" v:mID="187" v:groupContext="shape" transform="translate(50.4,-28.8)">
				<title>Sheet.187</title>
				<path d="M0 310.35 L6.75 310.35" class="st2"/>
			</g>
			<g id="shape188-213" v:mID="188" v:groupContext="shape" transform="translate(7.2,-39.6)">
				<title>Sheet.188</title>
				<desc>-</desc>
				<v:textBlock v:margins="rect(4,4,4,4)" v:tabSpace="42.5197"/>
				<v:textRect cx="6.95" cy="306.75" width="13.9" height="7.2"/>
				<rect x="0" y="303.15" width="13.9" height="7.2" class="st6"/>
				<text x="5.11" y="310.35" class="st7" v:langID="2057"><v:paragraph v:horizAlign="1"/><v:tabList/>-</text>			</g>
			<g id="shape189-216" v:mID="189" v:groupContext="shape" transform="translate(7.2,-10.8)">
				<title>Sheet.189</title>
				<desc>+</desc>
				<v:textBlock v:margins="rect(4,4,4,4)" v:tabSpace="42.5197"/>
				<v:textRect cx="6.95" cy="306.75" width="13.9" height="7.2"/>
				<rect x="0" y="303.15" width="13.9" height="7.2" class="st6"/>
				<text x="4" y="310.35" class="st7" v:langID="2057"><v:paragraph v:horizAlign="1"/><v:tabList/>+</text>			</g>
		</g>
		<g id="group190-219" transform="translate(24.825,237.975) rotate(-90)" v:mID="190" v:groupContext="group">
			<title>Sheet.190</title>
			<g id="shape191-220" v:mID="191" v:groupContext="shape" transform="translate(7.2,0)">
				<title>Sheet.191</title>
				<rect x="0" y="303.15" width="21.6" height="7.2" class="st1"/>
			</g>
			<g id="shape192-222" v:mID="192" v:groupContext="shape" transform="translate(1.59872E-14,-3.6)">
				<title>Sheet.192</title>
				<path d="M0 310.35 L7.2 310.35" class="st2"/>
			</g>
			<g id="shape193-225" v:mID="193" v:groupContext="shape" transform="translate(28.8,-3.6)">
				<title>Sheet.193</title>
				<path d="M0 310.35 L7.2 310.35" class="st2"/>
			</g>
		</g>
		<g id="group194-228" transform="translate(288.375,-140.435)" v:mID="194" v:groupContext="group">
			<title>Sheet.194</title>
			<g id="shape195-229" v:mID="195" v:groupContext="shape" transform="translate(7.2,0)">
				<title>Sheet.195</title>
				<rect x="0" y="303.15" width="21.6" height="7.2" class="st1"/>
			</g>
			<g id="shape196-231" v:mID="196" v:groupContext="shape" transform="translate(1.59872E-14,-3.6)">
				<title>Sheet.196</title>
				<path d="M0 310.35 L7.2 310.35" class="st2"/>
			</g>
			<g id="shape197-234" v:mID="197" v:groupContext="shape" transform="translate(28.8,-3.6)">
				<title>Sheet.197</title>
				<path d="M0 310.35 L7.2 310.35" class="st2"/>
			</g>
		</g>
		<g id="group198-237" transform="translate(353.175,-176.775)" v:mID="198" v:groupContext="group">
			<title>Sheet.198</title>
			<g id="shape199-238" v:mID="199" v:groupContext="shape" transform="translate(7.2,0)">
				<title>Sheet.199</title>
				<rect x="0" y="303.15" width="21.6" height="7.2" class="st1"/>
			</g>
			<g id="shape200-240" v:mID="200" v:groupContext="shape" transform="translate(1.59872E-14,-3.6)">
				<title>Sheet.200</title>
				<path d="M0 310.35 L7.2 310.35" class="st2"/>
			</g>
			<g id="shape201-243" v:mID="201" v:groupContext="shape" transform="translate(28.8,-3.6)">
				<title>Sheet.201</title>
				<path d="M0 310.35 L7.2 310.35" class="st2"/>
			</g>
		</g>
		<g id="shape202-246" v:mID="202" v:groupContext="shape" transform="translate(317.046,-143.948) rotate(-1.3532)">
			<title>Sheet.202</title>
			<path d="M0 310.35 L14.4 310.35" class="st2"/>
		</g>
		<g id="shape203-249" v:mID="203" v:groupContext="shape" transform="translate(324.375,-115.575)">
			<title>Sheet.203</title>
			<path d="M0 310.35 L14.4 310.35" class="st2"/>
		</g>
		<g id="shape204-252" v:mID="204" v:groupContext="shape" transform="translate(21.225,201.975) rotate(-90)">
			<title>Sheet.204</title>
			<path d="M0 310.35 L7.2 310.35" class="st2"/>
		</g>
		<g id="shape205-255" v:mID="205" v:groupContext="shape" transform="translate(331.575,-144.375)">
			<title>Sheet.205</title>
			<path d="M21.6 274.35 L0 274.35 L0 310.35" class="st2"/>
		</g>
		<g id="shape206-258" v:mID="206" v:groupContext="shape" transform="translate(389.175,-129.975)">
			<title>Sheet.206</title>
			<path d="M0 259.95 L14.4 259.95 L14.4 310.35" class="st2"/>
		</g>
		<g id="shape207-261" v:mID="207" v:groupContext="shape" transform="translate(395.925,-129.975)">
			<title>Sheet.207</title>
			<path d="M0 310.35 L22.05 310.35" class="st2"/>
		</g>
		<g id="group208-264" transform="translate(192.615,-197.655)" v:mID="208" v:groupContext="group">
			<title>Sheet.208</title>
			<g id="shape167-265" v:mID="167" v:groupContext="shape" transform="translate(0,-4.32)">
				<title>Sheet.167</title>
				<path d="M0 310.35 L11.52 310.35" class="st2"/>
			</g>
			<g id="shape168-268" v:mID="168" v:groupContext="shape" transform="translate(1.44,-2.88)">
				<title>Sheet.168</title>
				<path d="M0 310.35 L8.64 310.35" class="st2"/>
			</g>
			<g id="shape169-271" v:mID="169" v:groupContext="shape" transform="translate(2.88,-1.44)">
				<title>Sheet.169</title>
				<path d="M0 310.35 L5.76 310.35" class="st2"/>
			</g>
			<g id="shape170-274" v:mID="170" v:groupContext="shape" transform="translate(4.32,-1.13687E-13)">
				<title>Sheet.170</title>
				<path d="M0 310.35 L2.88 310.35" class="st2"/>
			</g>
		</g>
		<g id="shape214-277" v:mID="214" v:groupContext="shape" transform="translate(641.925,237.975) rotate(90)">
			<title>Sheet.214</title>
			<path d="M0 310.35 L72 310.35" class="st2"/>
		</g>
		<g id="shape215-280" v:mID="215" v:groupContext="shape" transform="translate(288.375,505.125) rotate(180)">
			<title>Sheet.215</title>
			<path d="M0 310.35 L36 310.35" class="st2"/>
		</g>
		<g id="shape216-283" v:mID="216" v:groupContext="shape" transform="translate(288.375,476.665) rotate(180)">
			<title>Sheet.216</title>
			<path d="M0 310.35 L7.2 310.35" class="st2"/>
		</g>
		<g id="shape218-286" v:mID="218" v:groupContext="shape" transform="translate(129.975,-101.175)">
			<title>Sheet.218</title>
			<path d="M0 310.35 L0 115.95 L151.2 115.95 L151.2 267.49" class="st2"/>
		</g>
		<g id="group219-289" transform="translate(417.975,-126.375)" v:mID="219" v:groupContext="group">
			<title>Sheet.219</title>
			<g id="shape220-290" v:mID="220" v:groupContext="shape" transform="translate(7.2,0)">
				<title>Sheet.220</title>
				<rect x="0" y="303.15" width="21.6" height="7.2" class="st1"/>
			</g>
			<g id="shape221-292" v:mID="221" v:groupContext="shape" transform="translate(1.59872E-14,-3.6)">
				<title>Sheet.221</title>
				<path d="M0 310.35 L7.2 310.35" class="st2"/>
			</g>
			<g id="shape222-295" v:mID="222" v:groupContext="shape" transform="translate(28.8,-3.6)">
				<title>Sheet.222</title>
				<path d="M0 310.35 L7.2 310.35" class="st2"/>
			</g>
		</g>
		<g id="group223-298" transform="translate(417.975,-97.9152)" v:mID="223" v:groupContext="group">
			<title>Sheet.223</title>
			<g id="shape224-299" v:mID="224" v:groupContext="shape" transform="translate(7.2,0)">
				<title>Sheet.224</title>
				<rect x="0" y="303.15" width="21.6" height="7.2" class="st1"/>
			</g>
			<g id="shape225-301" v:mID="225" v:groupContext="shape" transform="translate(1.59872E-14,-3.6)">
				<title>Sheet.225</title>
				<path d="M0 310.35 L7.2 310.35" class="st2"/>
			</g>
			<g id="shape226-304" v:mID="226" v:groupContext="shape" transform="translate(28.8,-3.6)">
				<title>Sheet.226</title>
				<path d="M0 310.35 L7.2 310.35" class="st2"/>
			</g>
		</g>
		<g id="group227-307" transform="translate(482.775,-86.775)" v:mID="227" v:groupContext="group">
			<title>Sheet.227</title>
			<g id="shape228-308" v:mID="228" v:groupContext="shape" transform="translate(7.2,0)">
				<title>Sheet.228</title>
				<path d="M0 310.35 L43.2 281.55 L0 252.75 L0 310.35 Z" class="st1"/>
			</g>
			<g id="shape229-310" v:mID="229" v:groupContext="shape" transform="translate(0,-43.2)">
				<title>Sheet.229</title>
				<path d="M0 310.35 L7.2 310.35" class="st2"/>
			</g>
			<g id="shape230-313" v:mID="230" v:groupContext="shape" transform="translate(7.04715E-07,-14.4)">
				<title>Sheet.230</title>
				<path d="M0 310.35 L7.2 310.35" class="st2"/>
			</g>
			<g id="shape231-316" v:mID="231" v:groupContext="shape" transform="translate(50.4,-28.8)">
				<title>Sheet.231</title>
				<path d="M0 310.35 L6.75 310.35" class="st2"/>
			</g>
			<g id="shape232-319" v:mID="232" v:groupContext="shape" transform="translate(7.2,-39.6)">
				<title>Sheet.232</title>
				<desc>-</desc>
				<v:textBlock v:margins="rect(4,4,4,4)" v:tabSpace="42.5197"/>
				<v:textRect cx="6.95" cy="306.75" width="13.9" height="7.2"/>
				<rect x="0" y="303.15" width="13.9" height="7.2" class="st6"/>
				<text x="5.11" y="310.35" class="st7" v:langID="2057"><v:paragraph v:horizAlign="1"/><v:tabList/>-</text>			</g>
			<g id="shape233-322" v:mID="233" v:groupContext="shape" transform="translate(7.2,-10.8)">
				<title>Sheet.233</title>
				<desc>+</desc>
				<v:textBlock v:margins="rect(4,4,4,4)" v:tabSpace="42.5197"/>
				<v:textRect cx="6.95" cy="306.75" width="13.9" height="7.2"/>
				<rect x="0" y="303.15" width="13.9" height="7.2" class="st6"/>
				<text x="4" y="310.35" class="st7" v:langID="2057"><v:paragraph v:horizAlign="1"/><v:tabList/>+</text>			</g>
		</g>
		<g id="group234-325" transform="translate(497.175,-162.375)" v:mID="234" v:groupContext="group">
			<title>Sheet.234</title>
			<g id="shape235-326" v:mID="235" v:groupContext="shape" transform="translate(7.2,0)">
				<title>Sheet.235</title>
				<rect x="0" y="303.15" width="21.6" height="7.2" class="st1"/>
			</g>
			<g id="shape236-328" v:mID="236" v:groupContext="shape" transform="translate(1.59872E-14,-3.6)">
				<title>Sheet.236</title>
				<path d="M0 310.35 L7.2 310.35" class="st2"/>
			</g>
			<g id="shape237-331" v:mID="237" v:groupContext="shape" transform="translate(28.8,-3.6)">
				<title>Sheet.237</title>
				<path d="M0 310.35 L7.2 310.35" class="st2"/>
			</g>
		</g>
		<g id="shape238-334" v:mID="238" v:groupContext="shape" transform="translate(475.575,-129.975)">
			<title>Sheet.238</title>
			<path d="M21.6 274.35 L0 274.35 L0 310.35" class="st2"/>
		</g>
		<g id="shape239-337" v:mID="239" v:groupContext="shape" transform="translate(533.175,-115.575)">
			<title>Sheet.239</title>
			<path d="M0 259.95 L14.4 259.95 L14.4 310.35" class="st2"/>
		</g>
		<g id="shape240-340" v:mID="240" v:groupContext="shape" transform="translate(453.975,-129.975)">
			<title>Sheet.240</title>
			<path d="M0 310.35 L28.8 310.35" class="st2"/>
		</g>
		<g id="shape241-343" v:mID="241" v:groupContext="shape" transform="translate(453.975,-101.515)">
			<title>Sheet.241</title>
			<path d="M0 310.35 L7.2 310.35 L7.2 281.89" class="st2"/>
		</g>
		<g id="shape242-346" v:mID="242" v:groupContext="shape" transform="translate(475.575,-0.375003)">
			<title>Sheet.242</title>
			<path d="M7.2 209.55 L0 209.55 L0 310.35" class="st2"/>
		</g>
		<g id="shape243-349" v:mID="243" v:groupContext="shape" transform="translate(108.375,-65.175)">
			<title>Sheet.243</title>
			<path d="M0 292.35 L0 310.35 L219.6 310.35" class="st2"/>
		</g>
		<g id="shape244-352" v:mID="244" v:groupContext="shape" transform="translate(335.299,-65.175)">
			<title>Sheet.244</title>
			<path d="M0 310.35 L3.48 310.35 L68.28 310.35 L68.28 274.35 L82.68 274.01" class="st2"/>
		</g>
		<g id="shape245-355" v:mID="245" v:groupContext="shape" transform="translate(539.925,-115.575)">
			<title>Sheet.245</title>
			<path d="M0 310.35 L36.45 310.35" class="st2"/>
		</g>
		<g id="shape246-358" v:mID="246" v:groupContext="shape" transform="translate(108.375,-115.575)">
			<title>Sheet.246</title>
			<path d="M0 306.75 L0 115.95 L468 115.95 L468 310.35 L489.6 310.35" class="st2"/>
		</g>
		<g id="shape247-361" v:mID="247" v:groupContext="shape" transform="translate(83.175,-65.175)">
			<title>Sheet.247</title>
			<path d="M0 310.35 L25.2 310.35" class="st2"/>
		</g>
		<g id="group248-364" transform="translate(291.225,266.775) rotate(-90)" v:mID="248" v:groupContext="group">
			<title>Sheet.248</title>
			<g id="shape249-365" v:mID="249" v:groupContext="shape" transform="translate(7.2,0)">
				<title>Sheet.249</title>
				<rect x="0" y="303.15" width="21.6" height="7.2" class="st1"/>
			</g>
			<g id="shape250-367" v:mID="250" v:groupContext="shape" transform="translate(1.59872E-14,-3.6)">
				<title>Sheet.250</title>
				<path d="M0 310.35 L7.2 310.35" class="st2"/>
			</g>
			<g id="shape251-370" v:mID="251" v:groupContext="shape" transform="translate(28.8,-3.6)">
				<title>Sheet.251</title>
				<path d="M0 310.35 L7.2 310.35" class="st2"/>
			</g>
		</g>
		<g id="shape252-373" v:mID="252" v:groupContext="shape" transform="translate(287.625,230.775) rotate(-90)">
			<title>Sheet.252</title>
			<path d="M0 310.35 L36 310.35" class="st2"/>
		</g>
		<g id="shape254-376" v:mID="254" v:groupContext="shape" transform="translate(583.575,-0.375)">
			<title>Sheet.254</title>
			<path d="M0 310.35 L14.4 310.35 L14.4 267.15" class="st2"/>
		</g>
		<g id="shape255-379" v:mID="255" v:groupContext="shape" transform="translate(594.375,-51.575)">
			<title>Sheet.255</title>
			<desc>RL</desc>
			<v:textBlock v:margins="rect(4,4,4,4)" v:tabSpace="42.5197"/>
			<v:textRect cx="14.4" cy="300.35" width="28.81" height="20"/>
			<rect x="0" y="290.35" width="28.8" height="20" class="st6"/>
			<text x="9.46" y="303.95" class="st7" v:langID="2057"><v:paragraph v:horizAlign="1"/><v:tabList/>R<tspan class="st8">L</tspan></text>		</g>
	</g>
</svg>
