<?xml version="1.0" encoding="UTF-8" standalone="no"?>
<!DOCTYPE svg PUBLIC "-//W3C//DTD SVG 1.1//EN" "http://www.w3.org/Graphics/SVG/1.1/DTD/svg11.dtd">
<!-- Generated by Microsoft Visio, SVG Export secretfreq.svg Secret Freq -->
<svg xmlns="http://www.w3.org/2000/svg" xmlns:xlink="http://www.w3.org/1999/xlink" xmlns:ev="http://www.w3.org/2001/xml-events"
		xmlns:v="http://schemas.microsoft.com/visio/2003/SVGExtensions/" width="11.6929in" height="8.26772in"
		viewBox="0 0 841.89 595.276" xml:space="preserve" color-interpolation-filters="sRGB" class="st12">
	<v:documentProperties v:langID="2057" v:metric="true" v:viewMarkup="false">
		<v:userDefs>
			<v:ud v:nameU="msvNoAutoConnect" v:val="VT0(1):26"/>
		</v:userDefs>
	</v:documentProperties>

	<style type="text/css">
	<![CDATA[
		.st1 {fill:#ffffff;stroke:#000000;stroke-linecap:round;stroke-linejoin:round;stroke-width:0.75}
		.st2 {stroke:#000000;stroke-linecap:round;stroke-linejoin:round;stroke-width:0.75}
		.st3 {marker-start:url(#mrkr5-32);stroke:#000000;stroke-linecap:round;stroke-linejoin:round;stroke-width:0.75}
		.st4 {fill:#000000;fill-opacity:1;stroke:#000000;stroke-opacity:1;stroke-width:0.22935779816514}
		.st5 {marker-end:url(#mrkr5-41);stroke:#000000;stroke-linecap:round;stroke-linejoin:round;stroke-width:0.75}
		.st6 {fill:none;stroke:none;stroke-linecap:round;stroke-linejoin:round;stroke-width:0.75}
		.st7 {fill:#000000;font-family:Calibri;font-size:1.00001em}
		.st8 {font-size:0.666659em}
		.st9 {fill:#000000;font-family:Calibri;font-size:0.666664em}
		.st10 {marker-end:url(#mrkr4-320);stroke:#000000;stroke-linecap:round;stroke-linejoin:round;stroke-width:0.75}
		.st11 {fill:#000000;fill-opacity:1;stroke:#000000;stroke-opacity:1;stroke-width:0.34246575342466}
		.st12 {fill:none;fill-rule:evenodd;font-size:12px;overflow:visible;stroke-linecap:square;stroke-miterlimit:3}
	]]>
	</style>

	<defs id="Markers">
		<g id="lend5">
			<path d="M 2 1 L 0 0 L 1.98117 -0.993387 C 1.67173 -0.364515 1.67301 0.372641 1.98465 1.00043 " style="stroke:none"/>
		</g>
		<marker id="mrkr5-32" class="st4" v:arrowType="5" v:arrowSize="2" v:setback="7.15" refX="7.15" orient="auto"
				markerUnits="strokeWidth" overflow="visible">
			<use xlink:href="#lend5" transform="scale(4.36) "/>
		</marker>
		<marker id="mrkr5-41" class="st4" v:arrowType="5" v:arrowSize="2" v:setback="7.63" refX="-7.63" orient="auto"
				markerUnits="strokeWidth" overflow="visible">
			<use xlink:href="#lend5" transform="scale(-4.36,-4.36) "/>
		</marker>
		<g id="lend4">
			<path d="M 2 1 L 0 0 L 2 -1 L 2 1 " style="stroke:none"/>
		</g>
		<marker id="mrkr4-320" class="st11" v:arrowType="4" v:arrowSize="0" v:setback="5.84" refX="-5.84" orient="auto"
				markerUnits="strokeWidth" overflow="visible">
			<use xlink:href="#lend4" transform="scale(-2.92,-2.92) "/>
		</marker>
	</defs>
	<g v:mID="49" v:index="3" v:groupContext="foregroundPage">
		<title>Secret Freq</title>
		<v:pageProperties v:drawingScale="1" v:pageScale="1" v:drawingUnits="0" v:shadowOffsetX="8.50394"
				v:shadowOffsetY="-8.50394"/>
		<g id="group18-1" transform="translate(111.6,-140.4)" v:mID="18" v:groupContext="group">
			<title>Sheet.18</title>
			<g id="shape19-2" v:mID="19" v:groupContext="shape" transform="translate(7.2,0)">
				<title>Sheet.19</title>
				<rect x="0" y="588.076" width="21.6" height="7.2" class="st1"/>
			</g>
			<g id="shape20-4" v:mID="20" v:groupContext="shape" transform="translate(1.59872E-14,-3.6)">
				<title>Sheet.20</title>
				<path d="M0 595.28 L7.2 595.28" class="st2"/>
			</g>
			<g id="shape21-7" v:mID="21" v:groupContext="shape" transform="translate(28.8,-3.6)">
				<title>Sheet.21</title>
				<path d="M0 595.28 L7.2 595.28" class="st2"/>
			</g>
		</g>
		<g id="shape25-10" v:mID="25" v:groupContext="shape" transform="translate(104.4,-93.6)">
			<title>Sheet.25</title>
			<path d="M0 595.28 L0 544.88 L7.2 544.88" class="st2"/>
		</g>
		<g id="shape26-13" v:mID="26" v:groupContext="shape" transform="translate(104.4,-43.2)">
			<title>Sheet.26</title>
			<path d="M0 580.88 L0 595.28 L349.65 595.28" class="st2"/>
		</g>
		<g id="group53-16" transform="translate(169.2,-61.2)" v:mID="53" v:groupContext="group">
			<title>Sheet.53</title>
			<g id="shape54-17" v:mID="54" v:groupContext="shape" transform="translate(0,-12.24)">
				<title>Sheet.54</title>
				<rect x="0" y="593.116" width="21.6" height="2.16003" class="st1"/>
			</g>
			<g id="shape55-19" v:mID="55" v:groupContext="shape" transform="translate(0,-7.20001)">
				<title>Sheet.55</title>
				<rect x="0" y="593.116" width="21.6" height="2.16003" class="st1"/>
			</g>
			<g id="shape56-21" v:mID="56" v:groupContext="shape" transform="translate(-584.476,580.876) rotate(-90)">
				<title>Sheet.56</title>
				<path d="M0 595.28 L7.2 595.28" class="st2"/>
			</g>
			<g id="shape57-24" v:mID="57" v:groupContext="shape" transform="translate(606.076,588.076) rotate(90)">
				<title>Sheet.57</title>
				<path d="M0 595.28 L7.2 595.28" class="st2"/>
			</g>
		</g>
		<g id="shape78-27" v:mID="78" v:groupContext="shape" transform="translate(320.4,-280.8)">
			<title>Sheet.78</title>
			<path d="M5.36 595.28 L5.72 595.28 L25.58 595.28" class="st3"/>
		</g>
		<g id="group80-33" transform="translate(64.8,-57.6)" v:mID="80" v:groupContext="group">
			<title>Sheet.80</title>
			<g id="shape81-34" v:mID="81" v:groupContext="shape" transform="translate(30.6,-9)">
				<title>Sheet.81</title>
				<ellipse cx="9" cy="586.276" rx="9" ry="9" class="st1"/>
			</g>
			<g id="shape82-36" v:mID="82" v:groupContext="shape" transform="translate(-555.676,582.676) rotate(-90)">
				<title>Sheet.82</title>
				<path d="M0 595.28 L5.08 595.28" class="st5"/>
			</g>
			<g id="shape83-42" v:mID="83" v:groupContext="shape" transform="translate(-555.676,568.278) rotate(-90)">
				<title>Sheet.83</title>
				<path d="M0 595.28 L9 595.28" class="st2"/>
			</g>
			<g id="shape84-45" v:mID="84" v:groupContext="shape" transform="translate(-555.676,595.276) rotate(-90)">
				<title>Sheet.84</title>
				<path d="M0 595.28 L9 595.28" class="st2"/>
			</g>
			<g id="shape85-48" v:mID="85" v:groupContext="shape" transform="translate(7.99361E-15,-9)">
				<title>Sheet.85</title>
				<desc>VIN</desc>
				<v:textBlock v:margins="rect(4,4,4,4)" v:tabSpace="42.5197"/>
				<v:textRect cx="14.4" cy="585.276" width="28.81" height="20"/>
				<rect x="0" y="575.276" width="28.8" height="20" class="st6"/>
				<text x="7.41" y="588.88" class="st7" v:langID="2057"><v:paragraph v:horizAlign="1"/><v:tabList/>V<tspan
							class="st8">IN</tspan></text>			</g>
		</g>
		<g id="shape106-52" v:mID="106" v:groupContext="shape" transform="translate(115.2,-144.16)">
			<title>Sheet.106</title>
			<desc>RS</desc>
			<v:textBlock v:margins="rect(4,4,4,4)" v:tabSpace="42.5197"/>
			<v:textRect cx="14.4" cy="585.276" width="28.81" height="20"/>
			<rect x="0" y="575.276" width="28.8" height="20" class="st6"/>
			<text x="9.3" y="588.88" class="st7" v:langID="2057"><v:paragraph v:horizAlign="1"/><v:tabList/>R<tspan class="st8">S</tspan></text>		</g>
		<g id="shape112-56" v:mID="112" v:groupContext="shape" transform="translate(288,-270.8)">
			<title>Sheet.112</title>
			<desc>VR1</desc>
			<v:textBlock v:margins="rect(4,4,4,4)" v:tabSpace="42.5197"/>
			<v:textRect cx="14.4" cy="585.276" width="28.81" height="20"/>
			<rect x="0" y="575.276" width="28.8" height="20" class="st6"/>
			<text x="5.71" y="588.88" class="st7" v:langID="2057"><v:paragraph v:horizAlign="1"/><v:tabList/>VR<tspan class="st8">1</tspan></text>		</g>
		<g id="shape114-60" v:mID="114" v:groupContext="shape" transform="translate(154.8,-73.6)">
			<title>Sheet.114</title>
			<desc>C1</desc>
			<v:textBlock v:margins="rect(4,4,4,4)" v:tabSpace="42.5197"/>
			<v:textRect cx="14.4" cy="585.276" width="28.81" height="20"/>
			<rect x="0" y="575.276" width="28.8" height="20" class="st6"/>
			<text x="9.17" y="588.88" class="st7" v:langID="2057"><v:paragraph v:horizAlign="1"/><v:tabList/>C<tspan class="st8">1</tspan></text>		</g>
		<g id="group122-64" transform="translate(-274.876,332.476) rotate(-90)" v:mID="122" v:groupContext="group">
			<title>Sheet.122</title>
			<g id="shape123-65" v:mID="123" v:groupContext="shape" transform="translate(7.2,0)">
				<title>Sheet.123</title>
				<rect x="0" y="588.076" width="21.6" height="7.2" class="st1"/>
			</g>
			<g id="shape124-67" v:mID="124" v:groupContext="shape" transform="translate(1.59872E-14,-3.6)">
				<title>Sheet.124</title>
				<path d="M0 595.28 L7.2 595.28" class="st2"/>
			</g>
			<g id="shape125-70" v:mID="125" v:groupContext="shape" transform="translate(28.8,-3.6)">
				<title>Sheet.125</title>
				<path d="M0 595.28 L7.2 595.28" class="st2"/>
			</g>
		</g>
		<g id="shape166-73" v:mID="166" v:groupContext="shape" transform="translate(417.6,-360)">
			<title>Sheet.166</title>
			<desc>R5</desc>
			<v:textBlock v:margins="rect(4,4,4,4)" v:tabSpace="42.5197"/>
			<v:textRect cx="14.4" cy="585.276" width="28.81" height="20"/>
			<rect x="0" y="575.276" width="28.8" height="20" class="st6"/>
			<text x="9.11" y="588.88" class="st7" v:langID="2057"><v:paragraph v:horizAlign="1"/><v:tabList/>R<tspan class="st8">5</tspan></text>		</g>
		<g id="group179-77" transform="translate(198,-140.4)" v:mID="179" v:groupContext="group">
			<title>Sheet.179</title>
			<g id="shape180-78" v:mID="180" v:groupContext="shape" transform="translate(7.2,0)">
				<title>Sheet.180</title>
				<rect x="0" y="588.076" width="21.6" height="7.2" class="st1"/>
			</g>
			<g id="shape181-80" v:mID="181" v:groupContext="shape" transform="translate(1.59872E-14,-3.6)">
				<title>Sheet.181</title>
				<path d="M0 595.28 L7.2 595.28" class="st2"/>
			</g>
			<g id="shape182-83" v:mID="182" v:groupContext="shape" transform="translate(28.8,-3.6)">
				<title>Sheet.182</title>
				<path d="M0 595.28 L7.2 595.28" class="st2"/>
			</g>
		</g>
		<g id="group183-86" transform="translate(324.45,-129.6)" v:mID="183" v:groupContext="group">
			<title>Sheet.183</title>
			<g id="shape184-87" v:mID="184" v:groupContext="shape" transform="translate(7.2,0)">
				<title>Sheet.184</title>
				<path d="M0 595.28 L43.2 566.48 L0 537.68 L0 595.28 Z" class="st1"/>
			</g>
			<g id="shape185-89" v:mID="185" v:groupContext="shape" transform="translate(0,-43.2)">
				<title>Sheet.185</title>
				<path d="M0 595.28 L7.2 595.28" class="st2"/>
			</g>
			<g id="shape186-92" v:mID="186" v:groupContext="shape" transform="translate(7.04715E-07,-14.4)">
				<title>Sheet.186</title>
				<path d="M0 595.28 L7.2 595.28" class="st2"/>
			</g>
			<g id="shape187-95" v:mID="187" v:groupContext="shape" transform="translate(50.4,-28.8)">
				<title>Sheet.187</title>
				<path d="M0 595.28 L6.75 595.28" class="st2"/>
			</g>
			<g id="shape188-98" v:mID="188" v:groupContext="shape" transform="translate(7.2,-39.6)">
				<title>Sheet.188</title>
				<desc>-</desc>
				<v:textBlock v:margins="rect(4,4,4,4)" v:tabSpace="42.5197"/>
				<v:textRect cx="6.95" cy="591.676" width="13.9" height="7.2"/>
				<rect x="0" y="588.076" width="13.9" height="7.2" class="st6"/>
				<text x="5.11" y="595.28" class="st7" v:langID="2057"><v:paragraph v:horizAlign="1"/><v:tabList/>-</text>			</g>
			<g id="shape189-101" v:mID="189" v:groupContext="shape" transform="translate(7.2,-10.8)">
				<title>Sheet.189</title>
				<desc>+</desc>
				<v:textBlock v:margins="rect(4,4,4,4)" v:tabSpace="42.5197"/>
				<v:textRect cx="6.95" cy="591.676" width="13.9" height="7.2"/>
				<rect x="0" y="588.076" width="13.9" height="7.2" class="st6"/>
				<text x="4" y="595.28" class="st7" v:langID="2057"><v:paragraph v:horizAlign="1"/><v:tabList/>+</text>			</g>
		</g>
		<g id="shape245-104" v:mID="245" v:groupContext="shape" transform="translate(432,-158.4)">
			<title>Sheet.245</title>
			<path d="M0 595.28 L71.72 595.28" class="st2"/>
		</g>
		<g id="group248-107" transform="translate(-87.9525,508.876) rotate(-90)" v:mID="248" v:groupContext="group">
			<title>Sheet.248</title>
			<g id="shape249-108" v:mID="249" v:groupContext="shape" transform="translate(7.2,0)">
				<title>Sheet.249</title>
				<rect x="0" y="588.076" width="21.6" height="7.2" class="st1"/>
			</g>
			<g id="shape250-110" v:mID="250" v:groupContext="shape" transform="translate(1.59872E-14,-3.6)">
				<title>Sheet.250</title>
				<path d="M0 595.28 L7.2 595.28" class="st2"/>
			</g>
			<g id="shape251-113" v:mID="251" v:groupContext="shape" transform="translate(28.8,-3.6)">
				<title>Sheet.251</title>
				<path d="M0 595.28 L7.2 595.28" class="st2"/>
			</g>
		</g>
		<g id="shape252-116" v:mID="252" v:groupContext="shape" transform="translate(-91.5525,472.876) rotate(-90)">
			<title>Sheet.252</title>
			<path d="M0 595.28 L36 595.28" class="st2"/>
		</g>
		<g id="shape254-119" v:mID="254" v:groupContext="shape" transform="translate(454.05,-43.2)">
			<title>Sheet.254</title>
			<path d="M0 595.28 L49.67 595.28 L49.67 552.08" class="st2"/>
		</g>
		<g id="shape255-122" v:mID="255" v:groupContext="shape" transform="translate(500.123,-94.4)">
			<title>Sheet.255</title>
			<desc>RL</desc>
			<v:textBlock v:margins="rect(4,4,4,4)" v:tabSpace="42.5197"/>
			<v:textRect cx="14.4" cy="585.276" width="28.81" height="20"/>
			<rect x="0" y="575.276" width="28.8" height="20" class="st6"/>
			<text x="9.46" y="588.88" class="st7" v:langID="2057"><v:paragraph v:horizAlign="1"/><v:tabList/>R<tspan class="st8">L</tspan></text>		</g>
		<g id="group152-126" transform="translate(414,-356.4)" v:mID="152" v:groupContext="group">
			<title>Sheet.152</title>
			<g id="shape153-127" v:mID="153" v:groupContext="shape" transform="translate(7.2,0)">
				<title>Sheet.153</title>
				<rect x="0" y="588.076" width="21.6" height="7.2" class="st1"/>
			</g>
			<g id="shape154-129" v:mID="154" v:groupContext="shape" transform="translate(1.59872E-14,-3.6)">
				<title>Sheet.154</title>
				<path d="M0 595.28 L7.2 595.28" class="st2"/>
			</g>
			<g id="shape155-132" v:mID="155" v:groupContext="shape" transform="translate(28.8,-3.6)">
				<title>Sheet.155</title>
				<path d="M0 595.28 L7.2 595.28" class="st2"/>
			</g>
		</g>
		<g id="shape257-135" v:mID="257" v:groupContext="shape" transform="translate(314.28,-270)">
			<title>Sheet.257</title>
			<desc>cw</desc>
			<v:textBlock v:margins="rect(4,4,4,4)" v:tabSpace="42.5197"/>
			<v:textRect cx="10.8" cy="591.676" width="21.61" height="7.2"/>
			<rect x="0" y="588.076" width="21.6" height="7.2" class="st6"/>
			<text x="8.5" y="594.08" class="st9" v:langID="2057"><v:paragraph v:horizAlign="2"/><v:tabList/>cw</text>		</g>
		<g id="group274-138" transform="translate(-339.789,494.476) rotate(-90)" v:mID="274" v:groupContext="group">
			<title>Sheet.274</title>
			<g id="shape275-139" v:mID="275" v:groupContext="shape" transform="translate(7.2,0)">
				<title>Sheet.275</title>
				<rect x="0" y="588.076" width="21.6" height="7.2" class="st1"/>
			</g>
			<g id="shape276-141" v:mID="276" v:groupContext="shape" transform="translate(1.59872E-14,-3.6)">
				<title>Sheet.276</title>
				<path d="M0 595.28 L7.2 595.28" class="st2"/>
			</g>
			<g id="shape277-144" v:mID="277" v:groupContext="shape" transform="translate(28.8,-3.6)">
				<title>Sheet.277</title>
				<path d="M0 595.28 L7.2 595.28" class="st2"/>
			</g>
		</g>
		<g id="shape278-147" v:mID="278" v:groupContext="shape" transform="translate(248.4,-108.8)">
			<title>Sheet.278</title>
			<desc>R2</desc>
			<v:textBlock v:margins="rect(4,4,4,4)" v:tabSpace="42.5197"/>
			<v:textRect cx="14.4" cy="585.276" width="28.81" height="20"/>
			<rect x="0" y="575.276" width="28.8" height="20" class="st6"/>
			<text x="9.11" y="588.88" class="st7" v:langID="2057"><v:paragraph v:horizAlign="1"/><v:tabList/>R<tspan class="st8">2</tspan></text>		</g>
		<g id="group280-151" transform="translate(241.2,-61.2)" v:mID="280" v:groupContext="group">
			<title>Sheet.280</title>
			<g id="shape281-152" v:mID="281" v:groupContext="shape" transform="translate(0,-12.24)">
				<title>Sheet.281</title>
				<rect x="0" y="593.116" width="21.6" height="2.16003" class="st1"/>
			</g>
			<g id="shape282-154" v:mID="282" v:groupContext="shape" transform="translate(0,-7.20001)">
				<title>Sheet.282</title>
				<rect x="0" y="593.116" width="21.6" height="2.16003" class="st1"/>
			</g>
			<g id="shape283-156" v:mID="283" v:groupContext="shape" transform="translate(-584.476,580.876) rotate(-90)">
				<title>Sheet.283</title>
				<path d="M0 595.28 L7.2 595.28" class="st2"/>
			</g>
			<g id="shape284-159" v:mID="284" v:groupContext="shape" transform="translate(606.076,588.076) rotate(90)">
				<title>Sheet.284</title>
				<path d="M0 595.28 L7.2 595.28" class="st2"/>
			</g>
		</g>
		<g id="shape285-162" v:mID="285" v:groupContext="shape" transform="translate(226.8,-73.6)">
			<title>Sheet.285</title>
			<desc>C2</desc>
			<v:textBlock v:margins="rect(4,4,4,4)" v:tabSpace="42.5197"/>
			<v:textRect cx="14.4" cy="585.276" width="28.81" height="20"/>
			<rect x="0" y="575.276" width="28.8" height="20" class="st6"/>
			<text x="9.17" y="588.88" class="st7" v:langID="2057"><v:paragraph v:horizAlign="1"/><v:tabList/>C<tspan class="st8">2</tspan></text>		</g>
		<g id="shape286-166" v:mID="286" v:groupContext="shape" transform="translate(201.6,-144)">
			<title>Sheet.286</title>
			<desc>R1</desc>
			<v:textBlock v:margins="rect(4,4,4,4)" v:tabSpace="42.5197"/>
			<v:textRect cx="14.4" cy="585.276" width="28.81" height="20"/>
			<rect x="0" y="575.276" width="28.8" height="20" class="st6"/>
			<text x="9.11" y="588.88" class="st7" v:langID="2057"><v:paragraph v:horizAlign="1"/><v:tabList/>R<tspan class="st8">1</tspan></text>		</g>
		<g id="shape287-170" v:mID="287" v:groupContext="shape" transform="translate(234,-136.8)">
			<title>Sheet.287</title>
			<path d="M0 588.08 L17.89 588.08 L17.89 595.28" class="st2"/>
		</g>
		<g id="shape288-173" v:mID="288" v:groupContext="shape" transform="translate(775.276,534.076) rotate(90)">
			<title>Sheet.288</title>
			<path d="M0 595.28 L18 595.28" class="st2"/>
		</g>
		<g id="shape289-176" v:mID="289" v:groupContext="shape" transform="translate(198,1046.55) rotate(180)">
			<title>Sheet.289</title>
			<path d="M0 595.28 L18 595.28" class="st2"/>
		</g>
		<g id="shape290-179" v:mID="290" v:groupContext="shape" transform="translate(147.6,-82.8)">
			<title>Sheet.290</title>
			<path d="M0 534.08 L32.29 534.08 L32.29 595.28" class="st2"/>
		</g>
		<g id="shape291-182" v:mID="291" v:groupContext="shape" transform="translate(847.276,534.076) rotate(90)">
			<title>Sheet.291</title>
			<path d="M0 595.28 L18 595.28" class="st2"/>
		</g>
		<g id="shape292-185" v:mID="292" v:groupContext="shape" transform="translate(847.276,494.476) rotate(90)">
			<title>Sheet.292</title>
			<path d="M0 595.28 L18 595.28" class="st2"/>
		</g>
		<g id="shape298-188" v:mID="298" v:groupContext="shape" transform="translate(270,1046.55) rotate(180)">
			<title>Sheet.298</title>
			<path d="M0 595.28 L18 595.28" class="st2"/>
		</g>
		<g id="shape299-191" v:mID="299" v:groupContext="shape" transform="translate(324,1046.55) rotate(180)">
			<title>Sheet.299</title>
			<path d="M0 595.28 L54 595.28" class="st2"/>
		</g>
		<g id="group300-194" transform="translate(338.4,-205.2)" v:mID="300" v:groupContext="group">
			<title>Sheet.300</title>
			<g id="shape301-195" v:mID="301" v:groupContext="shape" transform="translate(7.2,0)">
				<title>Sheet.301</title>
				<rect x="0" y="588.076" width="21.6" height="7.2" class="st1"/>
			</g>
			<g id="shape302-197" v:mID="302" v:groupContext="shape" transform="translate(1.59872E-14,-3.6)">
				<title>Sheet.302</title>
				<path d="M0 595.28 L7.2 595.28" class="st2"/>
			</g>
			<g id="shape303-200" v:mID="303" v:groupContext="shape" transform="translate(28.8,-3.6)">
				<title>Sheet.303</title>
				<path d="M0 595.28 L7.2 595.28" class="st2"/>
			</g>
		</g>
		<g id="shape304-203" v:mID="304" v:groupContext="shape" transform="translate(316.8,-172.8)">
			<title>Sheet.304</title>
			<path d="M21.6 559.28 L0 559.28 L0 595.28" class="st2"/>
		</g>
		<g id="shape305-206" v:mID="305" v:groupContext="shape" transform="translate(374.4,-158.4)">
			<title>Sheet.305</title>
			<path d="M0 544.88 L14.4 544.88 L14.4 595.28" class="st2"/>
		</g>
		<g id="shape306-209" v:mID="306" v:groupContext="shape" transform="translate(324.45,1017.75) rotate(180)">
			<title>Sheet.306</title>
			<path d="M0 595.28 L7.65 595.28" class="st2"/>
		</g>
		<g id="shape307-212" v:mID="307" v:groupContext="shape" transform="translate(381.6,-158.4)">
			<title>Sheet.307</title>
			<path d="M0 595.28 L50.4 595.28" class="st2"/>
		</g>
		<g id="group308-215" transform="translate(940.876,340.244) rotate(90)" v:mID="308" v:groupContext="group">
			<title>Sheet.308</title>
			<g id="shape309-216" v:mID="309" v:groupContext="shape" transform="translate(0,-12.24)">
				<title>Sheet.309</title>
				<rect x="0" y="593.116" width="21.6" height="2.16003" class="st1"/>
			</g>
			<g id="shape310-218" v:mID="310" v:groupContext="shape" transform="translate(0,-7.20001)">
				<title>Sheet.310</title>
				<rect x="0" y="593.116" width="21.6" height="2.16003" class="st1"/>
			</g>
			<g id="shape311-220" v:mID="311" v:groupContext="shape" transform="translate(-584.476,580.876) rotate(-90)">
				<title>Sheet.311</title>
				<path d="M0 595.28 L7.2 595.28" class="st2"/>
			</g>
			<g id="shape312-223" v:mID="312" v:groupContext="shape" transform="translate(606.076,588.076) rotate(90)">
				<title>Sheet.312</title>
				<path d="M0 595.28 L7.2 595.28" class="st2"/>
			</g>
		</g>
		<g id="shape319-226" v:mID="319" v:groupContext="shape" transform="translate(316.8,-208.8)">
			<title>Sheet.319</title>
			<path d="M28.8 559.84 L0 559.84 L0 595.28" class="st2"/>
		</g>
		<g id="shape320-229" v:mID="320" v:groupContext="shape" transform="translate(367.2,-209.084)">
			<title>Sheet.320</title>
			<path d="M0 560.13 L21.6 560.13 L21.6 595.28" class="st2"/>
		</g>
		<g id="shape321-232" v:mID="321" v:groupContext="shape" transform="translate(342,-208.8)">
			<title>Sheet.321</title>
			<desc>R4</desc>
			<v:textBlock v:margins="rect(4,4,4,4)" v:tabSpace="42.5197"/>
			<v:textRect cx="14.4" cy="585.276" width="28.81" height="20"/>
			<rect x="0" y="575.276" width="28.8" height="20" class="st6"/>
			<text x="9.11" y="588.88" class="st7" v:langID="2057"><v:paragraph v:horizAlign="1"/><v:tabList/>R<tspan class="st8">4</tspan></text>		</g>
		<g id="shape322-236" v:mID="322" v:groupContext="shape" transform="translate(313.2,-108.8)">
			<title>Sheet.322</title>
			<desc>R3</desc>
			<v:textBlock v:margins="rect(4,4,4,4)" v:tabSpace="42.5197"/>
			<v:textRect cx="14.4" cy="585.276" width="28.81" height="20"/>
			<rect x="0" y="575.276" width="28.8" height="20" class="st6"/>
			<text x="9.11" y="588.88" class="st7" v:langID="2057"><v:paragraph v:horizAlign="1"/><v:tabList/>R<tspan class="st8">3</tspan></text>		</g>
		<g id="group323-240" transform="translate(306,-61.2)" v:mID="323" v:groupContext="group">
			<title>Sheet.323</title>
			<g id="shape324-241" v:mID="324" v:groupContext="shape" transform="translate(0,-12.24)">
				<title>Sheet.324</title>
				<rect x="0" y="593.116" width="21.6" height="2.16003" class="st1"/>
			</g>
			<g id="shape325-243" v:mID="325" v:groupContext="shape" transform="translate(0,-7.20001)">
				<title>Sheet.325</title>
				<rect x="0" y="593.116" width="21.6" height="2.16003" class="st1"/>
			</g>
			<g id="shape326-245" v:mID="326" v:groupContext="shape" transform="translate(-584.476,580.876) rotate(-90)">
				<title>Sheet.326</title>
				<path d="M0 595.28 L7.2 595.28" class="st2"/>
			</g>
			<g id="shape327-248" v:mID="327" v:groupContext="shape" transform="translate(606.076,588.076) rotate(90)">
				<title>Sheet.327</title>
				<path d="M0 595.28 L7.2 595.28" class="st2"/>
			</g>
		</g>
		<g id="shape328-251" v:mID="328" v:groupContext="shape" transform="translate(291.6,-73.6)">
			<title>Sheet.328</title>
			<desc>C3</desc>
			<v:textBlock v:margins="rect(4,4,4,4)" v:tabSpace="42.5197"/>
			<v:textRect cx="14.4" cy="585.276" width="28.81" height="20"/>
			<rect x="0" y="575.276" width="28.8" height="20" class="st6"/>
			<text x="9.17" y="588.88" class="st7" v:langID="2057"><v:paragraph v:horizAlign="1"/><v:tabList/>C<tspan class="st8">3</tspan></text>		</g>
		<g id="shape329-255" v:mID="329" v:groupContext="shape" transform="translate(912.076,494.476) rotate(90)">
			<title>Sheet.329</title>
			<path d="M0 595.28 L18 595.28" class="st2"/>
		</g>
		<g id="group330-258" transform="translate(-274.876,494.476) rotate(-90)" v:mID="330" v:groupContext="group">
			<title>Sheet.330</title>
			<g id="shape331-259" v:mID="331" v:groupContext="shape" transform="translate(7.2,0)">
				<title>Sheet.331</title>
				<rect x="0" y="588.076" width="21.6" height="7.2" class="st1"/>
			</g>
			<g id="shape332-261" v:mID="332" v:groupContext="shape" transform="translate(1.59872E-14,-3.6)">
				<title>Sheet.332</title>
				<path d="M0 595.28 L7.2 595.28" class="st2"/>
			</g>
			<g id="shape333-264" v:mID="333" v:groupContext="shape" transform="translate(28.8,-3.6)">
				<title>Sheet.333</title>
				<path d="M0 595.28 L7.2 595.28" class="st2"/>
			</g>
		</g>
		<g id="shape334-267" v:mID="334" v:groupContext="shape" transform="translate(912.076,422.476) rotate(90)">
			<title>Sheet.334</title>
			<path d="M0 595.28 L21.6 595.28" class="st2"/>
		</g>
		<g id="shape335-270" v:mID="335" v:groupContext="shape" transform="translate(912.076,534.076) rotate(90)">
			<title>Sheet.335</title>
			<path d="M0 595.28 L18 595.28" class="st2"/>
		</g>
		<g id="shape336-273" v:mID="336" v:groupContext="shape" transform="translate(912.076,332.476) rotate(90)">
			<title>Sheet.336</title>
			<path d="M0 595.28 L18.57 595.28" class="st2"/>
		</g>
		<g id="group337-276" transform="translate(940.876,303.676) rotate(90)" v:mID="337" v:groupContext="group">
			<title>Sheet.337</title>
			<g id="shape338-277" v:mID="338" v:groupContext="shape" transform="translate(0,-12.24)">
				<title>Sheet.338</title>
				<rect x="0" y="593.116" width="21.6" height="2.16003" class="st1"/>
			</g>
			<g id="shape339-279" v:mID="339" v:groupContext="shape" transform="translate(0,-7.20001)">
				<title>Sheet.339</title>
				<rect x="0" y="593.116" width="21.6" height="2.16003" class="st1"/>
			</g>
			<g id="shape340-281" v:mID="340" v:groupContext="shape" transform="translate(-584.476,580.876) rotate(-90)">
				<title>Sheet.340</title>
				<path d="M0 595.28 L7.2 595.28" class="st2"/>
			</g>
			<g id="shape341-284" v:mID="341" v:groupContext="shape" transform="translate(606.076,588.076) rotate(90)">
				<title>Sheet.341</title>
				<path d="M0 595.28 L7.2 595.28" class="st2"/>
			</g>
		</g>
		<g id="shape342-287" v:mID="342" v:groupContext="shape" transform="translate(355.104,-277.92)">
			<title>Sheet.342</title>
			<desc>C4</desc>
			<v:textBlock v:margins="rect(4,4,4,4)" v:tabSpace="42.5197"/>
			<v:textRect cx="14.4" cy="585.276" width="28.81" height="20"/>
			<rect x="0" y="575.276" width="28.8" height="20" class="st6"/>
			<text x="9.17" y="588.88" class="st7" v:langID="2057"><v:paragraph v:horizAlign="1"/><v:tabList/>C<tspan class="st8">4</tspan></text>		</g>
		<g id="group349-291" transform="translate(991.276,303.676) rotate(90)" v:mID="349" v:groupContext="group">
			<title>Sheet.349</title>
			<g id="shape350-292" v:mID="350" v:groupContext="shape" transform="translate(0,-12.24)">
				<title>Sheet.350</title>
				<rect x="0" y="593.116" width="21.6" height="2.16003" class="st1"/>
			</g>
			<g id="shape351-294" v:mID="351" v:groupContext="shape" transform="translate(0,-7.20001)">
				<title>Sheet.351</title>
				<rect x="0" y="593.116" width="21.6" height="2.16003" class="st1"/>
			</g>
			<g id="shape352-296" v:mID="352" v:groupContext="shape" transform="translate(-584.476,580.876) rotate(-90)">
				<title>Sheet.352</title>
				<path d="M0 595.28 L7.2 595.28" class="st2"/>
			</g>
			<g id="shape353-299" v:mID="353" v:groupContext="shape" transform="translate(606.076,588.076) rotate(90)">
				<title>Sheet.353</title>
				<path d="M0 595.28 L7.2 595.28" class="st2"/>
			</g>
		</g>
		<g id="shape354-302" v:mID="354" v:groupContext="shape" transform="translate(405.504,-277.92)">
			<title>Sheet.354</title>
			<desc>C5</desc>
			<v:textBlock v:margins="rect(4,4,4,4)" v:tabSpace="42.5197"/>
			<v:textRect cx="14.4" cy="585.276" width="28.81" height="20"/>
			<rect x="0" y="575.276" width="28.8" height="20" class="st6"/>
			<text x="9.17" y="588.88" class="st7" v:langID="2057"><v:paragraph v:horizAlign="1"/><v:tabList/>C<tspan class="st8">5</tspan></text>		</g>
		<g id="shape355-306" v:mID="355" v:groupContext="shape" transform="translate(367.2,-280.8)">
			<title>Sheet.355</title>
			<path d="M0 595.28 L28.8 595.28" class="st2"/>
		</g>
		<g id="group362-309" transform="translate(446.4,-266.4)" v:mID="362" v:groupContext="group">
			<title>Sheet.362</title>
			<g id="shape356-310" v:mID="356" v:groupContext="shape" transform="translate(7.2,-7.20002)">
				<title>Sheet.356</title>
				<rect x="0" y="580.876" width="3.60001" height="14.4" class="st1"/>
			</g>
			<g id="shape357-312" v:mID="357" v:groupContext="shape" transform="translate(-295.467,66.1109) rotate(-30.9637)">
				<title>Sheet.357</title>
				<path d="M0 595.28 L12.59 595.28" class="st2"/>
			</g>
			<g id="shape358-315" v:mID="358" v:groupContext="shape" transform="translate(317.068,74.7517) rotate(30.9639)">
				<title>Sheet.358</title>
				<path d="M0 595.28 L8.21 595.28" class="st10"/>
			</g>
			<g id="shape359-321" v:mID="359" v:groupContext="shape" transform="translate(0,-14.4)">
				<title>Sheet.359</title>
				<path d="M0 595.28 L7.2 595.28" class="st2"/>
			</g>
			<g id="shape360-324" v:mID="360" v:groupContext="shape" transform="translate(-573.676,570.076) rotate(-90)">
				<title>Sheet.360</title>
				<path d="M0 595.28 L3.6 595.28" class="st2"/>
			</g>
			<g id="shape361-327" v:mID="361" v:groupContext="shape" transform="translate(616.876,591.676) rotate(90)">
				<title>Sheet.361</title>
				<path d="M0 595.28 L3.6 595.28" class="st2"/>
			</g>
		</g>
		<g id="shape363-330" v:mID="363" v:groupContext="shape" transform="translate(417.6,-280.8)">
			<title>Sheet.363</title>
			<path d="M0 595.28 L28.8 595.28" class="st2"/>
		</g>
		<g id="group365-333" transform="translate(-159.676,379.276) rotate(-90)" v:mID="365" v:groupContext="group">
			<title>Sheet.365</title>
			<g id="shape366-334" v:mID="366" v:groupContext="shape" transform="translate(7.2,0)">
				<title>Sheet.366</title>
				<rect x="0" y="588.076" width="21.6" height="7.2" class="st1"/>
			</g>
			<g id="shape367-336" v:mID="367" v:groupContext="shape" transform="translate(1.59872E-14,-3.6)">
				<title>Sheet.367</title>
				<path d="M0 595.28 L7.2 595.28" class="st2"/>
			</g>
			<g id="shape368-339" v:mID="368" v:groupContext="shape" transform="translate(28.8,-3.6)">
				<title>Sheet.368</title>
				<path d="M0 595.28 L7.2 595.28" class="st2"/>
			</g>
		</g>
		<g id="group370-342" transform="translate(-123.676,379.276) rotate(-90)" v:mID="370" v:groupContext="group">
			<title>Sheet.370</title>
			<g id="shape371-343" v:mID="371" v:groupContext="shape" transform="translate(7.2,0)">
				<title>Sheet.371</title>
				<rect x="0" y="588.076" width="21.6" height="7.2" class="st1"/>
			</g>
			<g id="shape372-345" v:mID="372" v:groupContext="shape" transform="translate(1.59872E-14,-3.6)">
				<title>Sheet.372</title>
				<path d="M0 595.28 L7.2 595.28" class="st2"/>
			</g>
			<g id="shape373-348" v:mID="373" v:groupContext="shape" transform="translate(28.8,-3.6)">
				<title>Sheet.373</title>
				<path d="M0 595.28 L7.2 595.28" class="st2"/>
			</g>
		</g>
		<g id="shape374-351" v:mID="374" v:groupContext="shape" transform="translate(-163.276,343.276) rotate(-90)">
			<title>Sheet.374</title>
			<path d="M0 595.28 L28.8 595.28" class="st2"/>
		</g>
		<g id="shape375-354" v:mID="375" v:groupContext="shape" transform="translate(-127.276,343.276) rotate(-90)">
			<title>Sheet.375</title>
			<path d="M0 595.28 L14.4 595.28" class="st2"/>
		</g>
		<g id="shape376-357" v:mID="376" v:groupContext="shape" transform="translate(-127.276,300.076) rotate(-90)">
			<title>Sheet.376</title>
			<path d="M0 595.28 L28.8 595.28" class="st2"/>
		</g>
		<g id="shape377-360" v:mID="377" v:groupContext="shape" transform="translate(460.8,-324)">
			<title>Sheet.377</title>
			<path d="M0 595.28 L14.4 595.28" class="st2"/>
		</g>
		<g id="shape378-363" v:mID="378" v:groupContext="shape" transform="translate(1027.28,379.276) rotate(90)">
			<title>Sheet.378</title>
			<path d="M0 595.28 L21.6 595.28" class="st2"/>
		</g>
		<g id="shape379-366" v:mID="379" v:groupContext="shape" transform="translate(424.8,-194.4)">
			<title>Sheet.379</title>
			<path d="M0 595.28 L14.4 595.28" class="st2"/>
		</g>
		<g id="shape383-369" v:mID="383" v:groupContext="shape" transform="translate(385.2,-280.8)">
			<title>Sheet.383</title>
			<path d="M28.8 516.08 L0 516.08 L0 595.28" class="st2"/>
		</g>
		<g id="shape384-372" v:mID="384" v:groupContext="shape" transform="translate(450,-259.2)">
			<title>Sheet.384</title>
			<path d="M0 494.48 L54 494.48 L54 595.28" class="st2"/>
		</g>
		<g id="shape385-375" v:mID="385" v:groupContext="shape" transform="translate(468,-259.2)">
			<title>Sheet.385</title>
			<path d="M0 595.28 L36 595.28" class="st2"/>
		</g>
		<g id="shape386-378" v:mID="386" v:groupContext="shape" transform="translate(1063.28,379.276) rotate(90)">
			<title>Sheet.386</title>
			<path d="M0 595.28 L54 595.28" class="st2"/>
		</g>
		<g id="shape387-381" v:mID="387" v:groupContext="shape" transform="translate(1063.28,440.476) rotate(90)">
			<title>Sheet.387</title>
			<path d="M0 595.28 L111.6 595.28" class="st2"/>
		</g>
	</g>
</svg>
