<?xml version="1.0" encoding="UTF-8" standalone="no"?>
<!DOCTYPE svg PUBLIC "-//W3C//DTD SVG 1.1//EN" "http://www.w3.org/Graphics/SVG/1.1/DTD/svg11.dtd">
<!-- Generated by Microsoft Visio, SVG Export simplerchi.svg Page-1 -->
<svg xmlns="http://www.w3.org/2000/svg" xmlns:xlink="http://www.w3.org/1999/xlink" xmlns:ev="http://www.w3.org/2001/xml-events"
		xmlns:v="http://schemas.microsoft.com/visio/2003/SVGExtensions/" width="3.01042in" height="0.988194in"
		viewBox="0 0 216.75 71.15" xml:space="preserve" color-interpolation-filters="sRGB" class="st9">
	<v:documentProperties v:langID="2057" v:metric="true" v:viewMarkup="false"/>

	<style type="text/css">
	<![CDATA[
		.st1 {fill:#ffffff;stroke:#000000;stroke-linecap:round;stroke-linejoin:round;stroke-width:0.75}
		.st2 {stroke:#000000;stroke-linecap:round;stroke-linejoin:round;stroke-width:0.75}
		.st3 {marker-end:url(#mrkr5-62);stroke:#000000;stroke-linecap:round;stroke-linejoin:round;stroke-width:0.75}
		.st4 {fill:#000000;fill-opacity:1;stroke:#000000;stroke-opacity:1;stroke-width:0.22935779816514}
		.st5 {fill:none;stroke:none;stroke-linecap:round;stroke-linejoin:round;stroke-width:0.75}
		.st6 {fill:#000000;font-family:Calibri;font-size:1.00001em}
		.st7 {font-size:0.666659em}
		.st8 {fill:#000000;font-family:Calibri;font-size:0.666664em}
		.st9 {fill:none;fill-rule:evenodd;font-size:12px;overflow:visible;stroke-linecap:square;stroke-miterlimit:3}
	]]>
	</style>

	<defs id="Markers">
		<g id="lend5">
			<path d="M 2 1 L 0 0 L 1.98117 -0.993387 C 1.67173 -0.364515 1.67301 0.372641 1.98465 1.00043 " style="stroke:none"/>
		</g>
		<marker id="mrkr5-62" class="st4" v:arrowType="5" v:arrowSize="2" v:setback="7.63" refX="-7.63" orient="auto"
				markerUnits="strokeWidth" overflow="visible">
			<use xlink:href="#lend5" transform="scale(-4.36,-4.36) "/>
		</marker>
	</defs>
	<g v:mID="0" v:index="1" v:groupContext="foregroundPage">
		<title>Page-1</title>
		<v:pageProperties v:drawingScale="1" v:pageScale="1" v:drawingUnits="0" v:shadowOffsetX="8.50394"
				v:shadowOffsetY="-8.50394"/>
		<g id="group18-1" transform="translate(47.175,-47.175)" v:mID="18" v:groupContext="group">
			<title>Sheet.18</title>
			<g id="shape19-2" v:mID="19" v:groupContext="shape" transform="translate(7.2,0)">
				<title>Sheet.19</title>
				<rect x="0" y="63.95" width="21.6" height="7.2" class="st1"/>
			</g>
			<g id="shape20-4" v:mID="20" v:groupContext="shape" transform="translate(1.59872E-14,-3.6)">
				<title>Sheet.20</title>
				<path d="M0 71.15 L7.2 71.15" class="st2"/>
			</g>
			<g id="shape21-7" v:mID="21" v:groupContext="shape" transform="translate(28.8,-3.6)">
				<title>Sheet.21</title>
				<path d="M0 71.15 L7.2 71.15" class="st2"/>
			</g>
		</g>
		<g id="shape25-10" v:mID="25" v:groupContext="shape" transform="translate(39.975,-43.575)">
			<title>Sheet.25</title>
			<path d="M0 71.15 L0 63.95 L7.2 63.95" class="st2"/>
		</g>
		<g id="group27-13" transform="translate(73.225,63.575) rotate(-90)" v:mID="27" v:groupContext="group">
			<title>Sheet.27</title>
			<g id="shape28-14" v:mID="28" v:groupContext="shape" transform="translate(7.2,0)">
				<title>Sheet.28</title>
				<rect x="0" y="63.95" width="21.6" height="7.2" class="st1"/>
			</g>
			<g id="shape29-16" v:mID="29" v:groupContext="shape" transform="translate(1.59872E-14,-3.6)">
				<title>Sheet.29</title>
				<path d="M0 71.15 L7.2 71.15" class="st2"/>
			</g>
			<g id="shape30-19" v:mID="30" v:groupContext="shape" transform="translate(28.8,-3.6)">
				<title>Sheet.30</title>
				<path d="M0 71.15 L7.2 71.15" class="st2"/>
			</g>
		</g>
		<g id="group43-22" transform="translate(175.925,9.575) rotate(90)" v:mID="43" v:groupContext="group">
			<title>Sheet.43</title>
			<g id="shape44-23" v:mID="44" v:groupContext="shape" transform="translate(0,-12.24)">
				<title>Sheet.44</title>
				<rect x="0" y="68.99" width="21.6" height="2.16003" class="st1"/>
			</g>
			<g id="shape45-25" v:mID="45" v:groupContext="shape" transform="translate(0,-7.20001)">
				<title>Sheet.45</title>
				<rect x="0" y="68.99" width="21.6" height="2.16003" class="st1"/>
			</g>
			<g id="shape46-27" v:mID="46" v:groupContext="shape" transform="translate(-60.35,56.75) rotate(-90)">
				<title>Sheet.46</title>
				<path d="M0 71.15 L7.2 71.15" class="st2"/>
			</g>
			<g id="shape47-30" v:mID="47" v:groupContext="shape" transform="translate(81.95,63.95) rotate(90)">
				<title>Sheet.47</title>
				<path d="M0 71.15 L7.2 71.15" class="st2"/>
			</g>
		</g>
		<g id="shape58-33" v:mID="58" v:groupContext="shape" transform="translate(83.175,-50.775)">
			<title>Sheet.58</title>
			<path d="M0 71.15 L21.6 71.15" class="st2"/>
		</g>
		<g id="shape60-36" v:mID="60" v:groupContext="shape" transform="translate(126.375,-43.575)">
			<title>Sheet.60</title>
			<path d="M0 63.95 L14.4 63.95 L14.4 71.15" class="st2"/>
		</g>
		<g id="shape62-39" v:mID="62" v:groupContext="shape" transform="translate(140.775,-0.375)">
			<title>Sheet.62</title>
			<path d="M0 71.15 L0 67.55 L0 63.95" class="st2"/>
		</g>
		<g id="group71-42" transform="translate(123.625,63.575) rotate(-90)" v:mID="71" v:groupContext="group">
			<title>Sheet.71</title>
			<g id="shape72-43" v:mID="72" v:groupContext="shape" transform="translate(7.2,0)">
				<title>Sheet.72</title>
				<rect x="0" y="63.95" width="21.6" height="7.2" class="st1"/>
			</g>
			<g id="shape73-45" v:mID="73" v:groupContext="shape" transform="translate(1.59872E-14,-3.6)">
				<title>Sheet.73</title>
				<path d="M0 71.15 L7.2 71.15" class="st2"/>
			</g>
			<g id="shape74-48" v:mID="74" v:groupContext="shape" transform="translate(28.8,-3.6)">
				<title>Sheet.74</title>
				<path d="M0 71.15 L7.2 71.15" class="st2"/>
			</g>
		</g>
		<g id="shape76-51" v:mID="76" v:groupContext="shape" transform="translate(158.775,-43.575)">
			<title>Sheet.76</title>
			<path d="M32.4 71.15 L32.4 63.95 L0 63.95" class="st2"/>
		</g>
		<g id="group80-54" transform="translate(0.375,-7.575)" v:mID="80" v:groupContext="group">
			<title>Sheet.80</title>
			<g id="shape81-55" v:mID="81" v:groupContext="shape" transform="translate(30.6,-9)">
				<title>Sheet.81</title>
				<ellipse cx="9" cy="62.15" rx="9" ry="9" class="st1"/>
			</g>
			<g id="shape82-57" v:mID="82" v:groupContext="shape" transform="translate(-31.55,58.55) rotate(-90)">
				<title>Sheet.82</title>
				<path d="M0 71.15 L5.08 71.15" class="st3"/>
			</g>
			<g id="shape83-63" v:mID="83" v:groupContext="shape" transform="translate(-31.55,44.1523) rotate(-90)">
				<title>Sheet.83</title>
				<path d="M0 71.15 L9 71.15" class="st2"/>
			</g>
			<g id="shape84-66" v:mID="84" v:groupContext="shape" transform="translate(-31.55,71.15) rotate(-90)">
				<title>Sheet.84</title>
				<path d="M0 71.15 L9 71.15" class="st2"/>
			</g>
			<g id="shape85-69" v:mID="85" v:groupContext="shape" transform="translate(7.99361E-15,-9)">
				<title>Sheet.85</title>
				<desc>VIN</desc>
				<v:textBlock v:margins="rect(4,4,4,4)" v:tabSpace="42.5197"/>
				<v:textRect cx="14.4" cy="61.15" width="28.81" height="20"/>
				<rect x="0" y="51.15" width="28.8" height="20" class="st5"/>
				<text x="7.41" y="64.75" class="st6" v:langID="2057"><v:paragraph v:horizAlign="1"/><v:tabList/>V<tspan class="st7">IN</tspan></text>			</g>
		</g>
		<g id="shape86-73" v:mID="86" v:groupContext="shape" transform="translate(50.775,-50.775)">
			<title>Sheet.86</title>
			<desc>RS</desc>
			<v:textBlock v:margins="rect(4,4,4,4)" v:tabSpace="42.5197"/>
			<v:textRect cx="14.4" cy="61.15" width="28.81" height="20"/>
			<rect x="0" y="51.15" width="28.8" height="20" class="st5"/>
			<text x="9.3" y="64.75" class="st6" v:langID="2057"><v:paragraph v:horizAlign="1"/><v:tabList/>R<tspan class="st7">S</tspan></text>		</g>
		<g id="shape87-77" v:mID="87" v:groupContext="shape" transform="translate(187.575,-15.575)">
			<title>Sheet.87</title>
			<desc>RL</desc>
			<v:textBlock v:margins="rect(4,4,4,4)" v:tabSpace="42.5197"/>
			<v:textRect cx="14.4" cy="61.15" width="28.81" height="20"/>
			<rect x="0" y="51.15" width="28.8" height="20" class="st5"/>
			<text x="9.46" y="64.75" class="st6" v:langID="2057"><v:paragraph v:horizAlign="1"/><v:tabList/>R<tspan class="st7">L</tspan></text>		</g>
		<g id="shape90-81" v:mID="90" v:groupContext="shape" transform="translate(88.4803,-50.775)">
			<title>Sheet.90</title>
			<desc>C1</desc>
			<v:textBlock v:margins="rect(4,4,4,4)" v:tabSpace="42.5197"/>
			<v:textRect cx="14.4" cy="61.15" width="28.81" height="20"/>
			<rect x="0" y="51.15" width="28.8" height="20" class="st5"/>
			<text x="9.17" y="64.75" class="st6" v:langID="2057"><v:paragraph v:horizAlign="1"/><v:tabList/>C<tspan class="st7">1</tspan></text>		</g>
		<g id="shape93-85" v:mID="93" v:groupContext="shape" transform="translate(111.975,-15.575)">
			<title>Sheet.93</title>
			<desc>VR1</desc>
			<v:textBlock v:margins="rect(4,4,4,4)" v:tabSpace="42.5197"/>
			<v:textRect cx="14.4" cy="61.15" width="28.81" height="20"/>
			<rect x="0" y="51.15" width="28.8" height="20" class="st5"/>
			<text x="5.71" y="64.75" class="st6" v:langID="2057"><v:paragraph v:horizAlign="1"/><v:tabList/>VR<tspan class="st7">1</tspan></text>		</g>
		<g id="shape95-89" v:mID="95" v:groupContext="shape" transform="translate(140.775,-23.575)">
			<title>Sheet.95</title>
			<desc>cw</desc>
			<v:textBlock v:margins="rect(4,4,4,4)" v:tabSpace="42.5197"/>
			<v:textRect cx="10.8" cy="61.15" width="21.61" height="20"/>
			<rect x="0" y="51.15" width="21.6" height="20" class="st5"/>
			<text x="6.25" y="63.55" class="st8" v:langID="2057"><v:paragraph v:horizAlign="1"/><v:tabList/>cw</text>		</g>
		<g id="shape96-92" v:mID="96" v:groupContext="shape" transform="translate(140.775,-25.575)">
			<title>Sheet.96</title>
			<path d="M0 45.95 L18 45.95 L18 71.15 L9.32 71.15" class="st3"/>
		</g>
		<g id="group98-97" transform="translate(39.975,-0.375)" v:mID="98" v:groupContext="group">
			<title>Sheet.98</title>
			<g id="shape77-98" v:mID="77" v:groupContext="shape" transform="translate(222.35,63.95) rotate(90)">
				<title>Sheet.77</title>
				<path d="M0 71.15 L7.2 71.15" class="st2"/>
			</g>
			<g id="group97-101" v:mID="97" v:groupContext="group">
				<title>Sheet.97</title>
				<g id="shape26-102" v:mID="26" v:groupContext="shape">
					<title>Sheet.26</title>
					<path d="M0 63.95 L0 71.15 L151.2 71.15" class="st2"/>
				</g>
			</g>
		</g>
	</g>
</svg>
