<?xml version="1.0" encoding="UTF-8" standalone="no"?>
<!DOCTYPE svg PUBLIC "-//W3C//DTD SVG 1.1//EN" "http://www.w3.org/Graphics/SVG/1.1/DTD/svg11.dtd">
<!-- Generated by Microsoft Visio, SVG Export simplelclo.svg Page-1 -->
<svg xmlns="http://www.w3.org/2000/svg" xmlns:xlink="http://www.w3.org/1999/xlink" xmlns:ev="http://www.w3.org/2001/xml-events"
		xmlns:v="http://schemas.microsoft.com/visio/2003/SVGExtensions/" width="3.01042in" height="0.988194in"
		viewBox="0 0 216.75 71.15" xml:space="preserve" color-interpolation-filters="sRGB" class="st8">
	<v:documentProperties v:langID="2057" v:metric="true" v:viewMarkup="false"/>

	<style type="text/css">
	<![CDATA[
		.st1 {fill:#ffffff;stroke:#000000;stroke-linecap:round;stroke-linejoin:round;stroke-width:0.75}
		.st2 {stroke:#000000;stroke-linecap:round;stroke-linejoin:round;stroke-width:0.75}
		.st3 {marker-end:url(#mrkr5-42);stroke:#000000;stroke-linecap:round;stroke-linejoin:round;stroke-width:0.75}
		.st4 {fill:#000000;fill-opacity:1;stroke:#000000;stroke-opacity:1;stroke-width:0.22935779816514}
		.st5 {fill:none;stroke:none;stroke-linecap:round;stroke-linejoin:round;stroke-width:0.75}
		.st6 {fill:#000000;font-family:Calibri;font-size:1.00001em}
		.st7 {font-size:0.666659em}
		.st8 {fill:none;fill-rule:evenodd;font-size:12px;overflow:visible;stroke-linecap:square;stroke-miterlimit:3}
	]]>
	</style>

	<defs id="Markers">
		<g id="lend5">
			<path d="M 2 1 L 0 0 L 1.98117 -0.993387 C 1.67173 -0.364515 1.67301 0.372641 1.98465 1.00043 " style="stroke:none"/>
		</g>
		<marker id="mrkr5-42" class="st4" v:arrowType="5" v:arrowSize="2" v:setback="7.63" refX="-7.63" orient="auto"
				markerUnits="strokeWidth" overflow="visible">
			<use xlink:href="#lend5" transform="scale(-4.36,-4.36) "/>
		</marker>
	</defs>
	<g v:mID="0" v:index="1" v:groupContext="foregroundPage">
		<title>Page-1</title>
		<v:pageProperties v:drawingScale="1" v:pageScale="1" v:drawingUnits="0" v:shadowOffsetX="8.50394"
				v:shadowOffsetY="-8.50394"/>
		<g id="group18-1" transform="translate(47.175,-47.175)" v:mID="18" v:groupContext="group">
			<title>Sheet.18</title>
			<g id="shape19-2" v:mID="19" v:groupContext="shape" transform="translate(7.2,0)">
				<title>Sheet.19</title>
				<rect x="0" y="63.95" width="21.6" height="7.2" class="st1"/>
			</g>
			<g id="shape20-4" v:mID="20" v:groupContext="shape" transform="translate(1.59872E-14,-3.6)">
				<title>Sheet.20</title>
				<path d="M0 71.15 L7.2 71.15" class="st2"/>
			</g>
			<g id="shape21-7" v:mID="21" v:groupContext="shape" transform="translate(28.8,-3.6)">
				<title>Sheet.21</title>
				<path d="M0 71.15 L7.2 71.15" class="st2"/>
			</g>
		</g>
		<g id="shape25-10" v:mID="25" v:groupContext="shape" transform="translate(39.975,-43.575)">
			<title>Sheet.25</title>
			<path d="M0 71.15 L0 63.95 L7.2 63.95" class="st2"/>
		</g>
		<g id="shape58-13" v:mID="58" v:groupContext="shape" transform="translate(83.175,-50.775) rotate(6.10569E-06)">
			<title>Sheet.58</title>
			<path d="M0 71.15 L14.4 71.15" class="st2"/>
		</g>
		<g id="shape60-16" v:mID="60" v:groupContext="shape" transform="translate(133.575,-36.375)">
			<title>Sheet.60</title>
			<path d="M0 56.75 L7.2 56.75 L7.2 71.15" class="st2"/>
		</g>
		<g id="shape62-19" v:mID="62" v:groupContext="shape" transform="translate(140.775,-0.375)">
			<title>Sheet.62</title>
			<path d="M0 71.15 L0 63.95 L0 56.75" class="st2"/>
		</g>
		<g id="group71-22" transform="translate(123.625,63.575) rotate(-90)" v:mID="71" v:groupContext="group">
			<title>Sheet.71</title>
			<g id="shape72-23" v:mID="72" v:groupContext="shape" transform="translate(7.2,0)">
				<title>Sheet.72</title>
				<rect x="0" y="63.95" width="21.6" height="7.2" class="st1"/>
			</g>
			<g id="shape73-25" v:mID="73" v:groupContext="shape" transform="translate(1.59872E-14,-3.6)">
				<title>Sheet.73</title>
				<path d="M0 71.15 L7.2 71.15" class="st2"/>
			</g>
			<g id="shape74-28" v:mID="74" v:groupContext="shape" transform="translate(28.8,-3.6)">
				<title>Sheet.74</title>
				<path d="M0 71.15 L7.2 71.15" class="st2"/>
			</g>
		</g>
		<g id="shape76-31" v:mID="76" v:groupContext="shape" transform="translate(140.775,-43.575)">
			<title>Sheet.76</title>
			<path d="M50.4 71.15 L50.4 63.95 L0 63.95" class="st2"/>
		</g>
		<g id="group80-34" transform="translate(0.375,-7.575)" v:mID="80" v:groupContext="group">
			<title>Sheet.80</title>
			<g id="shape81-35" v:mID="81" v:groupContext="shape" transform="translate(30.6,-9)">
				<title>Sheet.81</title>
				<ellipse cx="9" cy="62.15" rx="9" ry="9" class="st1"/>
			</g>
			<g id="shape82-37" v:mID="82" v:groupContext="shape" transform="translate(-31.55,58.55) rotate(-90)">
				<title>Sheet.82</title>
				<path d="M0 71.15 L5.08 71.15" class="st3"/>
			</g>
			<g id="shape83-43" v:mID="83" v:groupContext="shape" transform="translate(-31.55,44.1523) rotate(-90)">
				<title>Sheet.83</title>
				<path d="M0 71.15 L9 71.15" class="st2"/>
			</g>
			<g id="shape84-46" v:mID="84" v:groupContext="shape" transform="translate(-31.55,71.15) rotate(-90)">
				<title>Sheet.84</title>
				<path d="M0 71.15 L9 71.15" class="st2"/>
			</g>
			<g id="shape85-49" v:mID="85" v:groupContext="shape" transform="translate(7.99361E-15,-9)">
				<title>Sheet.85</title>
				<desc>VIN</desc>
				<v:textBlock v:margins="rect(4,4,4,4)" v:tabSpace="42.5197"/>
				<v:textRect cx="14.4" cy="61.15" width="28.81" height="20"/>
				<rect x="0" y="51.15" width="28.8" height="20" class="st5"/>
				<text x="7.41" y="64.75" class="st6" v:langID="2057"><v:paragraph v:horizAlign="1"/><v:tabList/>V<tspan class="st7">IN</tspan></text>			</g>
		</g>
		<g id="shape86-53" v:mID="86" v:groupContext="shape" transform="translate(50.775,-50.775)">
			<title>Sheet.86</title>
			<desc>RS</desc>
			<v:textBlock v:margins="rect(4,4,4,4)" v:tabSpace="42.5197"/>
			<v:textRect cx="14.4" cy="61.15" width="28.81" height="20"/>
			<rect x="0" y="51.15" width="28.8" height="20" class="st5"/>
			<text x="9.3" y="64.75" class="st6" v:langID="2057"><v:paragraph v:horizAlign="1"/><v:tabList/>R<tspan class="st7">S</tspan></text>		</g>
		<g id="shape87-57" v:mID="87" v:groupContext="shape" transform="translate(187.575,-15.575)">
			<title>Sheet.87</title>
			<desc>RL</desc>
			<v:textBlock v:margins="rect(4,4,4,4)" v:tabSpace="42.5197"/>
			<v:textRect cx="14.4" cy="61.15" width="28.81" height="20"/>
			<rect x="0" y="51.15" width="28.8" height="20" class="st5"/>
			<text x="9.46" y="64.75" class="st6" v:langID="2057"><v:paragraph v:horizAlign="1"/><v:tabList/>R<tspan class="st7">L</tspan></text>		</g>
		<g id="shape93-61" v:mID="93" v:groupContext="shape" transform="translate(101.175,-50.775)">
			<title>Sheet.93</title>
			<desc>L1</desc>
			<v:textBlock v:margins="rect(4,4,4,4)" v:tabSpace="42.5197"/>
			<v:textRect cx="14.4" cy="61.15" width="28.81" height="20"/>
			<rect x="0" y="51.15" width="28.8" height="20" class="st5"/>
			<text x="9.85" y="64.75" class="st6" v:langID="2057"><v:paragraph v:horizAlign="1"/><v:tabList/>L<tspan class="st7">1</tspan></text>		</g>
		<g id="group98-65" transform="translate(39.975,-0.375)" v:mID="98" v:groupContext="group">
			<title>Sheet.98</title>
			<g id="shape77-66" v:mID="77" v:groupContext="shape" transform="translate(222.35,63.95) rotate(90)">
				<title>Sheet.77</title>
				<path d="M0 71.15 L7.2 71.15" class="st2"/>
			</g>
			<g id="group97-69" v:mID="97" v:groupContext="group">
				<title>Sheet.97</title>
				<g id="shape26-70" v:mID="26" v:groupContext="shape">
					<title>Sheet.26</title>
					<path d="M0 63.95 L0 71.15 L151.2 71.15" class="st2"/>
				</g>
			</g>
		</g>
		<g id="group99-73" transform="translate(97.575,-47.175)" v:mID="99" v:groupContext="group">
			<title>Sheet.99</title>
			<g id="shape100-74" v:mID="100" v:groupContext="shape" transform="translate(7.2,0)">
				<title>Sheet.100</title>
				<path d="M0 71.15 L21.6 71.15" class="st2"/>
			</g>
			<g id="shape101-77" v:mID="101" v:groupContext="shape" transform="translate(-49.5351,107.419) rotate(-122.005)">
				<title>Sheet.101</title>
				<path d="M0 71.15 A6.01529 2.90876 24.62 0 1 6.79 71.15" class="st2"/>
			</g>
			<g id="shape102-80" v:mID="102" v:groupContext="shape"
					transform="translate(71.1351,107.419) rotate(-57.9946) scale(1,-1)">
				<title>Sheet.102</title>
				<path d="M0 71.15 A6.01529 2.90876 24.62 0 1 6.79 71.15" class="st2"/>
			</g>
			<g id="shape103-83" v:mID="103" v:groupContext="shape" transform="translate(-42.3351,107.419) rotate(-122.005)">
				<title>Sheet.103</title>
				<path d="M0 71.15 A6.01529 2.90876 24.62 0 1 6.79 71.15" class="st2"/>
			</g>
			<g id="shape104-86" v:mID="104" v:groupContext="shape"
					transform="translate(78.3351,107.419) rotate(-57.9946) scale(1,-1)">
				<title>Sheet.104</title>
				<path d="M0 71.15 A6.01529 2.90876 24.62 0 1 6.79 71.15" class="st2"/>
			</g>
			<g id="shape105-89" v:mID="105" v:groupContext="shape" transform="translate(-35.1351,107.419) rotate(-122.005)">
				<title>Sheet.105</title>
				<path d="M-0 71.15 A6.01529 2.90876 24.62 0 1 6.79 71.15" class="st2"/>
			</g>
			<g id="shape106-92" v:mID="106" v:groupContext="shape"
					transform="translate(85.5351,107.419) rotate(-57.9946) scale(1,-1)">
				<title>Sheet.106</title>
				<path d="M0 71.15 A6.01529 2.90876 24.62 0 1 6.79 71.15" class="st2"/>
			</g>
			<g id="shape107-95" v:mID="107" v:groupContext="shape" transform="translate(57.5107,114.261) rotate(135)">
				<title>Sheet.107</title>
				<path d="M-0 71.15 A4.12952 3.40963 124.67 0 1 5.09 71.15" class="st2"/>
			</g>
			<g id="shape108-98" v:mID="108" v:groupContext="shape"
					transform="translate(-21.5107,114.261) rotate(45.0001) scale(1,-1)">
				<title>Sheet.108</title>
				<path d="M-0 71.15 A4.12953 3.40963 124.67 0 1 5.09 71.15" class="st2"/>
			</g>
			<g id="shape109-101" v:mID="109" v:groupContext="shape" transform="translate(-5.3115E-12,-3.6)">
				<title>Sheet.109</title>
				<path d="M0 71.15 L3.6 71.15" class="st2"/>
			</g>
			<g id="shape110-104" v:mID="110" v:groupContext="shape" transform="translate(32.4,-3.6)">
				<title>Sheet.110</title>
				<path d="M0 71.15 L3.6 71.15" class="st2"/>
			</g>
		</g>
		<g id="group111-107" transform="translate(129.975,-14.775)" v:mID="111" v:groupContext="group">
			<title>Sheet.111</title>
			<g id="shape112-108" v:mID="112" v:groupContext="shape" transform="translate(0,-12.24)">
				<title>Sheet.112</title>
				<rect x="0" y="68.99" width="21.6" height="2.16003" class="st1"/>
			</g>
			<g id="shape113-110" v:mID="113" v:groupContext="shape" transform="translate(0,-7.20001)">
				<title>Sheet.113</title>
				<rect x="0" y="68.99" width="21.6" height="2.16003" class="st1"/>
			</g>
			<g id="shape114-112" v:mID="114" v:groupContext="shape" transform="translate(-60.35,56.75) rotate(-90)">
				<title>Sheet.114</title>
				<path d="M0 71.15 L7.2 71.15" class="st2"/>
			</g>
			<g id="shape115-115" v:mID="115" v:groupContext="shape" transform="translate(81.95,63.95) rotate(90)">
				<title>Sheet.115</title>
				<path d="M0 71.15 L7.2 71.15" class="st2"/>
			</g>
		</g>
		<g id="shape116-118" v:mID="116" v:groupContext="shape" transform="translate(137.175,-25.575)">
			<title>Sheet.116</title>
			<desc>C1</desc>
			<v:textBlock v:margins="rect(4,4,4,4)" v:tabSpace="42.5197"/>
			<v:textRect cx="14.4" cy="61.15" width="28.81" height="20"/>
			<rect x="0" y="51.15" width="28.8" height="20" class="st5"/>
			<text x="9.17" y="64.75" class="st6" v:langID="2057"><v:paragraph v:horizAlign="1"/><v:tabList/>C<tspan class="st7">1</tspan></text>		</g>
	</g>
</svg>
